<svg version="1.1" xmlns="http://www.w3.org/2000/svg" xmlns:xlink="http://www.w3.org/1999/xlink" width="956" height="612"><defs/><g><g transform="translate(-142,10) scale(1,1)"><path fill="none" stroke="#000000" d="M 152 0 L 1088 0 L 1088 592 L 152 592 L 152 0" stroke-miterlimit="10"/></g><g transform="translate(-142,10) scale(1,1)"><path fill="#ffffff" stroke="none" d="M 152 0 L 152 22 L 398.5341796875 22 L 409.5341796875 11 L 409.5341796875 0 L 152 0"/></g><g transform="translate(-142,10) scale(1,1)"><path fill="none" stroke="#000000" d="M 152 0 L 152 22 L 398.5341796875 22 L 409.5341796875 11 L 409.5341796875 0 L 152 0 L 152 0" stroke-miterlimit="10"/></g><g transform="translate(-142,10) scale(1,1)"><g><path fill="none" stroke="none"/><text fill="#000000" stroke="none" font-family="Arial" font-size="13px" font-style="normal" font-weight="normal" text-decoration="none" x="222.97900390625" y="17.5">Inserção de Pedido [Negócio]</text></g></g><g transform="translate(-142,10) scale(1,1)"><g><path fill="none" stroke="none"/><text fill="#000000" stroke="none" font-family="Arial" font-size="13px" font-style="normal" font-weight="bold" text-decoration="none" x="157" y="17.5">interaction</text></g></g><g transform="translate(-142,10) scale(1,1)"><rect fill="#C0C0C0" stroke="none" x="303" y="47" width="71.736328125" height="39" opacity="0.2"/></g><g transform="translate(-142,10) scale(1,1)"><rect fill="#ffffff" stroke="none" x="296" y="40" width="71.736328125" height="39"/></g><g transform="translate(-142,10) scale(1,1)"><path fill="none" stroke="#000000" d="M 296 40 L 367.736328125 40 L 367.736328125 79 L 296 79 L 296 40 Z Z" stroke-miterlimit="10"/></g><g transform="translate(-142,10) scale(1,1)"><g><path fill="none" stroke="none"/><text fill="#000000" stroke="none" font-family="Arial" font-size="13px" font-style="normal" font-weight="bold" text-decoration="none" x="311.635009765625" y="59.5">Cliente</text></g></g><g transform="translate(-142,10) scale(1,1)"><path fill="none" stroke="#000000" d="M 332.5 80 L 332.5 560" stroke-miterlimit="10" stroke-dasharray="3"/></g><g transform="translate(-142,10) scale(1,1)"><rect fill="#C0C0C0" stroke="none" x="647" y="47" width="71.736328125" height="39" opacity="0.2"/></g><g transform="translate(-142,10) scale(1,1)"><rect fill="#ffffff" stroke="none" x="640" y="40" width="71.736328125" height="39"/></g><g transform="translate(-142,10) scale(1,1)"><path fill="none" stroke="#000000" d="M 640 40 L 711.736328125 40 L 711.736328125 79 L 640 79 L 640 40 Z Z" stroke-miterlimit="10"/></g><g transform="translate(-142,10) scale(1,1)"><g><path fill="none" stroke="none"/><text fill="#000000" stroke="none" font-family="Arial" font-size="13px" font-style="normal" font-weight="bold" text-decoration="none" x="652.38818359375" y="59.5">Sistema</text></g></g><g transform="translate(-142,10) scale(1,1)"><path fill="none" stroke="#000000" d="M 676.5 80 L 676.5 552" stroke-miterlimit="10" stroke-dasharray="3"/></g><g transform="translate(-142,10) scale(1,1)"><rect fill="#C0C0C0" stroke="none" x="935" y="47" width="110.00634765625" height="39" opacity="0.2"/></g><g transform="translate(-142,10) scale(1,1)"><rect fill="#ffffff" stroke="none" x="928" y="40" width="110.00634765625" height="39"/></g><g transform="translate(-142,10) scale(1,1)"><path fill="none" stroke="#000000" d="M 928 40 L 1038.00634765625 40 L 1038.00634765625 79 L 928 79 L 928 40 Z Z" stroke-miterlimit="10"/></g><g transform="translate(-142,10) scale(1,1)"><g><path fill="none" stroke="none"/><text fill="#000000" stroke="none" font-family="Arial" font-size="13px" font-style="normal" font-weight="bold" text-decoration="none" x="940.71826171875" y="59.5">Subadquirente</text></g></g><g transform="translate(-142,10) scale(1,1)"><path fill="none" stroke="#000000" d="M 984.5 80 L 984.5 552" stroke-miterlimit="10" stroke-dasharray="3"/></g><g transform="translate(-142,10) scale(1,1)"><path fill="none" stroke="#000000" d="M 332 112 L 669 112" stroke-miterlimit="10"/></g><g transform="translate(-142,10) scale(1,1)"><path fill="#000000" stroke="none" d="M 658.8373251423759 116.20951775601598 L 669 112 L 658.8373251423758 107.79048224398402"/></g><g transform="translate(-142,10) scale(1,1)"><path fill="none" stroke="#000000" d="M 658.8373251423759 116.20951775601598 L 669 112 L 658.8373251423758 107.79048224398402 L 658.8373251423759 116.20951775601598" stroke-miterlimit="10"/></g><g transform="translate(-142,10) scale(1,1)"><g><path fill="none" stroke="none"/><text fill="#000000" stroke="none" font-family="Arial" font-size="13px" font-style="normal" font-weight="normal" text-decoration="none" x="432.66455078125" y="108.5">1 : Consulta o cardápio</text></g></g><g transform="translate(-142,10) scale(1,1)"><rect fill="#ffffff" stroke="none" x="669" y="112" width="13" height="28"/></g><g transform="translate(-142,10) scale(1,1)"><path fill="none" stroke="#000000" d="M 669 112 L 682 112 L 682 140 L 669 140 L 669 112 Z Z" stroke-miterlimit="10"/></g><g transform="translate(-142,10) scale(1,1)"><path fill="none" stroke="#000000" d="M 676 140 L 332 140" stroke-miterlimit="10" stroke-dasharray="3"/></g><g transform="translate(-142,10) scale(1,1)"><path fill="none" stroke="#000000" d="M 342.16267485762415 135.790482243984 L 332 140 L 342.16267485762415 144.209517756016" stroke-miterlimit="10"/></g><g transform="translate(-142,10) scale(1,1)"><g><path fill="none" stroke="none"/><text fill="#000000" stroke="none" font-family="Arial" font-size="13px" font-style="normal" font-weight="normal" text-decoration="none" x="441.5" y="156.5">2 : Mostra o cardápio</text></g></g><g transform="translate(-142,10) scale(1,1)"><path fill="none" stroke="#000000" d="M 332 186 L 669 186" stroke-miterlimit="10"/></g><g transform="translate(-142,10) scale(1,1)"><path fill="#000000" stroke="none" d="M 658.8373251423759 190.209517756016 L 669 186 L 658.8373251423758 181.790482243984"/></g><g transform="translate(-142,10) scale(1,1)"><path fill="none" stroke="#000000" d="M 658.8373251423759 190.209517756016 L 669 186 L 658.8373251423758 181.790482243984 L 658.8373251423759 190.209517756016" stroke-miterlimit="10"/></g><g transform="translate(-142,10) scale(1,1)"><g><path fill="none" stroke="none"/><text fill="#000000" stroke="none" font-family="Arial" font-size="13px" font-style="normal" font-weight="normal" text-decoration="none" x="445.66455078125" y="182.5">3 : Monta o pedido</text></g></g><g transform="translate(-142,10) scale(1,1)"><rect fill="#ffffff" stroke="none" x="669" y="186" width="13" height="38"/></g><g transform="translate(-142,10) scale(1,1)"><path fill="none" stroke="#000000" d="M 669 186 L 682 186 L 682 224 L 669 224 L 669 186 Z Z" stroke-miterlimit="10"/></g><g transform="translate(-142,10) scale(1,1)"><path fill="none" stroke="#000000" d="M 676 224 L 332 224" stroke-miterlimit="10" stroke-dasharray="3"/></g><g transform="translate(-142,10) scale(1,1)"><path fill="none" stroke="#000000" d="M 342.16267485762415 219.790482243984 L 332 224 L 342.16267485762415 228.209517756016" stroke-miterlimit="10"/></g><g transform="translate(-142,10) scale(1,1)"><g><path fill="none" stroke="none"/><text fill="#000000" stroke="none" font-family="Arial" font-size="13px" font-style="normal" font-weight="normal" text-decoration="none" x="393.5" y="240.5">4 : Valida pedido e pede CPF e senha</text></g></g><g transform="translate(-142,10) scale(1,1)"><path fill="none" stroke="#000000" d="M 332 264 L 669 264" stroke-miterlimit="10"/></g><g transform="translate(-142,10) scale(1,1)"><path fill="#000000" stroke="none" d="M 658.8373251423759 268.209517756016 L 669 264 L 658.8373251423758 259.790482243984"/></g><g transform="translate(-142,10) scale(1,1)"><path fill="none" stroke="#000000" d="M 658.8373251423759 268.209517756016 L 669 264 L 658.8373251423758 259.790482243984 L 658.8373251423759 268.209517756016" stroke-miterlimit="10"/></g><g transform="translate(-142,10) scale(1,1)"><g><path fill="none" stroke="none"/><text fill="#000000" stroke="none" font-family="Arial" font-size="13px" font-style="normal" font-weight="normal" text-decoration="none" x="423.5" y="260.5">5 : Informa o CPF e senha</text></g></g><g transform="translate(-142,10) scale(1,1)"><rect fill="#ffffff" stroke="none" x="669" y="264" width="13" height="32"/></g><g transform="translate(-142,10) scale(1,1)"><path fill="none" stroke="#000000" d="M 669 264 L 682 264 L 682 296 L 669 296 L 669 264 Z Z" stroke-miterlimit="10"/></g><g transform="translate(-142,10) scale(1,1)"><path fill="none" stroke="#000000" d="M 676 296 L 332 296" stroke-miterlimit="10" stroke-dasharray="3"/></g><g transform="translate(-142,10) scale(1,1)"><path fill="none" stroke="#000000" d="M 342.16267485762415 291.790482243984 L 332 296 L 342.16267485762415 300.209517756016" stroke-miterlimit="10"/></g><g transform="translate(-142,10) scale(1,1)"><g><path fill="none" stroke="none"/><text fill="#000000" stroke="none" font-family="Arial" font-size="13px" font-style="normal" font-weight="normal" text-decoration="none" x="347.5" y="312.5">6 : Valida CPF, senha e mostra opções de pagamento</text></g></g><g transform="translate(-142,10) scale(1,1)"><path fill="none" stroke="#000000" d="M 332 339 L 669 339" stroke-miterlimit="10"/></g><g transform="translate(-142,10) scale(1,1)"><path fill="#000000" stroke="none" d="M 658.8373251423759 343.209517756016 L 669 339 L 658.8373251423758 334.790482243984"/></g><g transform="translate(-142,10) scale(1,1)"><path fill="none" stroke="#000000" d="M 658.8373251423759 343.209517756016 L 669 339 L 658.8373251423758 334.790482243984 L 658.8373251423759 343.209517756016" stroke-miterlimit="10"/></g><g transform="translate(-142,10) scale(1,1)"><g><path fill="none" stroke="none"/><text fill="#000000" stroke="none" font-family="Arial" font-size="13px" font-style="normal" font-weight="normal" text-decoration="none" x="411.5" y="335.5">7 : Escolhe pagar pelo sistema</text></g></g><g transform="translate(-142,10) scale(1,1)"><rect fill="#ffffff" stroke="none" x="669" y="339" width="13" height="29"/></g><g transform="translate(-142,10) scale(1,1)"><path fill="none" stroke="#000000" d="M 669 339 L 682 339 L 682 368 L 669 368 L 669 339 Z Z" stroke-miterlimit="10"/></g><g transform="translate(-142,10) scale(1,1)"><path fill="none" stroke="#000000" d="M 676 368 L 332 368" stroke-miterlimit="10" stroke-dasharray="3"/></g><g transform="translate(-142,10) scale(1,1)"><path fill="none" stroke="#000000" d="M 342.16267485762415 363.790482243984 L 332 368 L 342.16267485762415 372.209517756016" stroke-miterlimit="10"/></g><g transform="translate(-142,10) scale(1,1)"><g><path fill="none" stroke="none"/><text fill="#000000" stroke="none" font-family="Arial" font-size="13px" font-style="normal" font-weight="normal" text-decoration="none" x="363.5" y="384.5">8 : Mostra opções de cartão de crédito ou débito</text></g></g><g transform="translate(-142,10) scale(1,1)"><path fill="none" stroke="#000000" d="M 332 416 L 669 416" stroke-miterlimit="10"/></g><g transform="translate(-142,10) scale(1,1)"><path fill="#000000" stroke="none" d="M 658.8373251423759 420.209517756016 L 669 416 L 658.8373251423758 411.790482243984"/></g><g transform="translate(-142,10) scale(1,1)"><path fill="none" stroke="#000000" d="M 658.8373251423759 420.209517756016 L 669 416 L 658.8373251423758 411.790482243984 L 658.8373251423759 420.209517756016" stroke-miterlimit="10"/></g><g transform="translate(-142,10) scale(1,1)"><g><path fill="none" stroke="none"/><text fill="#000000" stroke="none" font-family="Arial" font-size="13px" font-style="normal" font-weight="normal" text-decoration="none" x="364.4072265625" y="412.5">9 : Escolhe cartão de crédito e insere os dados</text></g></g><g transform="translate(-142,10) scale(1,1)"><rect fill="#ffffff" stroke="none" x="669" y="416" width="13" height="64"/></g><g transform="translate(-142,10) scale(1,1)"><path fill="none" stroke="#000000" d="M 669 416 L 682 416 L 682 480 L 669 480 L 669 416 Z Z" stroke-miterlimit="10"/></g><g transform="translate(-142,10) scale(1,1)"><path fill="none" stroke="#000000" d="M 682 424 L 977 424" stroke-miterlimit="10"/></g><g transform="translate(-142,10) scale(1,1)"><path fill="#000000" stroke="none" d="M 966.8373251423759 428.209517756016 L 977 424 L 966.8373251423758 419.790482243984"/></g><g transform="translate(-142,10) scale(1,1)"><path fill="none" stroke="#000000" d="M 966.8373251423759 428.209517756016 L 977 424 L 966.8373251423758 419.790482243984 L 966.8373251423759 428.209517756016" stroke-miterlimit="10"/></g><g transform="translate(-142,10) scale(1,1)"><g><path fill="none" stroke="none"/><text fill="#000000" stroke="none" font-family="Arial" font-size="13px" font-style="normal" font-weight="normal" text-decoration="none" x="695.5" y="420.5">10 : Envia as informações do cartão do cliente</text></g></g><g transform="translate(-142,10) scale(1,1)"><rect fill="#ffffff" stroke="none" x="977" y="424" width="13" height="28"/></g><g transform="translate(-142,10) scale(1,1)"><path fill="none" stroke="#000000" d="M 977 424 L 990 424 L 990 452 L 977 452 L 977 424 Z Z" stroke-miterlimit="10"/></g><g transform="translate(-142,10) scale(1,1)"><path fill="none" stroke="#000000" d="M 984 452 L 682 452" stroke-miterlimit="10" stroke-dasharray="3"/></g><g transform="translate(-142,10) scale(1,1)"><path fill="none" stroke="#000000" d="M 692.1626748576241 447.790482243984 L 682 452 L 692.1626748576241 456.209517756016" stroke-miterlimit="10"/></g><g transform="translate(-142,10) scale(1,1)"><g><path fill="none" stroke="none"/><text fill="#000000" stroke="none" font-family="Arial" font-size="13px" font-style="normal" font-weight="normal" text-decoration="none" x="717.5" y="468.5">11 : Indica que a transação foi realizada</text></g></g><g transform="translate(-142,10) scale(1,1)"><path fill="none" stroke="#000000" d="M 676 480 L 332 480" stroke-miterlimit="10" stroke-dasharray="3"/></g><g transform="translate(-142,10) scale(1,1)"><path fill="none" stroke="#000000" d="M 342.16267485762415 475.790482243984 L 332 480 L 342.16267485762415 484.209517756016" stroke-miterlimit="10"/></g><g transform="translate(-142,10) scale(1,1)"><g><path fill="none" stroke="none"/><text fill="#000000" stroke="none" font-family="Arial" font-size="13px" font-style="normal" font-weight="normal" text-decoration="none" x="366.337646484375" y="496.5">12 : Indica que pedido foi para a fila de preparo</text></g></g></g></svg>