<svg version="1.1" xmlns="http://www.w3.org/2000/svg" xmlns:xlink="http://www.w3.org/1999/xlink" width="652.38525390625" height="796"><defs/><g><g transform="translate(-94,-22) scale(1,1)"><rect fill="#C0C0C0" stroke="none" x="207" y="247" width="139.4189453125" height="175" opacity="0.2"/></g><g transform="translate(-94,-22) scale(1,1)"><rect fill="#ffffff" stroke="none" x="200" y="240" width="139.4189453125" height="175"/></g><g transform="translate(-94,-22) scale(1,1)"><path fill="none" stroke="#000000" d="M 200 240 L 339.4189453125 240 L 339.4189453125 415 L 200 415 L 200 240 Z Z" stroke-miterlimit="10"/></g><g transform="translate(-94,-22) scale(1,1)"><path fill="none" stroke="#000000" d="M 200 265 L 339.4189453125 265" stroke-miterlimit="10"/></g><g transform="translate(-94,-22) scale(1,1)"><path fill="none" stroke="#000000" d="M 200 348 L 339.4189453125 348" stroke-miterlimit="10"/></g><g transform="translate(-94,-22) scale(1,1)"><g><path fill="none" stroke="none"/><text fill="#000000" stroke="none" font-family="Arial" font-size="13px" font-style="normal" font-weight="bold" text-decoration="none" x="249.469970703125" y="259.5">Pedido</text></g></g><g transform="translate(-94,-22) scale(1,1)"><g><path fill="none" stroke="none"/><text fill="#000000" stroke="none" font-family="Arial" font-size="13px" font-style="normal" font-weight="normal" text-decoration="none" x="205" y="282.5">-status</text></g></g><g transform="translate(-94,-22) scale(1,1)"><g><path fill="none" stroke="none"/><text fill="#000000" stroke="none" font-family="Arial" font-size="13px" font-style="normal" font-weight="normal" text-decoration="none" x="205" y="297.5">-dataHoraCriacao</text></g></g><g transform="translate(-94,-22) scale(1,1)"><g><path fill="none" stroke="none"/><text fill="#000000" stroke="none" font-family="Arial" font-size="13px" font-style="normal" font-weight="normal" text-decoration="none" x="205" y="312.5">-dataHoraEntrega</text></g></g><g transform="translate(-94,-22) scale(1,1)"><g><path fill="none" stroke="none"/><text fill="#000000" stroke="none" font-family="Arial" font-size="13px" font-style="normal" font-weight="normal" text-decoration="none" x="205" y="327.5">-localizacao</text></g></g><g transform="translate(-94,-22) scale(1,1)"><g><path fill="none" stroke="none"/><text fill="#000000" stroke="none" font-family="Arial" font-size="13px" font-style="normal" font-weight="normal" text-decoration="none" x="205" y="342.5">-valorTotal</text></g></g><g transform="translate(-94,-22) scale(1,1)"><g><path fill="none" stroke="none"/><text fill="#000000" stroke="none" font-family="Arial" font-size="13px" font-style="normal" font-weight="normal" text-decoration="none" x="205" y="365.5">+alterarStatus()</text></g></g><g transform="translate(-94,-22) scale(1,1)"><g><path fill="none" stroke="none"/><text fill="#000000" stroke="none" font-family="Arial" font-size="13px" font-style="normal" font-weight="normal" text-decoration="none" x="205" y="380.5">+calcularValorTotal()</text></g></g><g transform="translate(-94,-22) scale(1,1)"><g><path fill="none" stroke="none"/><text fill="#000000" stroke="none" font-family="Arial" font-size="13px" font-style="normal" font-weight="normal" text-decoration="none" x="205" y="395.5">+registrarPagamento()</text></g></g><g transform="translate(-94,-22) scale(1,1)"><g><path fill="none" stroke="none"/><text fill="#000000" stroke="none" font-family="Arial" font-size="13px" font-style="normal" font-weight="normal" text-decoration="none" x="205" y="410.5">+inserirPedido()</text></g></g><g transform="translate(-94,-22) scale(1,1)"><rect fill="#C0C0C0" stroke="none" x="111" y="495" width="126.888671875" height="87" opacity="0.2"/></g><g transform="translate(-94,-22) scale(1,1)"><rect fill="#ffffff" stroke="none" x="104" y="488" width="126.888671875" height="87"/></g><g transform="translate(-94,-22) scale(1,1)"><path fill="none" stroke="#000000" d="M 104 488 L 230.888671875 488 L 230.888671875 575 L 104 575 L 104 488 Z Z" stroke-miterlimit="10"/></g><g transform="translate(-94,-22) scale(1,1)"><path fill="none" stroke="#000000" d="M 104 513 L 230.888671875 513" stroke-miterlimit="10"/></g><g transform="translate(-94,-22) scale(1,1)"><path fill="none" stroke="#000000" d="M 104 551 L 230.888671875 551" stroke-miterlimit="10"/></g><g transform="translate(-94,-22) scale(1,1)"><g><path fill="none" stroke="none"/><text fill="#000000" stroke="none" font-family="Arial" font-size="13px" font-style="normal" font-weight="bold" text-decoration="none" x="134.5634765625" y="507.5">ItemPedido</text></g></g><g transform="translate(-94,-22) scale(1,1)"><g><path fill="none" stroke="none"/><text fill="#000000" stroke="none" font-family="Arial" font-size="13px" font-style="normal" font-weight="normal" text-decoration="none" x="109" y="530.5">-quantidade</text></g></g><g transform="translate(-94,-22) scale(1,1)"><g><path fill="none" stroke="none"/><text fill="#000000" stroke="none" font-family="Arial" font-size="13px" font-style="normal" font-weight="normal" text-decoration="none" x="109" y="545.5">-valorTotal</text></g></g><g transform="translate(-94,-22) scale(1,1)"><g><path fill="none" stroke="none"/><text fill="#000000" stroke="none" font-family="Arial" font-size="13px" font-style="normal" font-weight="normal" text-decoration="none" x="109" y="570.5">+calcularValorTotal()</text></g></g><g transform="translate(-94,-22) scale(1,1)"><path fill="none" stroke="#000000" d="M 189 487 L 225 416" stroke-miterlimit="10"/></g><g transform="translate(-94,-22) scale(1,1)"><path fill="#000000" stroke="none" d="M 224.1585917744557 426.9677724355489 L 225 416 L 216.64964827428395 423.16042080165903 L 215.05091072179582 435.6218149653472"/></g><g transform="translate(-94,-22) scale(1,1)"><path fill="none" stroke="#000000" d="M 224.1585917744557 426.9677724355489 L 225 416 L 216.64964827428395 423.16042080165903 L 215.05091072179582 435.6218149653472 L 224.1585917744557 426.9677724355489" stroke-miterlimit="10"/></g><g transform="translate(-94,-22) scale(1,1)"><g><path fill="none" stroke="none"/><text fill="#000000" stroke="none" font-family="Arial" font-size="13px" font-style="normal" font-weight="normal" text-decoration="none" x="198.5" y="483.5">1..*</text></g></g><g transform="translate(-94,-22) scale(1,1)"><g><path fill="none" stroke="none"/><text fill="#000000" stroke="none" font-family="Arial" font-size="13px" font-style="normal" font-weight="normal" text-decoration="none" x="222.5" y="446.5">1</text></g></g><g transform="translate(-94,-22) scale(1,1)"><rect fill="#C0C0C0" stroke="none" x="199" y="695" width="75.8408203125" height="87" opacity="0.2"/></g><g transform="translate(-94,-22) scale(1,1)"><rect fill="#ffffff" stroke="none" x="192" y="688" width="75.8408203125" height="87"/></g><g transform="translate(-94,-22) scale(1,1)"><path fill="none" stroke="#000000" d="M 192 688 L 267.8408203125 688 L 267.8408203125 775 L 192 775 L 192 688 Z Z" stroke-miterlimit="10"/></g><g transform="translate(-94,-22) scale(1,1)"><path fill="none" stroke="#000000" d="M 192 713 L 267.8408203125 713" stroke-miterlimit="10"/></g><g transform="translate(-94,-22) scale(1,1)"><path fill="none" stroke="#000000" d="M 192 751 L 267.8408203125 751" stroke-miterlimit="10"/></g><g transform="translate(-94,-22) scale(1,1)"><g><path fill="none" stroke="none"/><text fill="#000000" stroke="none" font-family="Arial" font-size="13px" font-style="normal" font-weight="bold" text-decoration="none" x="214.02587890625" y="707.5">Pizza</text></g></g><g transform="translate(-94,-22) scale(1,1)"><g><path fill="none" stroke="none"/><text fill="#000000" stroke="none" font-family="Arial" font-size="13px" font-style="normal" font-weight="normal" text-decoration="none" x="197" y="730.5">-tipoMassa</text></g></g><g transform="translate(-94,-22) scale(1,1)"><g><path fill="none" stroke="none"/><text fill="#000000" stroke="none" font-family="Arial" font-size="13px" font-style="normal" font-weight="normal" text-decoration="none" x="197" y="745.5">-ehMetade</text></g></g><g transform="translate(-94,-22) scale(1,1)"><path fill="none" stroke="#000000" d="M 269 711 L 343 673" stroke-miterlimit="10"/></g><g transform="translate(-94,-22) scale(1,1)"><path fill="#FFFFFF" stroke="none" d="M 328.76509412609744 689.7740112901218 L 343 673 L 321.07338439606644 674.7954186579561"/></g><g transform="translate(-94,-22) scale(1,1)"><path fill="none" stroke="#000000" d="M 328.76509412609744 689.7740112901218 L 343 673 L 321.07338439606644 674.7954186579561 L 328.76509412609744 689.7740112901218" stroke-miterlimit="10"/></g><g transform="translate(-94,-22) scale(1,1)"><rect fill="#C0C0C0" stroke="none" x="543" y="703" width="72.2353515625" height="72" opacity="0.2"/></g><g transform="translate(-94,-22) scale(1,1)"><rect fill="#ffffff" stroke="none" x="536" y="696" width="72.2353515625" height="72"/></g><g transform="translate(-94,-22) scale(1,1)"><path fill="none" stroke="#000000" d="M 536 696 L 608.2353515625 696 L 608.2353515625 768 L 536 768 L 536 696 Z Z" stroke-miterlimit="10"/></g><g transform="translate(-94,-22) scale(1,1)"><path fill="none" stroke="#000000" d="M 536 721 L 608.2353515625 721" stroke-miterlimit="10"/></g><g transform="translate(-94,-22) scale(1,1)"><path fill="none" stroke="#000000" d="M 536 744 L 608.2353515625 744" stroke-miterlimit="10"/></g><g transform="translate(-94,-22) scale(1,1)"><g><path fill="none" stroke="none"/><text fill="#000000" stroke="none" font-family="Arial" font-size="13px" font-style="normal" font-weight="bold" text-decoration="none" x="551.878173828125" y="715.5">Bebida</text></g></g><g transform="translate(-94,-22) scale(1,1)"><g><path fill="none" stroke="none"/><text fill="#000000" stroke="none" font-family="Arial" font-size="13px" font-style="normal" font-weight="normal" text-decoration="none" x="541" y="738.5">-litros</text></g></g><g transform="translate(-94,-22) scale(1,1)"><path fill="none" stroke="#000000" d="M 535 713 L 456 673" stroke-miterlimit="10"/></g><g transform="translate(-94,-22) scale(1,1)"><path fill="#FFFFFF" stroke="none" d="M 477.9364962641744 674.6703687173382 L 456 673 L 470.3303162167594 689.6925743109828"/></g><g transform="translate(-94,-22) scale(1,1)"><path fill="none" stroke="#000000" d="M 477.9364962641744 674.6703687173382 L 456 673 L 470.3303162167594 689.6925743109828 L 477.9364962641744 674.6703687173382" stroke-miterlimit="10"/></g><g transform="translate(-94,-22) scale(1,1)"><rect fill="#C0C0C0" stroke="none" x="127" y="39" width="179.1552734375" height="115" opacity="0.2"/></g><g transform="translate(-94,-22) scale(1,1)"><rect fill="#ffffff" stroke="none" x="120" y="32" width="179.1552734375" height="115"/></g><g transform="translate(-94,-22) scale(1,1)"><path fill="none" stroke="#000000" d="M 120 32 L 299.1552734375 32 L 299.1552734375 147 L 120 147 L 120 32 Z Z" stroke-miterlimit="10"/></g><g transform="translate(-94,-22) scale(1,1)"><path fill="none" stroke="#000000" d="M 120 57 L 299.1552734375 57" stroke-miterlimit="10"/></g><g transform="translate(-94,-22) scale(1,1)"><path fill="none" stroke="#000000" d="M 120 125 L 299.1552734375 125" stroke-miterlimit="10"/></g><g transform="translate(-94,-22) scale(1,1)"><g><path fill="none" stroke="none"/><text fill="#000000" stroke="none" font-family="Arial" font-size="13px" font-style="normal" font-weight="bold" text-decoration="none" x="189.344482421875" y="51.5">Cliente</text></g></g><g transform="translate(-94,-22) scale(1,1)"><g><path fill="none" stroke="none"/><text fill="#000000" stroke="none" font-family="Arial" font-size="13px" font-style="normal" font-weight="normal" text-decoration="none" x="125" y="74.5">-nome</text></g></g><g transform="translate(-94,-22) scale(1,1)"><g><path fill="none" stroke="none"/><text fill="#000000" stroke="none" font-family="Arial" font-size="13px" font-style="normal" font-weight="normal" text-decoration="none" x="125" y="89.5">-cpf</text></g></g><g transform="translate(-94,-22) scale(1,1)"><g><path fill="none" stroke="none"/><text fill="#000000" stroke="none" font-family="Arial" font-size="13px" font-style="normal" font-weight="normal" text-decoration="none" x="125" y="104.5">-telefone</text></g></g><g transform="translate(-94,-22) scale(1,1)"><g><path fill="none" stroke="none"/><text fill="#000000" stroke="none" font-family="Arial" font-size="13px" font-style="normal" font-weight="normal" text-decoration="none" x="125" y="119.5">-endereco</text></g></g><g transform="translate(-94,-22) scale(1,1)"><g><path fill="none" stroke="none"/><text fill="#000000" stroke="none" font-family="Arial" font-size="13px" font-style="normal" font-weight="normal" text-decoration="none" x="125" y="142.5">+encontrarFranquiaProxima()</text></g></g><g transform="translate(-94,-22) scale(1,1)"><path fill="none" stroke="#000000" d="M 224 148 L 247 239" stroke-miterlimit="10"/></g><g transform="translate(-94,-22) scale(1,1)"><g><path fill="none" stroke="none"/><text fill="#000000" stroke="none" font-family="Arial" font-size="13px" font-style="normal" font-weight="normal" text-decoration="none" x="204.5" y="164.5">1</text></g></g><g transform="translate(-94,-22) scale(1,1)"><g><path fill="none" stroke="none"/><text fill="#000000" stroke="none" font-family="Arial" font-size="13px" font-style="normal" font-weight="normal" text-decoration="none" x="219.5" y="235.5">0..*</text></g></g><g transform="translate(-94,-22) scale(1,1)"><rect fill="#C0C0C0" stroke="none" x="535" y="343" width="187.1279296875" height="87" opacity="0.2"/></g><g transform="translate(-94,-22) scale(1,1)"><rect fill="#ffffff" stroke="none" x="528" y="336" width="187.1279296875" height="87"/></g><g transform="translate(-94,-22) scale(1,1)"><path fill="none" stroke="#000000" d="M 528 336 L 715.1279296875 336 L 715.1279296875 423 L 528 423 L 528 336 Z Z" stroke-miterlimit="10"/></g><g transform="translate(-94,-22) scale(1,1)"><path fill="none" stroke="#000000" d="M 528 361 L 715.1279296875 361" stroke-miterlimit="10"/></g><g transform="translate(-94,-22) scale(1,1)"><path fill="none" stroke="#000000" d="M 528 399 L 715.1279296875 399" stroke-miterlimit="10"/></g><g transform="translate(-94,-22) scale(1,1)"><g><path fill="none" stroke="none"/><text fill="#000000" stroke="none" font-family="Arial" font-size="13px" font-style="normal" font-weight="bold" text-decoration="none" x="608.2021484375" y="355.5">Filial</text></g></g><g transform="translate(-94,-22) scale(1,1)"><g><path fill="none" stroke="none"/><text fill="#000000" stroke="none" font-family="Arial" font-size="13px" font-style="normal" font-weight="normal" text-decoration="none" x="533" y="378.5">-endereco</text></g></g><g transform="translate(-94,-22) scale(1,1)"><g><path fill="none" stroke="none"/><text fill="#000000" stroke="none" font-family="Arial" font-size="13px" font-style="normal" font-weight="normal" text-decoration="none" x="533" y="393.5">-regiaoCoberturaEntrega</text></g></g><g transform="translate(-94,-22) scale(1,1)"><g><path fill="none" stroke="none"/><text fill="#000000" stroke="none" font-family="Arial" font-size="13px" font-style="normal" font-weight="normal" text-decoration="none" x="533" y="418.5">+associarEntregadorAPedido()</text></g></g><g transform="translate(-94,-22) scale(1,1)"><path fill="none" stroke="#000000" d="M 527 365 L 340 338" stroke-miterlimit="10"/></g><g transform="translate(-94,-22) scale(1,1)"><g><path fill="none" stroke="none"/><text fill="#000000" stroke="none" font-family="Arial" font-size="13px" font-style="normal" font-weight="normal" text-decoration="none" x="503.5" y="355.5">1</text></g></g><g transform="translate(-94,-22) scale(1,1)"><g><path fill="none" stroke="none"/><text fill="#000000" stroke="none" font-family="Arial" font-size="13px" font-style="normal" font-weight="normal" text-decoration="none" x="353.5" y="334.5">0..*</text></g></g><g transform="translate(-94,-22) scale(1,1)"><rect fill="#C0C0C0" stroke="none" x="367" y="743" width="79.0908203125" height="72" opacity="0.2"/></g><g transform="translate(-94,-22) scale(1,1)"><rect fill="#ffffff" stroke="none" x="360" y="736" width="79.0908203125" height="72"/></g><g transform="translate(-94,-22) scale(1,1)"><path fill="none" stroke="#000000" d="M 360 736 L 439.0908203125 736 L 439.0908203125 808 L 360 808 L 360 736 Z Z" stroke-miterlimit="10"/></g><g transform="translate(-94,-22) scale(1,1)"><path fill="none" stroke="#000000" d="M 360 761 L 439.0908203125 761" stroke-miterlimit="10"/></g><g transform="translate(-94,-22) scale(1,1)"><path fill="none" stroke="#000000" d="M 360 784 L 439.0908203125 784" stroke-miterlimit="10"/></g><g transform="translate(-94,-22) scale(1,1)"><g><path fill="none" stroke="none"/><text fill="#000000" stroke="none" font-family="Arial" font-size="13px" font-style="normal" font-weight="bold" text-decoration="none" x="366.305908203125" y="755.5">Sobremesa</text></g></g><g transform="translate(-94,-22) scale(1,1)"><g><path fill="none" stroke="none"/><text fill="#000000" stroke="none" font-family="Arial" font-size="13px" font-style="normal" font-weight="normal" text-decoration="none" x="365" y="778.5">-tamanho</text></g></g><g transform="translate(-94,-22) scale(1,1)"><path fill="none" stroke="#000000" d="M 399 735 L 399 674" stroke-miterlimit="10"/></g><g transform="translate(-94,-22) scale(1,1)"><path fill="#FFFFFF" stroke="none" d="M 407.419035512032 694.3253497152483 L 399 674 L 390.580964487968 694.3253497152483"/></g><g transform="translate(-94,-22) scale(1,1)"><path fill="none" stroke="#000000" d="M 407.419035512032 694.3253497152483 L 399 674 L 390.580964487968 694.3253497152483 L 407.419035512032 694.3253497152483" stroke-miterlimit="10"/></g><g transform="translate(-94,-22) scale(1,1)"><rect fill="#C0C0C0" stroke="none" x="351" y="623" width="110.537109375" height="57" opacity="0.2"/></g><g transform="translate(-94,-22) scale(1,1)"><rect fill="#ffffff" stroke="none" x="344" y="616" width="110.537109375" height="57"/></g><g transform="translate(-94,-22) scale(1,1)"><path fill="none" stroke="#000000" d="M 344 616 L 454.537109375 616 L 454.537109375 673 L 344 673 L 344 616 Z Z" stroke-miterlimit="10"/></g><g transform="translate(-94,-22) scale(1,1)"><path fill="none" stroke="#000000" d="M 344 641 L 454.537109375 641" stroke-miterlimit="10"/></g><g transform="translate(-94,-22) scale(1,1)"><path fill="none" stroke="#000000" d="M 344 664 L 454.537109375 664" stroke-miterlimit="10"/></g><g transform="translate(-94,-22) scale(1,1)"><g><path fill="none" stroke="none"/><text fill="#000000" stroke="none" font-family="Arial" font-size="13px" font-style="normal" font-weight="bold" text-decoration="none" x="386.627197265625" y="635.5">Item</text></g></g><g transform="translate(-94,-22) scale(1,1)"><g><path fill="none" stroke="none"/><text fill="#000000" stroke="none" font-family="Arial" font-size="13px" font-style="normal" font-weight="normal" text-decoration="none" x="349" y="658.5">-nome</text></g></g><g transform="translate(-94,-22) scale(1,1)"><path fill="none" stroke="#000000" d="M 351 513 L 232 525" stroke-miterlimit="10"/></g><g transform="translate(-94,-22) scale(1,1)"><g><path fill="none" stroke="none"/><text fill="#000000" stroke="none" font-family="Arial" font-size="13px" font-style="normal" font-weight="normal" text-decoration="none" x="324.5" y="508.5">1</text></g></g><g transform="translate(-94,-22) scale(1,1)"><g><path fill="none" stroke="none"/><text fill="#000000" stroke="none" font-family="Arial" font-size="13px" font-style="normal" font-weight="normal" text-decoration="none" x="242.5" y="516.5">0..*</text></g></g><g transform="translate(-94,-22) scale(1,1)"><rect fill="#C0C0C0" stroke="none" x="471" y="135" width="207.3388671875" height="104" opacity="0.2"/></g><g transform="translate(-94,-22) scale(1,1)"><rect fill="#ffffff" stroke="none" x="464" y="128" width="207.3388671875" height="104"/></g><g transform="translate(-94,-22) scale(1,1)"><path fill="none" stroke="#000000" d="M 464 128 L 671.3388671875 128 L 671.3388671875 232 L 464 232 L 464 128 Z Z" stroke-miterlimit="10"/></g><g transform="translate(-94,-22) scale(1,1)"><path fill="none" stroke="#000000" d="M 464 153 L 671.3388671875 153" stroke-miterlimit="10"/></g><g transform="translate(-94,-22) scale(1,1)"><path fill="none" stroke="#000000" d="M 464 191 L 671.3388671875 191" stroke-miterlimit="10"/></g><g transform="translate(-94,-22) scale(1,1)"><g><path fill="none" stroke="none"/><text fill="#000000" stroke="none" font-family="Arial" font-size="13px" font-style="normal" font-weight="bold" text-decoration="none" x="535.509033203125" y="147.5">Entregador</text></g></g><g transform="translate(-94,-22) scale(1,1)"><g><path fill="none" stroke="none"/><text fill="#000000" stroke="none" font-family="Arial" font-size="13px" font-style="normal" font-weight="normal" text-decoration="none" x="469" y="170.5">-nome</text></g></g><g transform="translate(-94,-22) scale(1,1)"><g><path fill="none" stroke="none"/><text fill="#000000" stroke="none" font-family="Arial" font-size="13px" font-style="normal" font-weight="normal" text-decoration="none" x="469" y="185.5">-cpf</text></g></g><g transform="translate(-94,-22) scale(1,1)"><g><path fill="none" stroke="none"/><text fill="#000000" stroke="none" font-family="Arial" font-size="13px" font-style="normal" font-weight="normal" text-decoration="none" x="469" y="208.5">+informarLocalizacaoTempoReal()</text></g></g><g transform="translate(-94,-22) scale(1,1)"><g><path fill="none" stroke="none"/><text fill="#000000" stroke="none" font-family="Arial" font-size="13px" font-style="normal" font-weight="normal" text-decoration="none" x="469" y="223.5">+finalizarEntrega()</text></g></g><g transform="translate(-94,-22) scale(1,1)"><path fill="none" stroke="#000000" d="M 340 292 L 463 231" stroke-miterlimit="10"/></g><g transform="translate(-94,-22) scale(1,1)"><g><path fill="none" stroke="none"/><text fill="#000000" stroke="none" font-family="Arial" font-size="13px" font-style="normal" font-weight="normal" text-decoration="none" x="354.5" y="299.5">0..*</text></g></g><g transform="translate(-94,-22) scale(1,1)"><g><path fill="none" stroke="none"/><text fill="#000000" stroke="none" font-family="Arial" font-size="13px" font-style="normal" font-weight="normal" text-decoration="none" x="438.5" y="257.5">0..1</text></g></g><g transform="translate(-94,-22) scale(1,1)"><path fill="none" stroke="#000000" d="M 609 335 L 581 233" stroke-miterlimit="10"/></g><g transform="translate(-94,-22) scale(1,1)"><g><path fill="none" stroke="none"/><text fill="#000000" stroke="none" font-family="Arial" font-size="13px" font-style="normal" font-weight="normal" text-decoration="none" x="611.726806640625" y="316.5">1</text></g></g><g transform="translate(-94,-22) scale(1,1)"><g><path fill="none" stroke="none"/><text fill="#000000" stroke="none" font-family="Arial" font-size="13px" font-style="normal" font-weight="normal" text-decoration="none" x="588.5" y="256.5">0..*</text></g></g><g transform="translate(-94,-22) scale(1,1)"><rect fill="#C0C0C0" stroke="none" x="583" y="495" width="160.38525390625" height="115" opacity="0.2"/></g><g transform="translate(-94,-22) scale(1,1)"><rect fill="#ffffff" stroke="none" x="576" y="488" width="160.38525390625" height="115"/></g><g transform="translate(-94,-22) scale(1,1)"><path fill="none" stroke="#000000" d="M 576 488 L 736.38525390625 488 L 736.38525390625 603 L 576 603 L 576 488 Z Z" stroke-miterlimit="10"/></g><g transform="translate(-94,-22) scale(1,1)"><path fill="none" stroke="#000000" d="M 576 513 L 736.38525390625 513" stroke-miterlimit="10"/></g><g transform="translate(-94,-22) scale(1,1)"><path fill="none" stroke="#000000" d="M 576 551 L 736.38525390625 551" stroke-miterlimit="10"/></g><g transform="translate(-94,-22) scale(1,1)"><g><path fill="none" stroke="none"/><text fill="#000000" stroke="none" font-family="Arial" font-size="13px" font-style="normal" font-weight="bold" text-decoration="none" x="629.81494140625" y="507.5">Cardapio</text></g></g><g transform="translate(-94,-22) scale(1,1)"><g><path fill="none" stroke="none"/><text fill="#000000" stroke="none" font-family="Arial" font-size="13px" font-style="normal" font-weight="normal" text-decoration="none" x="581" y="530.5">-nome</text></g></g><g transform="translate(-94,-22) scale(1,1)"><g><path fill="none" stroke="none"/><text fill="#000000" stroke="none" font-family="Arial" font-size="13px" font-style="normal" font-weight="normal" text-decoration="none" x="581" y="545.5">-visivelNoSistema</text></g></g><g transform="translate(-94,-22) scale(1,1)"><g><path fill="none" stroke="none"/><text fill="#000000" stroke="none" font-family="Arial" font-size="13px" font-style="normal" font-weight="normal" text-decoration="none" x="581" y="568.5">+associarItemCardapio()</text></g></g><g transform="translate(-94,-22) scale(1,1)"><g><path fill="none" stroke="none"/><text fill="#000000" stroke="none" font-family="Arial" font-size="13px" font-style="normal" font-weight="normal" text-decoration="none" x="581" y="583.5">+removerItemCardapio()</text></g></g><g transform="translate(-94,-22) scale(1,1)"><g><path fill="none" stroke="none"/><text fill="#000000" stroke="none" font-family="Arial" font-size="13px" font-style="normal" font-weight="normal" text-decoration="none" x="581" y="598.5">+obterCardapioAtual()</text></g></g><g transform="translate(-94,-22) scale(1,1)"><rect fill="#C0C0C0" stroke="none" x="359" y="487" width="92.07177734375" height="57" opacity="0.2"/></g><g transform="translate(-94,-22) scale(1,1)"><rect fill="#ffffff" stroke="none" x="352" y="480" width="92.07177734375" height="57"/></g><g transform="translate(-94,-22) scale(1,1)"><path fill="none" stroke="#000000" d="M 352 480 L 444.07177734375 480 L 444.07177734375 537 L 352 537 L 352 480 Z Z" stroke-miterlimit="10"/></g><g transform="translate(-94,-22) scale(1,1)"><path fill="none" stroke="#000000" d="M 352 505 L 444.07177734375 505" stroke-miterlimit="10"/></g><g transform="translate(-94,-22) scale(1,1)"><path fill="none" stroke="#000000" d="M 352 528 L 444.07177734375 528" stroke-miterlimit="10"/></g><g transform="translate(-94,-22) scale(1,1)"><g><path fill="none" stroke="none"/><text fill="#000000" stroke="none" font-family="Arial" font-size="13px" font-style="normal" font-weight="bold" text-decoration="none" x="359.016845703125" y="499.5">ItemCardapio</text></g></g><g transform="translate(-94,-22) scale(1,1)"><g><path fill="none" stroke="none"/><text fill="#000000" stroke="none" font-family="Arial" font-size="13px" font-style="normal" font-weight="normal" text-decoration="none" x="357" y="522.5">-valorUnitario</text></g></g><g transform="translate(-94,-22) scale(1,1)"><path fill="none" stroke="#000000" d="M 575 533 L 445 515" stroke-miterlimit="10"/></g><g transform="translate(-94,-22) scale(1,1)"><g><path fill="none" stroke="none"/><text fill="#000000" stroke="none" font-family="Arial" font-size="13px" font-style="normal" font-weight="normal" text-decoration="none" x="545.5" y="523.5">0..*</text></g></g><g transform="translate(-94,-22) scale(1,1)"><g><path fill="none" stroke="none"/><text fill="#000000" stroke="none" font-family="Arial" font-size="13px" font-style="normal" font-weight="normal" text-decoration="none" x="458.5" y="511.5">0..*</text></g></g><g transform="translate(-94,-22) scale(1,1)"><path fill="none" stroke="#000000" d="M 399 615 L 398 538" stroke-miterlimit="10"/></g><g transform="translate(-94,-22) scale(1,1)"><g><path fill="none" stroke="none"/><text fill="#000000" stroke="none" font-family="Arial" font-size="13px" font-style="normal" font-weight="normal" text-decoration="none" x="407.5" y="612.5">1</text></g></g><g transform="translate(-94,-22) scale(1,1)"><g><path fill="none" stroke="none"/><text fill="#000000" stroke="none" font-family="Arial" font-size="13px" font-style="normal" font-weight="normal" text-decoration="none" x="407.5" y="554.5">0..*</text></g></g></g></svg>