<svg version="1.1" xmlns="http://www.w3.org/2000/svg" xmlns:xlink="http://www.w3.org/1999/xlink" width="931.89453125" height="646"><defs/><g><text fill="#eeeeee" stroke="none" font-family="Arial" font-size="24px" font-style="normal" font-weight="normal" text-decoration="none" x="0" y="0">UNREGISTERED</text><text fill="#eeeeee" stroke="none" font-family="Arial" font-size="24px" font-style="normal" font-weight="normal" text-decoration="none" x="0" y="30">UNREGISTERED</text><text fill="#eeeeee" stroke="none" font-family="Arial" font-size="24px" font-style="normal" font-weight="normal" text-decoration="none" x="0" y="60">UNREGISTERED</text><text fill="#eeeeee" stroke="none" font-family="Arial" font-size="24px" font-style="normal" font-weight="normal" text-decoration="none" x="0" y="90">UNREGISTERED</text><text fill="#eeeeee" stroke="none" font-family="Arial" font-size="24px" font-style="normal" font-weight="normal" text-decoration="none" x="0" y="120">UNREGISTERED</text><text fill="#eeeeee" stroke="none" font-family="Arial" font-size="24px" font-style="normal" font-weight="normal" text-decoration="none" x="0" y="150">UNREGISTERED</text><text fill="#eeeeee" stroke="none" font-family="Arial" font-size="24px" font-style="normal" font-weight="normal" text-decoration="none" x="0" y="180">UNREGISTERED</text><text fill="#eeeeee" stroke="none" font-family="Arial" font-size="24px" font-style="normal" font-weight="normal" text-decoration="none" x="0" y="210">UNREGISTERED</text><text fill="#eeeeee" stroke="none" font-family="Arial" font-size="24px" font-style="normal" font-weight="normal" text-decoration="none" x="0" y="240">UNREGISTERED</text><text fill="#eeeeee" stroke="none" font-family="Arial" font-size="24px" font-style="normal" font-weight="normal" text-decoration="none" x="0" y="270">UNREGISTERED</text><text fill="#eeeeee" stroke="none" font-family="Arial" font-size="24px" font-style="normal" font-weight="normal" text-decoration="none" x="0" y="300">UNREGISTERED</text><text fill="#eeeeee" stroke="none" font-family="Arial" font-size="24px" font-style="normal" font-weight="normal" text-decoration="none" x="0" y="330">UNREGISTERED</text><text fill="#eeeeee" stroke="none" font-family="Arial" font-size="24px" font-style="normal" font-weight="normal" text-decoration="none" x="0" y="360">UNREGISTERED</text><text fill="#eeeeee" stroke="none" font-family="Arial" font-size="24px" font-style="normal" font-weight="normal" text-decoration="none" x="0" y="390">UNREGISTERED</text><text fill="#eeeeee" stroke="none" font-family="Arial" font-size="24px" font-style="normal" font-weight="normal" text-decoration="none" x="0" y="420">UNREGISTERED</text><text fill="#eeeeee" stroke="none" font-family="Arial" font-size="24px" font-style="normal" font-weight="normal" text-decoration="none" x="0" y="450">UNREGISTERED</text><text fill="#eeeeee" stroke="none" font-family="Arial" font-size="24px" font-style="normal" font-weight="normal" text-decoration="none" x="0" y="480">UNREGISTERED</text><text fill="#eeeeee" stroke="none" font-family="Arial" font-size="24px" font-style="normal" font-weight="normal" text-decoration="none" x="0" y="510">UNREGISTERED</text><text fill="#eeeeee" stroke="none" font-family="Arial" font-size="24px" font-style="normal" font-weight="normal" text-decoration="none" x="0" y="540">UNREGISTERED</text><text fill="#eeeeee" stroke="none" font-family="Arial" font-size="24px" font-style="normal" font-weight="normal" text-decoration="none" x="0" y="570">UNREGISTERED</text><text fill="#eeeeee" stroke="none" font-family="Arial" font-size="24px" font-style="normal" font-weight="normal" text-decoration="none" x="0" y="600">UNREGISTERED</text><text fill="#eeeeee" stroke="none" font-family="Arial" font-size="24px" font-style="normal" font-weight="normal" text-decoration="none" x="0" y="630">UNREGISTERED</text><text fill="#eeeeee" stroke="none" font-family="Arial" font-size="24px" font-style="normal" font-weight="normal" text-decoration="none" x="200" y="0">UNREGISTERED</text><text fill="#eeeeee" stroke="none" font-family="Arial" font-size="24px" font-style="normal" font-weight="normal" text-decoration="none" x="200" y="30">UNREGISTERED</text><text fill="#eeeeee" stroke="none" font-family="Arial" font-size="24px" font-style="normal" font-weight="normal" text-decoration="none" x="200" y="60">UNREGISTERED</text><text fill="#eeeeee" stroke="none" font-family="Arial" font-size="24px" font-style="normal" font-weight="normal" text-decoration="none" x="200" y="90">UNREGISTERED</text><text fill="#eeeeee" stroke="none" font-family="Arial" font-size="24px" font-style="normal" font-weight="normal" text-decoration="none" x="200" y="120">UNREGISTERED</text><text fill="#eeeeee" stroke="none" font-family="Arial" font-size="24px" font-style="normal" font-weight="normal" text-decoration="none" x="200" y="150">UNREGISTERED</text><text fill="#eeeeee" stroke="none" font-family="Arial" font-size="24px" font-style="normal" font-weight="normal" text-decoration="none" x="200" y="180">UNREGISTERED</text><text fill="#eeeeee" stroke="none" font-family="Arial" font-size="24px" font-style="normal" font-weight="normal" text-decoration="none" x="200" y="210">UNREGISTERED</text><text fill="#eeeeee" stroke="none" font-family="Arial" font-size="24px" font-style="normal" font-weight="normal" text-decoration="none" x="200" y="240">UNREGISTERED</text><text fill="#eeeeee" stroke="none" font-family="Arial" font-size="24px" font-style="normal" font-weight="normal" text-decoration="none" x="200" y="270">UNREGISTERED</text><text fill="#eeeeee" stroke="none" font-family="Arial" font-size="24px" font-style="normal" font-weight="normal" text-decoration="none" x="200" y="300">UNREGISTERED</text><text fill="#eeeeee" stroke="none" font-family="Arial" font-size="24px" font-style="normal" font-weight="normal" text-decoration="none" x="200" y="330">UNREGISTERED</text><text fill="#eeeeee" stroke="none" font-family="Arial" font-size="24px" font-style="normal" font-weight="normal" text-decoration="none" x="200" y="360">UNREGISTERED</text><text fill="#eeeeee" stroke="none" font-family="Arial" font-size="24px" font-style="normal" font-weight="normal" text-decoration="none" x="200" y="390">UNREGISTERED</text><text fill="#eeeeee" stroke="none" font-family="Arial" font-size="24px" font-style="normal" font-weight="normal" text-decoration="none" x="200" y="420">UNREGISTERED</text><text fill="#eeeeee" stroke="none" font-family="Arial" font-size="24px" font-style="normal" font-weight="normal" text-decoration="none" x="200" y="450">UNREGISTERED</text><text fill="#eeeeee" stroke="none" font-family="Arial" font-size="24px" font-style="normal" font-weight="normal" text-decoration="none" x="200" y="480">UNREGISTERED</text><text fill="#eeeeee" stroke="none" font-family="Arial" font-size="24px" font-style="normal" font-weight="normal" text-decoration="none" x="200" y="510">UNREGISTERED</text><text fill="#eeeeee" stroke="none" font-family="Arial" font-size="24px" font-style="normal" font-weight="normal" text-decoration="none" x="200" y="540">UNREGISTERED</text><text fill="#eeeeee" stroke="none" font-family="Arial" font-size="24px" font-style="normal" font-weight="normal" text-decoration="none" x="200" y="570">UNREGISTERED</text><text fill="#eeeeee" stroke="none" font-family="Arial" font-size="24px" font-style="normal" font-weight="normal" text-decoration="none" x="200" y="600">UNREGISTERED</text><text fill="#eeeeee" stroke="none" font-family="Arial" font-size="24px" font-style="normal" font-weight="normal" text-decoration="none" x="200" y="630">UNREGISTERED</text><text fill="#eeeeee" stroke="none" font-family="Arial" font-size="24px" font-style="normal" font-weight="normal" text-decoration="none" x="400" y="0">UNREGISTERED</text><text fill="#eeeeee" stroke="none" font-family="Arial" font-size="24px" font-style="normal" font-weight="normal" text-decoration="none" x="400" y="30">UNREGISTERED</text><text fill="#eeeeee" stroke="none" font-family="Arial" font-size="24px" font-style="normal" font-weight="normal" text-decoration="none" x="400" y="60">UNREGISTERED</text><text fill="#eeeeee" stroke="none" font-family="Arial" font-size="24px" font-style="normal" font-weight="normal" text-decoration="none" x="400" y="90">UNREGISTERED</text><text fill="#eeeeee" stroke="none" font-family="Arial" font-size="24px" font-style="normal" font-weight="normal" text-decoration="none" x="400" y="120">UNREGISTERED</text><text fill="#eeeeee" stroke="none" font-family="Arial" font-size="24px" font-style="normal" font-weight="normal" text-decoration="none" x="400" y="150">UNREGISTERED</text><text fill="#eeeeee" stroke="none" font-family="Arial" font-size="24px" font-style="normal" font-weight="normal" text-decoration="none" x="400" y="180">UNREGISTERED</text><text fill="#eeeeee" stroke="none" font-family="Arial" font-size="24px" font-style="normal" font-weight="normal" text-decoration="none" x="400" y="210">UNREGISTERED</text><text fill="#eeeeee" stroke="none" font-family="Arial" font-size="24px" font-style="normal" font-weight="normal" text-decoration="none" x="400" y="240">UNREGISTERED</text><text fill="#eeeeee" stroke="none" font-family="Arial" font-size="24px" font-style="normal" font-weight="normal" text-decoration="none" x="400" y="270">UNREGISTERED</text><text fill="#eeeeee" stroke="none" font-family="Arial" font-size="24px" font-style="normal" font-weight="normal" text-decoration="none" x="400" y="300">UNREGISTERED</text><text fill="#eeeeee" stroke="none" font-family="Arial" font-size="24px" font-style="normal" font-weight="normal" text-decoration="none" x="400" y="330">UNREGISTERED</text><text fill="#eeeeee" stroke="none" font-family="Arial" font-size="24px" font-style="normal" font-weight="normal" text-decoration="none" x="400" y="360">UNREGISTERED</text><text fill="#eeeeee" stroke="none" font-family="Arial" font-size="24px" font-style="normal" font-weight="normal" text-decoration="none" x="400" y="390">UNREGISTERED</text><text fill="#eeeeee" stroke="none" font-family="Arial" font-size="24px" font-style="normal" font-weight="normal" text-decoration="none" x="400" y="420">UNREGISTERED</text><text fill="#eeeeee" stroke="none" font-family="Arial" font-size="24px" font-style="normal" font-weight="normal" text-decoration="none" x="400" y="450">UNREGISTERED</text><text fill="#eeeeee" stroke="none" font-family="Arial" font-size="24px" font-style="normal" font-weight="normal" text-decoration="none" x="400" y="480">UNREGISTERED</text><text fill="#eeeeee" stroke="none" font-family="Arial" font-size="24px" font-style="normal" font-weight="normal" text-decoration="none" x="400" y="510">UNREGISTERED</text><text fill="#eeeeee" stroke="none" font-family="Arial" font-size="24px" font-style="normal" font-weight="normal" text-decoration="none" x="400" y="540">UNREGISTERED</text><text fill="#eeeeee" stroke="none" font-family="Arial" font-size="24px" font-style="normal" font-weight="normal" text-decoration="none" x="400" y="570">UNREGISTERED</text><text fill="#eeeeee" stroke="none" font-family="Arial" font-size="24px" font-style="normal" font-weight="normal" text-decoration="none" x="400" y="600">UNREGISTERED</text><text fill="#eeeeee" stroke="none" font-family="Arial" font-size="24px" font-style="normal" font-weight="normal" text-decoration="none" x="400" y="630">UNREGISTERED</text><text fill="#eeeeee" stroke="none" font-family="Arial" font-size="24px" font-style="normal" font-weight="normal" text-decoration="none" x="600" y="0">UNREGISTERED</text><text fill="#eeeeee" stroke="none" font-family="Arial" font-size="24px" font-style="normal" font-weight="normal" text-decoration="none" x="600" y="30">UNREGISTERED</text><text fill="#eeeeee" stroke="none" font-family="Arial" font-size="24px" font-style="normal" font-weight="normal" text-decoration="none" x="600" y="60">UNREGISTERED</text><text fill="#eeeeee" stroke="none" font-family="Arial" font-size="24px" font-style="normal" font-weight="normal" text-decoration="none" x="600" y="90">UNREGISTERED</text><text fill="#eeeeee" stroke="none" font-family="Arial" font-size="24px" font-style="normal" font-weight="normal" text-decoration="none" x="600" y="120">UNREGISTERED</text><text fill="#eeeeee" stroke="none" font-family="Arial" font-size="24px" font-style="normal" font-weight="normal" text-decoration="none" x="600" y="150">UNREGISTERED</text><text fill="#eeeeee" stroke="none" font-family="Arial" font-size="24px" font-style="normal" font-weight="normal" text-decoration="none" x="600" y="180">UNREGISTERED</text><text fill="#eeeeee" stroke="none" font-family="Arial" font-size="24px" font-style="normal" font-weight="normal" text-decoration="none" x="600" y="210">UNREGISTERED</text><text fill="#eeeeee" stroke="none" font-family="Arial" font-size="24px" font-style="normal" font-weight="normal" text-decoration="none" x="600" y="240">UNREGISTERED</text><text fill="#eeeeee" stroke="none" font-family="Arial" font-size="24px" font-style="normal" font-weight="normal" text-decoration="none" x="600" y="270">UNREGISTERED</text><text fill="#eeeeee" stroke="none" font-family="Arial" font-size="24px" font-style="normal" font-weight="normal" text-decoration="none" x="600" y="300">UNREGISTERED</text><text fill="#eeeeee" stroke="none" font-family="Arial" font-size="24px" font-style="normal" font-weight="normal" text-decoration="none" x="600" y="330">UNREGISTERED</text><text fill="#eeeeee" stroke="none" font-family="Arial" font-size="24px" font-style="normal" font-weight="normal" text-decoration="none" x="600" y="360">UNREGISTERED</text><text fill="#eeeeee" stroke="none" font-family="Arial" font-size="24px" font-style="normal" font-weight="normal" text-decoration="none" x="600" y="390">UNREGISTERED</text><text fill="#eeeeee" stroke="none" font-family="Arial" font-size="24px" font-style="normal" font-weight="normal" text-decoration="none" x="600" y="420">UNREGISTERED</text><text fill="#eeeeee" stroke="none" font-family="Arial" font-size="24px" font-style="normal" font-weight="normal" text-decoration="none" x="600" y="450">UNREGISTERED</text><text fill="#eeeeee" stroke="none" font-family="Arial" font-size="24px" font-style="normal" font-weight="normal" text-decoration="none" x="600" y="480">UNREGISTERED</text><text fill="#eeeeee" stroke="none" font-family="Arial" font-size="24px" font-style="normal" font-weight="normal" text-decoration="none" x="600" y="510">UNREGISTERED</text><text fill="#eeeeee" stroke="none" font-family="Arial" font-size="24px" font-style="normal" font-weight="normal" text-decoration="none" x="600" y="540">UNREGISTERED</text><text fill="#eeeeee" stroke="none" font-family="Arial" font-size="24px" font-style="normal" font-weight="normal" text-decoration="none" x="600" y="570">UNREGISTERED</text><text fill="#eeeeee" stroke="none" font-family="Arial" font-size="24px" font-style="normal" font-weight="normal" text-decoration="none" x="600" y="600">UNREGISTERED</text><text fill="#eeeeee" stroke="none" font-family="Arial" font-size="24px" font-style="normal" font-weight="normal" text-decoration="none" x="600" y="630">UNREGISTERED</text><text fill="#eeeeee" stroke="none" font-family="Arial" font-size="24px" font-style="normal" font-weight="normal" text-decoration="none" x="800" y="0">UNREGISTERED</text><text fill="#eeeeee" stroke="none" font-family="Arial" font-size="24px" font-style="normal" font-weight="normal" text-decoration="none" x="800" y="30">UNREGISTERED</text><text fill="#eeeeee" stroke="none" font-family="Arial" font-size="24px" font-style="normal" font-weight="normal" text-decoration="none" x="800" y="60">UNREGISTERED</text><text fill="#eeeeee" stroke="none" font-family="Arial" font-size="24px" font-style="normal" font-weight="normal" text-decoration="none" x="800" y="90">UNREGISTERED</text><text fill="#eeeeee" stroke="none" font-family="Arial" font-size="24px" font-style="normal" font-weight="normal" text-decoration="none" x="800" y="120">UNREGISTERED</text><text fill="#eeeeee" stroke="none" font-family="Arial" font-size="24px" font-style="normal" font-weight="normal" text-decoration="none" x="800" y="150">UNREGISTERED</text><text fill="#eeeeee" stroke="none" font-family="Arial" font-size="24px" font-style="normal" font-weight="normal" text-decoration="none" x="800" y="180">UNREGISTERED</text><text fill="#eeeeee" stroke="none" font-family="Arial" font-size="24px" font-style="normal" font-weight="normal" text-decoration="none" x="800" y="210">UNREGISTERED</text><text fill="#eeeeee" stroke="none" font-family="Arial" font-size="24px" font-style="normal" font-weight="normal" text-decoration="none" x="800" y="240">UNREGISTERED</text><text fill="#eeeeee" stroke="none" font-family="Arial" font-size="24px" font-style="normal" font-weight="normal" text-decoration="none" x="800" y="270">UNREGISTERED</text><text fill="#eeeeee" stroke="none" font-family="Arial" font-size="24px" font-style="normal" font-weight="normal" text-decoration="none" x="800" y="300">UNREGISTERED</text><text fill="#eeeeee" stroke="none" font-family="Arial" font-size="24px" font-style="normal" font-weight="normal" text-decoration="none" x="800" y="330">UNREGISTERED</text><text fill="#eeeeee" stroke="none" font-family="Arial" font-size="24px" font-style="normal" font-weight="normal" text-decoration="none" x="800" y="360">UNREGISTERED</text><text fill="#eeeeee" stroke="none" font-family="Arial" font-size="24px" font-style="normal" font-weight="normal" text-decoration="none" x="800" y="390">UNREGISTERED</text><text fill="#eeeeee" stroke="none" font-family="Arial" font-size="24px" font-style="normal" font-weight="normal" text-decoration="none" x="800" y="420">UNREGISTERED</text><text fill="#eeeeee" stroke="none" font-family="Arial" font-size="24px" font-style="normal" font-weight="normal" text-decoration="none" x="800" y="450">UNREGISTERED</text><text fill="#eeeeee" stroke="none" font-family="Arial" font-size="24px" font-style="normal" font-weight="normal" text-decoration="none" x="800" y="480">UNREGISTERED</text><text fill="#eeeeee" stroke="none" font-family="Arial" font-size="24px" font-style="normal" font-weight="normal" text-decoration="none" x="800" y="510">UNREGISTERED</text><text fill="#eeeeee" stroke="none" font-family="Arial" font-size="24px" font-style="normal" font-weight="normal" text-decoration="none" x="800" y="540">UNREGISTERED</text><text fill="#eeeeee" stroke="none" font-family="Arial" font-size="24px" font-style="normal" font-weight="normal" text-decoration="none" x="800" y="570">UNREGISTERED</text><text fill="#eeeeee" stroke="none" font-family="Arial" font-size="24px" font-style="normal" font-weight="normal" text-decoration="none" x="800" y="600">UNREGISTERED</text><text fill="#eeeeee" stroke="none" font-family="Arial" font-size="24px" font-style="normal" font-weight="normal" text-decoration="none" x="800" y="630">UNREGISTERED</text><g transform="translate(-158,-46) scale(1,1)"><path fill="#ffffff" stroke="none" d="M 244.38615696022728 161.68 C 244.38615696022728 156.886167936 248.2719992851727 153 253.0654296875 153 C 257.85886008982726 153 261.74470241477275 156.886167936 261.74470241477275 161.68 C 261.74470241477275 166.47383206400002 257.85886008982726 170.36 253.0654296875 170.36 C 248.2719992851727 170.36 244.38615696022728 166.47383206400002 244.38615696022728 161.68 Z"/></g><g transform="translate(-158,-46) scale(1,1)"><path fill="none" stroke="#000000" d="M 244.38615696022728 161.68 C 244.38615696022728 156.886167936 248.2719992851727 153 253.0654296875 153 C 257.85886008982726 153 261.74470241477275 156.886167936 261.74470241477275 161.68 C 261.74470241477275 166.47383206400002 257.85886008982726 170.36 253.0654296875 170.36 C 248.2719992851727 170.36 244.38615696022728 166.47383206400002 244.38615696022728 161.68 Z" stroke-miterlimit="10"/></g><g transform="translate(-158,-46) scale(1,1)"><path fill="none" stroke="#000000" d="M 253.0654296875 170.36 L 253.0654296875 187.64" stroke-miterlimit="10"/></g><g transform="translate(-158,-46) scale(1,1)"><path fill="none" stroke="#000000" d="M 243.87561150568183 176.84 L 262.25524786931817 176.84" stroke-miterlimit="10"/></g><g transform="translate(-158,-46) scale(1,1)"><path fill="none" stroke="#000000" d="M 253.0654296875 187.64 L 240.30179332386365 205" stroke-miterlimit="10"/></g><g transform="translate(-158,-46) scale(1,1)"><path fill="none" stroke="#000000" d="M 253.0654296875 187.64 L 265.82906605113635 205" stroke-miterlimit="10"/></g><g transform="translate(-158,-46) scale(1,1)"><g><path fill="none" stroke="none"/><text fill="#000000" stroke="none" font-family="Arial" font-size="13px" font-style="normal" font-weight="bold" text-decoration="none" x="229.5791015625" y="225.5">Gerente</text></g></g><g transform="translate(-158,-46) scale(1,1)"><path fill="#ffffff" stroke="none" d="M 251.13298313210228 401.68 C 251.13298313210228 396.886167936 255.0188254570477 393 259.812255859375 393 C 264.60568626170226 393 268.49152858664775 396.886167936 268.49152858664775 401.68 C 268.49152858664775 406.473832064 264.60568626170226 410.36 259.812255859375 410.36 C 255.0188254570477 410.36 251.13298313210228 406.473832064 251.13298313210228 401.68 Z"/></g><g transform="translate(-158,-46) scale(1,1)"><path fill="none" stroke="#000000" d="M 251.13298313210228 401.68 C 251.13298313210228 396.886167936 255.0188254570477 393 259.812255859375 393 C 264.60568626170226 393 268.49152858664775 396.886167936 268.49152858664775 401.68 C 268.49152858664775 406.473832064 264.60568626170226 410.36 259.812255859375 410.36 C 255.0188254570477 410.36 251.13298313210228 406.473832064 251.13298313210228 401.68 Z" stroke-miterlimit="10"/></g><g transform="translate(-158,-46) scale(1,1)"><path fill="none" stroke="#000000" d="M 259.812255859375 410.36 L 259.812255859375 427.64" stroke-miterlimit="10"/></g><g transform="translate(-158,-46) scale(1,1)"><path fill="none" stroke="#000000" d="M 250.62243767755683 416.84 L 269.00207404119317 416.84" stroke-miterlimit="10"/></g><g transform="translate(-158,-46) scale(1,1)"><path fill="none" stroke="#000000" d="M 259.812255859375 427.64 L 247.04861949573865 445" stroke-miterlimit="10"/></g><g transform="translate(-158,-46) scale(1,1)"><path fill="none" stroke="#000000" d="M 259.812255859375 427.64 L 272.57589222301135 445" stroke-miterlimit="10"/></g><g transform="translate(-158,-46) scale(1,1)"><g><path fill="none" stroke="none"/><text fill="#000000" stroke="none" font-family="Arial" font-size="13px" font-style="normal" font-weight="bold" text-decoration="none" x="215.727783203125" y="465.5">Encomendador</text></g></g><g transform="translate(-158,-46) scale(1,1)"><path fill="#ffffff" stroke="none" d="M 185.49162571022728 545.6800000000001 C 185.49162571022728 540.8861679360001 189.37746803517274 537 194.1708984375 537 C 198.96432883982726 537 202.85017116477272 540.8861679360001 202.85017116477272 545.6800000000001 C 202.85017116477272 550.473832064 198.96432883982726 554.36 194.1708984375 554.36 C 189.37746803517274 554.36 185.49162571022728 550.473832064 185.49162571022728 545.6800000000001 Z"/></g><g transform="translate(-158,-46) scale(1,1)"><path fill="none" stroke="#000000" d="M 185.49162571022728 545.6800000000001 C 185.49162571022728 540.8861679360001 189.37746803517274 537 194.1708984375 537 C 198.96432883982726 537 202.85017116477272 540.8861679360001 202.85017116477272 545.6800000000001 C 202.85017116477272 550.473832064 198.96432883982726 554.36 194.1708984375 554.36 C 189.37746803517274 554.36 185.49162571022728 550.473832064 185.49162571022728 545.6800000000001 Z" stroke-miterlimit="10"/></g><g transform="translate(-158,-46) scale(1,1)"><path fill="none" stroke="#000000" d="M 194.1708984375 554.36 L 194.1708984375 571.64" stroke-miterlimit="10"/></g><g transform="translate(-158,-46) scale(1,1)"><path fill="none" stroke="#000000" d="M 184.98108025568183 560.84 L 203.36071661931817 560.84" stroke-miterlimit="10"/></g><g transform="translate(-158,-46) scale(1,1)"><path fill="none" stroke="#000000" d="M 194.1708984375 571.64 L 181.40726207386365 589" stroke-miterlimit="10"/></g><g transform="translate(-158,-46) scale(1,1)"><path fill="none" stroke="#000000" d="M 194.1708984375 571.64 L 206.93453480113635 589" stroke-miterlimit="10"/></g><g transform="translate(-158,-46) scale(1,1)"><g><path fill="none" stroke="none"/><text fill="#000000" stroke="none" font-family="Arial" font-size="13px" font-style="normal" font-weight="bold" text-decoration="none" x="173.937744140625" y="609.5">Cliente</text></g></g><g transform="translate(-158,-46) scale(1,1)"><path fill="#ffffff" stroke="none" d="M 299.60026828835225 545.6800000000001 C 299.60026828835225 540.8861679360001 303.48611061329774 537 308.279541015625 537 C 313.07297141795226 537 316.95881374289775 540.8861679360001 316.95881374289775 545.6800000000001 C 316.95881374289775 550.473832064 313.07297141795226 554.36 308.279541015625 554.36 C 303.48611061329774 554.36 299.60026828835225 550.473832064 299.60026828835225 545.6800000000001 Z"/></g><g transform="translate(-158,-46) scale(1,1)"><path fill="none" stroke="#000000" d="M 299.60026828835225 545.6800000000001 C 299.60026828835225 540.8861679360001 303.48611061329774 537 308.279541015625 537 C 313.07297141795226 537 316.95881374289775 540.8861679360001 316.95881374289775 545.6800000000001 C 316.95881374289775 550.473832064 313.07297141795226 554.36 308.279541015625 554.36 C 303.48611061329774 554.36 299.60026828835225 550.473832064 299.60026828835225 545.6800000000001 Z" stroke-miterlimit="10"/></g><g transform="translate(-158,-46) scale(1,1)"><path fill="none" stroke="#000000" d="M 308.279541015625 554.36 L 308.279541015625 571.64" stroke-miterlimit="10"/></g><g transform="translate(-158,-46) scale(1,1)"><path fill="none" stroke="#000000" d="M 299.08972283380683 560.84 L 317.46935919744317 560.84" stroke-miterlimit="10"/></g><g transform="translate(-158,-46) scale(1,1)"><path fill="none" stroke="#000000" d="M 308.279541015625 571.64 L 295.51590465198865 589" stroke-miterlimit="10"/></g><g transform="translate(-158,-46) scale(1,1)"><path fill="none" stroke="#000000" d="M 308.279541015625 571.64 L 321.04317737926135 589" stroke-miterlimit="10"/></g><g transform="translate(-158,-46) scale(1,1)"><g><path fill="none" stroke="none"/><text fill="#000000" stroke="none" font-family="Arial" font-size="13px" font-style="normal" font-weight="bold" text-decoration="none" x="278.642333984375" y="609.5">Atendente</text></g></g><g transform="translate(-158,-46) scale(1,1)"><path fill="none" stroke="#000000" d="M 212 535 L 240 472" stroke-miterlimit="10"/></g><g transform="translate(-158,-46) scale(1,1)"><path fill="#FFFFFF" stroke="none" d="M 239.43850552378805 493.99283346804555 L 240 472 L 224.0516817655103 487.1542451310332"/></g><g transform="translate(-158,-46) scale(1,1)"><path fill="none" stroke="#000000" d="M 239.43850552378805 493.99283346804555 L 240 472 L 224.0516817655103 487.1542451310332 L 239.43850552378805 493.99283346804555" stroke-miterlimit="10"/></g><g transform="translate(-158,-46) scale(1,1)"><path fill="none" stroke="#000000" d="M 294 535 L 273 472" stroke-miterlimit="10"/></g><g transform="translate(-158,-46) scale(1,1)"><path fill="#FFFFFF" stroke="none" d="M 287.41443830992284 488.61998700990557 L 273 472 L 271.44044155800503 493.9446525938781"/></g><g transform="translate(-158,-46) scale(1,1)"><path fill="none" stroke="#000000" d="M 287.41443830992284 488.61998700990557 L 273 472 L 271.44044155800503 493.9446525938781 L 287.41443830992284 488.61998700990557" stroke-miterlimit="10"/></g><g transform="translate(-158,-46) scale(1,1)"><path fill="#C0C0C0" stroke="none" d="M 463 80 C 463 70.6111584 514.2633904 63 577.5 63 C 640.7366096 63 692 70.6111584 692 80 C 692 89.3888416 640.7366096 97 577.5 97 C 514.2633904 97 463 89.3888416 463 80 Z" opacity="0.2"/></g><g transform="translate(-158,-46) scale(1,1)"><path fill="#ffffff" stroke="none" d="M 456 73 C 456 63.6111584 507.2633904 56 570.5 56 C 633.7366096 56 685 63.6111584 685 73 C 685 82.3888416 633.7366096 90 570.5 90 C 507.2633904 90 456 82.3888416 456 73 Z"/></g><g transform="translate(-158,-46) scale(1,1)"><path fill="none" stroke="#000000" d="M 456 73 C 456 63.6111584 507.2633904 56 570.5 56 C 633.7366096 56 685 63.6111584 685 73 C 685 82.3888416 633.7366096 90 570.5 90 C 507.2633904 90 456 82.3888416 456 73 Z" stroke-miterlimit="10"/></g><g transform="translate(-158,-46) scale(1,1)"><g><path fill="none" stroke="none"/><text fill="#000000" stroke="none" font-family="Arial" font-size="13px" font-style="normal" font-weight="bold" text-decoration="none" x="498.228759765625" y="80">Manutenção de Franquia</text></g></g><g transform="translate(-158,-46) scale(1,1)"><path fill="#C0C0C0" stroke="none" d="M 463 152 C 463 142.6111584 514.7111056 135 578.5 135 C 642.2888944 135 694 142.6111584 694 152 C 694 161.3888416 642.2888944 169 578.5 169 C 514.7111056 169 463 161.3888416 463 152 Z" opacity="0.2"/></g><g transform="translate(-158,-46) scale(1,1)"><path fill="#ffffff" stroke="none" d="M 456 145 C 456 135.6111584 507.7111056 128 571.5 128 C 635.2888944 128 687 135.6111584 687 145 C 687 154.3888416 635.2888944 162 571.5 162 C 507.7111056 162 456 154.3888416 456 145 Z"/></g><g transform="translate(-158,-46) scale(1,1)"><path fill="none" stroke="#000000" d="M 456 145 C 456 135.6111584 507.7111056 128 571.5 128 C 635.2888944 128 687 135.6111584 687 145 C 687 154.3888416 635.2888944 162 571.5 162 C 507.7111056 162 456 154.3888416 456 145 Z" stroke-miterlimit="10"/></g><g transform="translate(-158,-46) scale(1,1)"><g><path fill="none" stroke="none"/><text fill="#000000" stroke="none" font-family="Arial" font-size="13px" font-style="normal" font-weight="bold" text-decoration="none" x="498.505126953125" y="152">Manutenção de Cardápio</text></g></g><g transform="translate(-158,-46) scale(1,1)"><path fill="#C0C0C0" stroke="none" d="M 463 224 C 463 214.6111584 512.6963872 207 574 207 C 635.3036128 207 685 214.6111584 685 224 C 685 233.3888416 635.3036128 241 574 241 C 512.6963872 241 463 233.3888416 463 224 Z" opacity="0.2"/></g><g transform="translate(-158,-46) scale(1,1)"><path fill="#ffffff" stroke="none" d="M 456 217 C 456 207.6111584 505.6963872 200 567 200 C 628.3036128 200 678 207.6111584 678 217 C 678 226.3888416 628.3036128 234 567 234 C 505.6963872 234 456 226.3888416 456 217 Z"/></g><g transform="translate(-158,-46) scale(1,1)"><path fill="none" stroke="#000000" d="M 456 217 C 456 207.6111584 505.6963872 200 567 200 C 628.3036128 200 678 207.6111584 678 217 C 678 226.3888416 628.3036128 234 567 234 C 505.6963872 234 456 226.3888416 456 217 Z" stroke-miterlimit="10"/></g><g transform="translate(-158,-46) scale(1,1)"><g><path fill="none" stroke="none"/><text fill="#000000" stroke="none" font-family="Arial" font-size="13px" font-style="normal" font-weight="bold" text-decoration="none" x="497.616943359375" y="224">Manutenção de Produto</text></g></g><g transform="translate(-158,-46) scale(1,1)"><path fill="#C0C0C0" stroke="none" d="M 815 232 C 815 222.6111584 847.0116368 215 886.5 215 C 925.9883632 215 958 222.6111584 958 232 C 958 241.3888416 925.9883632 249 886.5 249 C 847.0116368 249 815 241.3888416 815 232 Z" opacity="0.2"/></g><g transform="translate(-158,-46) scale(1,1)"><path fill="#ffffff" stroke="none" d="M 808 225 C 808 215.6111584 840.0116368 208 879.5 208 C 918.9883632 208 951 215.6111584 951 225 C 951 234.3888416 918.9883632 242 879.5 242 C 840.0116368 242 808 234.3888416 808 225 Z"/></g><g transform="translate(-158,-46) scale(1,1)"><path fill="none" stroke="#000000" d="M 808 225 C 808 215.6111584 840.0116368 208 879.5 208 C 918.9883632 208 951 215.6111584 951 225 C 951 234.3888416 918.9883632 242 879.5 242 C 840.0116368 242 808 234.3888416 808 225 Z" stroke-miterlimit="10"/></g><g transform="translate(-158,-46) scale(1,1)"><g><path fill="none" stroke="none"/><text fill="#000000" stroke="none" font-family="Arial" font-size="13px" font-style="normal" font-weight="bold" text-decoration="none" x="836.86279296875" y="232">Busca Produto</text></g></g><g transform="translate(-158,-46) scale(1,1)"><path fill="#C0C0C0" stroke="none" d="M 823 304 C 823 294.6111584 860.6080768 287 907 287 C 953.3919232 287 991 294.6111584 991 304 C 991 313.3888416 953.3919232 321 907 321 C 860.6080768 321 823 313.3888416 823 304 Z" opacity="0.2"/></g><g transform="translate(-158,-46) scale(1,1)"><path fill="#ffffff" stroke="none" d="M 816 297 C 816 287.6111584 853.6080768 280 900 280 C 946.3919232 280 984 287.6111584 984 297 C 984 306.3888416 946.3919232 314 900 314 C 853.6080768 314 816 306.3888416 816 297 Z"/></g><g transform="translate(-158,-46) scale(1,1)"><path fill="none" stroke="#000000" d="M 816 297 C 816 287.6111584 853.6080768 280 900 280 C 946.3919232 280 984 287.6111584 984 297 C 984 306.3888416 946.3919232 314 900 314 C 853.6080768 314 816 306.3888416 816 297 Z" stroke-miterlimit="10"/></g><g transform="translate(-158,-46) scale(1,1)"><g><path fill="none" stroke="none"/><text fill="#000000" stroke="none" font-family="Arial" font-size="13px" font-style="normal" font-weight="bold" text-decoration="none" x="848.69189453125" y="304">Localiza Franquia</text></g></g><g transform="translate(-158,-46) scale(1,1)"><path fill="#C0C0C0" stroke="none" d="M 543 368 C 543 358.6111584 583.294368 351 633 351 C 682.705632 351 723 358.6111584 723 368 C 723 377.3888416 682.705632 385 633 385 C 583.294368 385 543 377.3888416 543 368 Z" opacity="0.2"/></g><g transform="translate(-158,-46) scale(1,1)"><path fill="#ffffff" stroke="none" d="M 536 361 C 536 351.6111584 576.294368 344 626 344 C 675.705632 344 716 351.6111584 716 361 C 716 370.3888416 675.705632 378 626 378 C 576.294368 378 536 370.3888416 536 361 Z"/></g><g transform="translate(-158,-46) scale(1,1)"><path fill="none" stroke="#000000" d="M 536 361 C 536 351.6111584 576.294368 344 626 344 C 675.705632 344 716 351.6111584 716 361 C 716 370.3888416 675.705632 378 626 378 C 576.294368 378 536 370.3888416 536 361 Z" stroke-miterlimit="10"/></g><g transform="translate(-158,-46) scale(1,1)"><g><path fill="none" stroke="none"/><text fill="#000000" stroke="none" font-family="Arial" font-size="13px" font-style="normal" font-weight="bold" text-decoration="none" x="570.708740234375" y="368">Inclusão de Pedido</text></g></g><g transform="translate(-158,-46) scale(1,1)"><path fill="#C0C0C0" stroke="none" d="M 487 480 C 487 470.6111584 534.6816688 463 593.5 463 C 652.3183312 463 700 470.6111584 700 480 C 700 489.3888416 652.3183312 497 593.5 497 C 534.6816688 497 487 489.3888416 487 480 Z" opacity="0.2"/></g><g transform="translate(-158,-46) scale(1,1)"><path fill="#ffffff" stroke="none" d="M 480 473 C 480 463.6111584 527.6816688 456 586.5 456 C 645.3183312 456 693 463.6111584 693 473 C 693 482.3888416 645.3183312 490 586.5 490 C 527.6816688 490 480 482.3888416 480 473 Z"/></g><g transform="translate(-158,-46) scale(1,1)"><path fill="none" stroke="#000000" d="M 480 473 C 480 463.6111584 527.6816688 456 586.5 456 C 645.3183312 456 693 463.6111584 693 473 C 693 482.3888416 645.3183312 490 586.5 490 C 527.6816688 490 480 482.3888416 480 473 Z" stroke-miterlimit="10"/></g><g transform="translate(-158,-46) scale(1,1)"><g><path fill="none" stroke="none"/><text fill="#000000" stroke="none" font-family="Arial" font-size="13px" font-style="normal" font-weight="bold" text-decoration="none" x="519.649658203125" y="480">Manutenção de Cliente</text></g></g><g transform="translate(-158,-46) scale(1,1)"><path fill="#C0C0C0" stroke="none" d="M 495 544 C 495 534.6111584 554.7699792 527 628.5 527 C 702.2300208 527 762 534.6111584 762 544 C 762 553.3888416 702.2300208 561 628.5 561 C 554.7699792 561 495 553.3888416 495 544 Z" opacity="0.2"/></g><g transform="translate(-158,-46) scale(1,1)"><path fill="#ffffff" stroke="none" d="M 488 537 C 488 527.6111584 547.7699792 520 621.5 520 C 695.2300208 520 755 527.6111584 755 537 C 755 546.3888416 695.2300208 554 621.5 554 C 547.7699792 554 488 546.3888416 488 537 Z"/></g><g transform="translate(-158,-46) scale(1,1)"><path fill="none" stroke="#000000" d="M 488 537 C 488 527.6111584 547.7699792 520 621.5 520 C 695.2300208 520 755 527.6111584 755 537 C 755 546.3888416 695.2300208 554 621.5 554 C 547.7699792 554 488 546.3888416 488 537 Z" stroke-miterlimit="10"/></g><g transform="translate(-158,-46) scale(1,1)"><g><path fill="none" stroke="none"/><text fill="#000000" stroke="none" font-family="Arial" font-size="13px" font-style="normal" font-weight="bold" text-decoration="none" x="537.663330078125" y="544">Acompanhamento do Pedido</text></g></g><g transform="translate(-158,-46) scale(1,1)"><path fill="#C0C0C0" stroke="none" d="M 511 608 C 511 598.6111584 544.57864 591 586 591 C 627.42136 591 661 598.6111584 661 608 C 661 617.3888416 627.42136 625 586 625 C 544.57864 625 511 617.3888416 511 608 Z" opacity="0.2"/></g><g transform="translate(-158,-46) scale(1,1)"><path fill="#ffffff" stroke="none" d="M 504 601 C 504 591.6111584 537.57864 584 579 584 C 620.42136 584 654 591.6111584 654 601 C 654 610.3888416 620.42136 618 579 618 C 537.57864 618 504 610.3888416 504 601 Z"/></g><g transform="translate(-158,-46) scale(1,1)"><path fill="none" stroke="#000000" d="M 504 601 C 504 591.6111584 537.57864 584 579 584 C 620.42136 584 654 591.6111584 654 601 C 654 610.3888416 620.42136 618 579 618 C 537.57864 618 504 610.3888416 504 601 Z" stroke-miterlimit="10"/></g><g transform="translate(-158,-46) scale(1,1)"><g><path fill="none" stroke="none"/><text fill="#000000" stroke="none" font-family="Arial" font-size="13px" font-style="normal" font-weight="bold" text-decoration="none" x="533.1064453125" y="608">Cancela Pedido</text></g></g><g transform="translate(-158,-46) scale(1,1)"><path fill="#C0C0C0" stroke="none" d="M 519 672 C 519 662.6111584 548.3253456 655 584.5 655 C 620.6746544 655 650 662.6111584 650 672 C 650 681.3888416 620.6746544 689 584.5 689 C 548.3253456 689 519 681.3888416 519 672 Z" opacity="0.2"/></g><g transform="translate(-158,-46) scale(1,1)"><path fill="#ffffff" stroke="none" d="M 512 665 C 512 655.6111584 541.3253456 648 577.5 648 C 613.6746544 648 643 655.6111584 643 665 C 643 674.3888416 613.6746544 682 577.5 682 C 541.3253456 682 512 674.3888416 512 665 Z"/></g><g transform="translate(-158,-46) scale(1,1)"><path fill="none" stroke="#000000" d="M 512 665 C 512 655.6111584 541.3253456 648 577.5 648 C 613.6746544 648 643 655.6111584 643 665 C 643 674.3888416 613.6746544 682 577.5 682 C 541.3253456 682 512 674.3888416 512 665 Z" stroke-miterlimit="10"/></g><g transform="translate(-158,-46) scale(1,1)"><g><path fill="none" stroke="none"/><text fill="#000000" stroke="none" font-family="Arial" font-size="13px" font-style="normal" font-weight="bold" text-decoration="none" x="538.474609375" y="672">Altera Pedido</text></g></g><g transform="translate(-158,-46) scale(1,1)"><path fill="#C0C0C0" stroke="none" d="M 783 640 C 783 630.6111584 812.9969184 623 850 623 C 887.0030816 623 917 630.6111584 917 640 C 917 649.3888416 887.0030816 657 850 657 C 812.9969184 657 783 649.3888416 783 640 Z" opacity="0.2"/></g><g transform="translate(-158,-46) scale(1,1)"><path fill="#ffffff" stroke="none" d="M 776 633 C 776 623.6111584 805.9969184 616 843 616 C 880.0030816 616 910 623.6111584 910 633 C 910 642.3888416 880.0030816 650 843 650 C 805.9969184 650 776 642.3888416 776 633 Z"/></g><g transform="translate(-158,-46) scale(1,1)"><path fill="none" stroke="#000000" d="M 776 633 C 776 623.6111584 805.9969184 616 843 616 C 880.0030816 616 910 623.6111584 910 633 C 910 642.3888416 880.0030816 650 843 650 C 805.9969184 650 776 642.3888416 776 633 Z" stroke-miterlimit="10"/></g><g transform="translate(-158,-46) scale(1,1)"><g><path fill="none" stroke="none"/><text fill="#000000" stroke="none" font-family="Arial" font-size="13px" font-style="normal" font-weight="bold" text-decoration="none" x="802.88916015625" y="640">Busca Pedido</text></g></g><g transform="translate(-158,-46) scale(1,1)"><path fill="#ffffff" stroke="none" d="M 1039.2679928977273 457.68 C 1039.2679928977273 452.886167936 1043.1538352226728 449 1047.947265625 449 C 1052.7406960273272 449 1056.6265383522727 452.886167936 1056.6265383522727 457.68 C 1056.6265383522727 462.473832064 1052.7406960273272 466.36 1047.947265625 466.36 C 1043.1538352226728 466.36 1039.2679928977273 462.473832064 1039.2679928977273 457.68 Z"/></g><g transform="translate(-158,-46) scale(1,1)"><path fill="none" stroke="#000000" d="M 1039.2679928977273 457.68 C 1039.2679928977273 452.886167936 1043.1538352226728 449 1047.947265625 449 C 1052.7406960273272 449 1056.6265383522727 452.886167936 1056.6265383522727 457.68 C 1056.6265383522727 462.473832064 1052.7406960273272 466.36 1047.947265625 466.36 C 1043.1538352226728 466.36 1039.2679928977273 462.473832064 1039.2679928977273 457.68 Z" stroke-miterlimit="10"/></g><g transform="translate(-158,-46) scale(1,1)"><path fill="none" stroke="#000000" d="M 1047.947265625 466.36 L 1047.947265625 483.64" stroke-miterlimit="10"/></g><g transform="translate(-158,-46) scale(1,1)"><path fill="none" stroke="#000000" d="M 1038.7574474431817 472.84 L 1057.1370838068183 472.84" stroke-miterlimit="10"/></g><g transform="translate(-158,-46) scale(1,1)"><path fill="none" stroke="#000000" d="M 1047.947265625 483.64 L 1035.1836292613636 501" stroke-miterlimit="10"/></g><g transform="translate(-158,-46) scale(1,1)"><path fill="none" stroke="#000000" d="M 1047.947265625 483.64 L 1060.7109019886364 501" stroke-miterlimit="10"/></g><g transform="translate(-158,-46) scale(1,1)"><g><path fill="none" stroke="none"/><text fill="#000000" stroke="none" font-family="Arial" font-size="13px" font-style="normal" font-weight="bold" text-decoration="none" x="1022.293212890625" y="521.5">Franquia</text></g></g><g transform="translate(-158,-46) scale(1,1)"><path fill="none" stroke="#000000" d="M 283 180 L 522 91" stroke-miterlimit="10"/></g><g transform="translate(-158,-46) scale(1,1)"><path fill="none" stroke="#000000" d="M 283 187 L 455 162" stroke-miterlimit="10"/></g><g transform="translate(-158,-46) scale(1,1)"><path fill="none" stroke="#000000" d="M 283 193 L 455 208" stroke-miterlimit="10"/></g><g transform="translate(-158,-46) scale(1,1)"><path fill="none" stroke="#000000" d="M 313 421 L 535 378" stroke-miterlimit="10"/></g><g transform="translate(-158,-46) scale(1,1)"><path fill="none" stroke="#000000" d="M 525.8232405692057 384.06523588571196 L 535 378 L 524.2222817528848 375.7998206014507" stroke-miterlimit="10"/></g><g transform="translate(-158,-46) scale(1,1)"><path fill="none" stroke="#000000" d="M 313 438 L 479 459" stroke-miterlimit="10"/></g><g transform="translate(-158,-46) scale(1,1)"><path fill="none" stroke="#000000" d="M 313 447 L 560 519" stroke-miterlimit="10"/></g><g transform="translate(-158,-46) scale(1,1)"><path fill="none" stroke="#000000" d="M 313 459 L 545 583" stroke-miterlimit="10"/></g><g transform="translate(-158,-46) scale(1,1)"><path fill="none" stroke="#000000" d="M 313 470 L 553 647" stroke-miterlimit="10"/></g><g transform="translate(-158,-46) scale(1,1)"><path fill="none" stroke="#000000" d="M 592 455 L 620 379" stroke-miterlimit="10" stroke-dasharray="3"/></g><g transform="translate(-158,-46) scale(1,1)"><path fill="none" stroke="#000000" d="M 620.4366808531763 389.99132884743557 L 620 379 L 612.5367368302223 387.08082315476827" stroke-miterlimit="10"/></g><g transform="translate(-158,-46) scale(1,1)"><g><path fill="none" stroke="none"/><text fill="#000000" stroke="none" font-family="Arial" font-size="13px" font-style="normal" font-weight="normal" text-decoration="none" x="550.5" y="412.5">«extend»</text></g></g><g transform="translate(-158,-46) scale(1,1)"><path fill="none" stroke="#000000" d="M 703 343 L 823 315" stroke-miterlimit="10" stroke-dasharray="3"/></g><g transform="translate(-158,-46) scale(1,1)"><path fill="none" stroke="#000000" d="M 814.0596955240267 321.40866256537913 L 823 315 L 812.1466413208509 313.2098588374828" stroke-miterlimit="10"/></g><g transform="translate(-158,-46) scale(1,1)"><g><path fill="none" stroke="none"/><text fill="#000000" stroke="none" font-family="Arial" font-size="13px" font-style="normal" font-weight="normal" text-decoration="none" x="728.5" y="321.5">«include»</text></g></g><g transform="translate(-158,-46) scale(1,1)"><path fill="none" stroke="#000000" d="M 659 343 L 846 243" stroke-miterlimit="10" stroke-dasharray="3"/></g><g transform="translate(-158,-46) scale(1,1)"><path fill="none" stroke="#000000" d="M 839.0233154771361 251.5044619505546 L 846 243 L 835.0531763481035 244.0803017792638" stroke-miterlimit="10"/></g><g transform="translate(-158,-46) scale(1,1)"><g><path fill="none" stroke="none"/><text fill="#000000" stroke="none" font-family="Arial" font-size="13px" font-style="normal" font-weight="normal" text-decoration="none" x="690.5" y="291.5">«include»</text></g></g><g transform="translate(-158,-46) scale(1,1)"><path fill="none" stroke="#000000" d="M 679 220 L 807 223" stroke-miterlimit="10" stroke-dasharray="3"/></g><g transform="translate(-158,-46) scale(1,1)"><path fill="none" stroke="#000000" d="M 796.7414817693228 226.970239754834 L 807 223 L 796.9387487405828 218.5535156477419" stroke-miterlimit="10"/></g><g transform="translate(-158,-46) scale(1,1)"><g><path fill="none" stroke="none"/><text fill="#000000" stroke="none" font-family="Arial" font-size="13px" font-style="normal" font-weight="normal" text-decoration="none" x="707.5" y="215.5">«include»</text></g></g><g transform="translate(-158,-46) scale(1,1)"><path fill="none" stroke="#000000" d="M 663 555 L 801 615" stroke-miterlimit="10" stroke-dasharray="3"/></g><g transform="translate(-158,-46) scale(1,1)"><path fill="none" stroke="#000000" d="M 790.001670550849 614.8082988577587 L 801 615 L 793.3585598424216 607.0874534871416" stroke-miterlimit="10"/></g><g transform="translate(-158,-46) scale(1,1)"><g><path fill="none" stroke="none"/><text fill="#000000" stroke="none" font-family="Arial" font-size="13px" font-style="normal" font-weight="normal" text-decoration="none" x="719.5" y="580.5">«include»</text></g></g><g transform="translate(-158,-46) scale(1,1)"><path fill="none" stroke="#000000" d="M 655 610 L 775 625" stroke-miterlimit="10" stroke-dasharray="3"/></g><g transform="translate(-158,-46) scale(1,1)"><path fill="none" stroke="#000000" d="M 764.3936761529293 627.9164866622461 L 775 625 L 765.4379289881613 619.5624639803901" stroke-miterlimit="10"/></g><g transform="translate(-158,-46) scale(1,1)"><g><path fill="none" stroke="none"/><text fill="#000000" stroke="none" font-family="Arial" font-size="13px" font-style="normal" font-weight="normal" text-decoration="none" x="671.5" y="611.5">«include»</text></g></g><g transform="translate(-158,-46) scale(1,1)"><path fill="none" stroke="#000000" d="M 644 657 L 775 641" stroke-miterlimit="10" stroke-dasharray="3"/></g><g transform="translate(-158,-46) scale(1,1)"><path fill="none" stroke="#000000" d="M 765.4226356588671 646.4105537865541 L 775 641 L 764.4019414560437 638.0536200009377" stroke-miterlimit="10"/></g><g transform="translate(-158,-46) scale(1,1)"><g><path fill="none" stroke="none"/><text fill="#000000" stroke="none" font-family="Arial" font-size="13px" font-style="normal" font-weight="normal" text-decoration="none" x="639.5" y="651.5">«include»</text></g></g><g transform="translate(-158,-46) scale(1,1)"><path fill="none" stroke="#000000" d="M 686 379 L 1015 477" stroke-miterlimit="10"/></g><g transform="translate(-158,-46) scale(1,1)"><path fill="none" stroke="#000000" d="M 1004.0585191492906 478.13313582308604 L 1015 477 L 1006.4619566697311 470.0644527187502" stroke-miterlimit="10"/></g><g transform="translate(-158,-46) scale(1,1)"><path fill="#C0C0C0" stroke="none" d="M 759 496 C 759 486.6111584 791.9070672 479 832.5 479 C 873.0929328 479 906 486.6111584 906 496 C 906 505.3888416 873.0929328 513 832.5 513 C 791.9070672 513 759 505.3888416 759 496 Z" opacity="0.2"/></g><g transform="translate(-158,-46) scale(1,1)"><path fill="#ffffff" stroke="none" d="M 752 489 C 752 479.6111584 784.9070672 472 825.5 472 C 866.0929328 472 899 479.6111584 899 489 C 899 498.3888416 866.0929328 506 825.5 506 C 784.9070672 506 752 498.3888416 752 489 Z"/></g><g transform="translate(-158,-46) scale(1,1)"><path fill="none" stroke="#000000" d="M 752 489 C 752 479.6111584 784.9070672 472 825.5 472 C 866.0929328 472 899 479.6111584 899 489 C 899 498.3888416 866.0929328 506 825.5 506 C 784.9070672 506 752 498.3888416 752 489 Z" stroke-miterlimit="10"/></g><g transform="translate(-158,-46) scale(1,1)"><g><path fill="none" stroke="none"/><text fill="#000000" stroke="none" font-family="Arial" font-size="13px" font-style="normal" font-weight="bold" text-decoration="none" x="780.688720703125" y="496">Entrega Pedido</text></g></g><g transform="translate(-158,-46) scale(1,1)"><path fill="none" stroke="#000000" d="M 900 488 L 1015 487" stroke-miterlimit="10"/></g><g transform="translate(-158,-46) scale(1,1)"><path fill="none" stroke="#000000" d="M 827 507 L 841 615" stroke-miterlimit="10" stroke-dasharray="3"/></g><g transform="translate(-158,-46) scale(1,1)"><path fill="none" stroke="#000000" d="M 835.5189578947998 605.4628003354746 L 841 615 L 843.8681365157598 604.3804994031279" stroke-miterlimit="10"/></g><g transform="translate(-158,-46) scale(1,1)"><g><path fill="none" stroke="none"/><text fill="#000000" stroke="none" font-family="Arial" font-size="13px" font-style="normal" font-weight="normal" text-decoration="none" x="835.5" y="563.5">«include»</text></g></g></g></svg>