<svg version="1.1" xmlns="http://www.w3.org/2000/svg" xmlns:xlink="http://www.w3.org/1999/xlink" width="939.89453125" height="614"><defs/><g><text fill="#eeeeee" stroke="none" font-family="Arial" font-size="24px" font-style="normal" font-weight="normal" text-decoration="none" x="0" y="0">UNREGISTERED</text><text fill="#eeeeee" stroke="none" font-family="Arial" font-size="24px" font-style="normal" font-weight="normal" text-decoration="none" x="0" y="30">UNREGISTERED</text><text fill="#eeeeee" stroke="none" font-family="Arial" font-size="24px" font-style="normal" font-weight="normal" text-decoration="none" x="0" y="60">UNREGISTERED</text><text fill="#eeeeee" stroke="none" font-family="Arial" font-size="24px" font-style="normal" font-weight="normal" text-decoration="none" x="0" y="90">UNREGISTERED</text><text fill="#eeeeee" stroke="none" font-family="Arial" font-size="24px" font-style="normal" font-weight="normal" text-decoration="none" x="0" y="120">UNREGISTERED</text><text fill="#eeeeee" stroke="none" font-family="Arial" font-size="24px" font-style="normal" font-weight="normal" text-decoration="none" x="0" y="150">UNREGISTERED</text><text fill="#eeeeee" stroke="none" font-family="Arial" font-size="24px" font-style="normal" font-weight="normal" text-decoration="none" x="0" y="180">UNREGISTERED</text><text fill="#eeeeee" stroke="none" font-family="Arial" font-size="24px" font-style="normal" font-weight="normal" text-decoration="none" x="0" y="210">UNREGISTERED</text><text fill="#eeeeee" stroke="none" font-family="Arial" font-size="24px" font-style="normal" font-weight="normal" text-decoration="none" x="0" y="240">UNREGISTERED</text><text fill="#eeeeee" stroke="none" font-family="Arial" font-size="24px" font-style="normal" font-weight="normal" text-decoration="none" x="0" y="270">UNREGISTERED</text><text fill="#eeeeee" stroke="none" font-family="Arial" font-size="24px" font-style="normal" font-weight="normal" text-decoration="none" x="0" y="300">UNREGISTERED</text><text fill="#eeeeee" stroke="none" font-family="Arial" font-size="24px" font-style="normal" font-weight="normal" text-decoration="none" x="0" y="330">UNREGISTERED</text><text fill="#eeeeee" stroke="none" font-family="Arial" font-size="24px" font-style="normal" font-weight="normal" text-decoration="none" x="0" y="360">UNREGISTERED</text><text fill="#eeeeee" stroke="none" font-family="Arial" font-size="24px" font-style="normal" font-weight="normal" text-decoration="none" x="0" y="390">UNREGISTERED</text><text fill="#eeeeee" stroke="none" font-family="Arial" font-size="24px" font-style="normal" font-weight="normal" text-decoration="none" x="0" y="420">UNREGISTERED</text><text fill="#eeeeee" stroke="none" font-family="Arial" font-size="24px" font-style="normal" font-weight="normal" text-decoration="none" x="0" y="450">UNREGISTERED</text><text fill="#eeeeee" stroke="none" font-family="Arial" font-size="24px" font-style="normal" font-weight="normal" text-decoration="none" x="0" y="480">UNREGISTERED</text><text fill="#eeeeee" stroke="none" font-family="Arial" font-size="24px" font-style="normal" font-weight="normal" text-decoration="none" x="0" y="510">UNREGISTERED</text><text fill="#eeeeee" stroke="none" font-family="Arial" font-size="24px" font-style="normal" font-weight="normal" text-decoration="none" x="0" y="540">UNREGISTERED</text><text fill="#eeeeee" stroke="none" font-family="Arial" font-size="24px" font-style="normal" font-weight="normal" text-decoration="none" x="0" y="570">UNREGISTERED</text><text fill="#eeeeee" stroke="none" font-family="Arial" font-size="24px" font-style="normal" font-weight="normal" text-decoration="none" x="0" y="600">UNREGISTERED</text><text fill="#eeeeee" stroke="none" font-family="Arial" font-size="24px" font-style="normal" font-weight="normal" text-decoration="none" x="200" y="0">UNREGISTERED</text><text fill="#eeeeee" stroke="none" font-family="Arial" font-size="24px" font-style="normal" font-weight="normal" text-decoration="none" x="200" y="30">UNREGISTERED</text><text fill="#eeeeee" stroke="none" font-family="Arial" font-size="24px" font-style="normal" font-weight="normal" text-decoration="none" x="200" y="60">UNREGISTERED</text><text fill="#eeeeee" stroke="none" font-family="Arial" font-size="24px" font-style="normal" font-weight="normal" text-decoration="none" x="200" y="90">UNREGISTERED</text><text fill="#eeeeee" stroke="none" font-family="Arial" font-size="24px" font-style="normal" font-weight="normal" text-decoration="none" x="200" y="120">UNREGISTERED</text><text fill="#eeeeee" stroke="none" font-family="Arial" font-size="24px" font-style="normal" font-weight="normal" text-decoration="none" x="200" y="150">UNREGISTERED</text><text fill="#eeeeee" stroke="none" font-family="Arial" font-size="24px" font-style="normal" font-weight="normal" text-decoration="none" x="200" y="180">UNREGISTERED</text><text fill="#eeeeee" stroke="none" font-family="Arial" font-size="24px" font-style="normal" font-weight="normal" text-decoration="none" x="200" y="210">UNREGISTERED</text><text fill="#eeeeee" stroke="none" font-family="Arial" font-size="24px" font-style="normal" font-weight="normal" text-decoration="none" x="200" y="240">UNREGISTERED</text><text fill="#eeeeee" stroke="none" font-family="Arial" font-size="24px" font-style="normal" font-weight="normal" text-decoration="none" x="200" y="270">UNREGISTERED</text><text fill="#eeeeee" stroke="none" font-family="Arial" font-size="24px" font-style="normal" font-weight="normal" text-decoration="none" x="200" y="300">UNREGISTERED</text><text fill="#eeeeee" stroke="none" font-family="Arial" font-size="24px" font-style="normal" font-weight="normal" text-decoration="none" x="200" y="330">UNREGISTERED</text><text fill="#eeeeee" stroke="none" font-family="Arial" font-size="24px" font-style="normal" font-weight="normal" text-decoration="none" x="200" y="360">UNREGISTERED</text><text fill="#eeeeee" stroke="none" font-family="Arial" font-size="24px" font-style="normal" font-weight="normal" text-decoration="none" x="200" y="390">UNREGISTERED</text><text fill="#eeeeee" stroke="none" font-family="Arial" font-size="24px" font-style="normal" font-weight="normal" text-decoration="none" x="200" y="420">UNREGISTERED</text><text fill="#eeeeee" stroke="none" font-family="Arial" font-size="24px" font-style="normal" font-weight="normal" text-decoration="none" x="200" y="450">UNREGISTERED</text><text fill="#eeeeee" stroke="none" font-family="Arial" font-size="24px" font-style="normal" font-weight="normal" text-decoration="none" x="200" y="480">UNREGISTERED</text><text fill="#eeeeee" stroke="none" font-family="Arial" font-size="24px" font-style="normal" font-weight="normal" text-decoration="none" x="200" y="510">UNREGISTERED</text><text fill="#eeeeee" stroke="none" font-family="Arial" font-size="24px" font-style="normal" font-weight="normal" text-decoration="none" x="200" y="540">UNREGISTERED</text><text fill="#eeeeee" stroke="none" font-family="Arial" font-size="24px" font-style="normal" font-weight="normal" text-decoration="none" x="200" y="570">UNREGISTERED</text><text fill="#eeeeee" stroke="none" font-family="Arial" font-size="24px" font-style="normal" font-weight="normal" text-decoration="none" x="200" y="600">UNREGISTERED</text><text fill="#eeeeee" stroke="none" font-family="Arial" font-size="24px" font-style="normal" font-weight="normal" text-decoration="none" x="400" y="0">UNREGISTERED</text><text fill="#eeeeee" stroke="none" font-family="Arial" font-size="24px" font-style="normal" font-weight="normal" text-decoration="none" x="400" y="30">UNREGISTERED</text><text fill="#eeeeee" stroke="none" font-family="Arial" font-size="24px" font-style="normal" font-weight="normal" text-decoration="none" x="400" y="60">UNREGISTERED</text><text fill="#eeeeee" stroke="none" font-family="Arial" font-size="24px" font-style="normal" font-weight="normal" text-decoration="none" x="400" y="90">UNREGISTERED</text><text fill="#eeeeee" stroke="none" font-family="Arial" font-size="24px" font-style="normal" font-weight="normal" text-decoration="none" x="400" y="120">UNREGISTERED</text><text fill="#eeeeee" stroke="none" font-family="Arial" font-size="24px" font-style="normal" font-weight="normal" text-decoration="none" x="400" y="150">UNREGISTERED</text><text fill="#eeeeee" stroke="none" font-family="Arial" font-size="24px" font-style="normal" font-weight="normal" text-decoration="none" x="400" y="180">UNREGISTERED</text><text fill="#eeeeee" stroke="none" font-family="Arial" font-size="24px" font-style="normal" font-weight="normal" text-decoration="none" x="400" y="210">UNREGISTERED</text><text fill="#eeeeee" stroke="none" font-family="Arial" font-size="24px" font-style="normal" font-weight="normal" text-decoration="none" x="400" y="240">UNREGISTERED</text><text fill="#eeeeee" stroke="none" font-family="Arial" font-size="24px" font-style="normal" font-weight="normal" text-decoration="none" x="400" y="270">UNREGISTERED</text><text fill="#eeeeee" stroke="none" font-family="Arial" font-size="24px" font-style="normal" font-weight="normal" text-decoration="none" x="400" y="300">UNREGISTERED</text><text fill="#eeeeee" stroke="none" font-family="Arial" font-size="24px" font-style="normal" font-weight="normal" text-decoration="none" x="400" y="330">UNREGISTERED</text><text fill="#eeeeee" stroke="none" font-family="Arial" font-size="24px" font-style="normal" font-weight="normal" text-decoration="none" x="400" y="360">UNREGISTERED</text><text fill="#eeeeee" stroke="none" font-family="Arial" font-size="24px" font-style="normal" font-weight="normal" text-decoration="none" x="400" y="390">UNREGISTERED</text><text fill="#eeeeee" stroke="none" font-family="Arial" font-size="24px" font-style="normal" font-weight="normal" text-decoration="none" x="400" y="420">UNREGISTERED</text><text fill="#eeeeee" stroke="none" font-family="Arial" font-size="24px" font-style="normal" font-weight="normal" text-decoration="none" x="400" y="450">UNREGISTERED</text><text fill="#eeeeee" stroke="none" font-family="Arial" font-size="24px" font-style="normal" font-weight="normal" text-decoration="none" x="400" y="480">UNREGISTERED</text><text fill="#eeeeee" stroke="none" font-family="Arial" font-size="24px" font-style="normal" font-weight="normal" text-decoration="none" x="400" y="510">UNREGISTERED</text><text fill="#eeeeee" stroke="none" font-family="Arial" font-size="24px" font-style="normal" font-weight="normal" text-decoration="none" x="400" y="540">UNREGISTERED</text><text fill="#eeeeee" stroke="none" font-family="Arial" font-size="24px" font-style="normal" font-weight="normal" text-decoration="none" x="400" y="570">UNREGISTERED</text><text fill="#eeeeee" stroke="none" font-family="Arial" font-size="24px" font-style="normal" font-weight="normal" text-decoration="none" x="400" y="600">UNREGISTERED</text><text fill="#eeeeee" stroke="none" font-family="Arial" font-size="24px" font-style="normal" font-weight="normal" text-decoration="none" x="600" y="0">UNREGISTERED</text><text fill="#eeeeee" stroke="none" font-family="Arial" font-size="24px" font-style="normal" font-weight="normal" text-decoration="none" x="600" y="30">UNREGISTERED</text><text fill="#eeeeee" stroke="none" font-family="Arial" font-size="24px" font-style="normal" font-weight="normal" text-decoration="none" x="600" y="60">UNREGISTERED</text><text fill="#eeeeee" stroke="none" font-family="Arial" font-size="24px" font-style="normal" font-weight="normal" text-decoration="none" x="600" y="90">UNREGISTERED</text><text fill="#eeeeee" stroke="none" font-family="Arial" font-size="24px" font-style="normal" font-weight="normal" text-decoration="none" x="600" y="120">UNREGISTERED</text><text fill="#eeeeee" stroke="none" font-family="Arial" font-size="24px" font-style="normal" font-weight="normal" text-decoration="none" x="600" y="150">UNREGISTERED</text><text fill="#eeeeee" stroke="none" font-family="Arial" font-size="24px" font-style="normal" font-weight="normal" text-decoration="none" x="600" y="180">UNREGISTERED</text><text fill="#eeeeee" stroke="none" font-family="Arial" font-size="24px" font-style="normal" font-weight="normal" text-decoration="none" x="600" y="210">UNREGISTERED</text><text fill="#eeeeee" stroke="none" font-family="Arial" font-size="24px" font-style="normal" font-weight="normal" text-decoration="none" x="600" y="240">UNREGISTERED</text><text fill="#eeeeee" stroke="none" font-family="Arial" font-size="24px" font-style="normal" font-weight="normal" text-decoration="none" x="600" y="270">UNREGISTERED</text><text fill="#eeeeee" stroke="none" font-family="Arial" font-size="24px" font-style="normal" font-weight="normal" text-decoration="none" x="600" y="300">UNREGISTERED</text><text fill="#eeeeee" stroke="none" font-family="Arial" font-size="24px" font-style="normal" font-weight="normal" text-decoration="none" x="600" y="330">UNREGISTERED</text><text fill="#eeeeee" stroke="none" font-family="Arial" font-size="24px" font-style="normal" font-weight="normal" text-decoration="none" x="600" y="360">UNREGISTERED</text><text fill="#eeeeee" stroke="none" font-family="Arial" font-size="24px" font-style="normal" font-weight="normal" text-decoration="none" x="600" y="390">UNREGISTERED</text><text fill="#eeeeee" stroke="none" font-family="Arial" font-size="24px" font-style="normal" font-weight="normal" text-decoration="none" x="600" y="420">UNREGISTERED</text><text fill="#eeeeee" stroke="none" font-family="Arial" font-size="24px" font-style="normal" font-weight="normal" text-decoration="none" x="600" y="450">UNREGISTERED</text><text fill="#eeeeee" stroke="none" font-family="Arial" font-size="24px" font-style="normal" font-weight="normal" text-decoration="none" x="600" y="480">UNREGISTERED</text><text fill="#eeeeee" stroke="none" font-family="Arial" font-size="24px" font-style="normal" font-weight="normal" text-decoration="none" x="600" y="510">UNREGISTERED</text><text fill="#eeeeee" stroke="none" font-family="Arial" font-size="24px" font-style="normal" font-weight="normal" text-decoration="none" x="600" y="540">UNREGISTERED</text><text fill="#eeeeee" stroke="none" font-family="Arial" font-size="24px" font-style="normal" font-weight="normal" text-decoration="none" x="600" y="570">UNREGISTERED</text><text fill="#eeeeee" stroke="none" font-family="Arial" font-size="24px" font-style="normal" font-weight="normal" text-decoration="none" x="600" y="600">UNREGISTERED</text><text fill="#eeeeee" stroke="none" font-family="Arial" font-size="24px" font-style="normal" font-weight="normal" text-decoration="none" x="800" y="0">UNREGISTERED</text><text fill="#eeeeee" stroke="none" font-family="Arial" font-size="24px" font-style="normal" font-weight="normal" text-decoration="none" x="800" y="30">UNREGISTERED</text><text fill="#eeeeee" stroke="none" font-family="Arial" font-size="24px" font-style="normal" font-weight="normal" text-decoration="none" x="800" y="60">UNREGISTERED</text><text fill="#eeeeee" stroke="none" font-family="Arial" font-size="24px" font-style="normal" font-weight="normal" text-decoration="none" x="800" y="90">UNREGISTERED</text><text fill="#eeeeee" stroke="none" font-family="Arial" font-size="24px" font-style="normal" font-weight="normal" text-decoration="none" x="800" y="120">UNREGISTERED</text><text fill="#eeeeee" stroke="none" font-family="Arial" font-size="24px" font-style="normal" font-weight="normal" text-decoration="none" x="800" y="150">UNREGISTERED</text><text fill="#eeeeee" stroke="none" font-family="Arial" font-size="24px" font-style="normal" font-weight="normal" text-decoration="none" x="800" y="180">UNREGISTERED</text><text fill="#eeeeee" stroke="none" font-family="Arial" font-size="24px" font-style="normal" font-weight="normal" text-decoration="none" x="800" y="210">UNREGISTERED</text><text fill="#eeeeee" stroke="none" font-family="Arial" font-size="24px" font-style="normal" font-weight="normal" text-decoration="none" x="800" y="240">UNREGISTERED</text><text fill="#eeeeee" stroke="none" font-family="Arial" font-size="24px" font-style="normal" font-weight="normal" text-decoration="none" x="800" y="270">UNREGISTERED</text><text fill="#eeeeee" stroke="none" font-family="Arial" font-size="24px" font-style="normal" font-weight="normal" text-decoration="none" x="800" y="300">UNREGISTERED</text><text fill="#eeeeee" stroke="none" font-family="Arial" font-size="24px" font-style="normal" font-weight="normal" text-decoration="none" x="800" y="330">UNREGISTERED</text><text fill="#eeeeee" stroke="none" font-family="Arial" font-size="24px" font-style="normal" font-weight="normal" text-decoration="none" x="800" y="360">UNREGISTERED</text><text fill="#eeeeee" stroke="none" font-family="Arial" font-size="24px" font-style="normal" font-weight="normal" text-decoration="none" x="800" y="390">UNREGISTERED</text><text fill="#eeeeee" stroke="none" font-family="Arial" font-size="24px" font-style="normal" font-weight="normal" text-decoration="none" x="800" y="420">UNREGISTERED</text><text fill="#eeeeee" stroke="none" font-family="Arial" font-size="24px" font-style="normal" font-weight="normal" text-decoration="none" x="800" y="450">UNREGISTERED</text><text fill="#eeeeee" stroke="none" font-family="Arial" font-size="24px" font-style="normal" font-weight="normal" text-decoration="none" x="800" y="480">UNREGISTERED</text><text fill="#eeeeee" stroke="none" font-family="Arial" font-size="24px" font-style="normal" font-weight="normal" text-decoration="none" x="800" y="510">UNREGISTERED</text><text fill="#eeeeee" stroke="none" font-family="Arial" font-size="24px" font-style="normal" font-weight="normal" text-decoration="none" x="800" y="540">UNREGISTERED</text><text fill="#eeeeee" stroke="none" font-family="Arial" font-size="24px" font-style="normal" font-weight="normal" text-decoration="none" x="800" y="570">UNREGISTERED</text><text fill="#eeeeee" stroke="none" font-family="Arial" font-size="24px" font-style="normal" font-weight="normal" text-decoration="none" x="800" y="600">UNREGISTERED</text><g transform="translate(-78,-166) scale(1,1)"><path fill="#ffffff" stroke="none" d="M 188.38615696022728 217.68 C 188.38615696022728 212.886167936 192.27199928517274 209 197.0654296875 209 C 201.85886008982726 209 205.74470241477272 212.886167936 205.74470241477272 217.68 C 205.74470241477272 222.47383206400002 201.85886008982726 226.36 197.0654296875 226.36 C 192.27199928517274 226.36 188.38615696022728 222.47383206400002 188.38615696022728 217.68 Z"/></g><g transform="translate(-78,-166) scale(1,1)"><path fill="none" stroke="#000000" d="M 188.38615696022728 217.68 C 188.38615696022728 212.886167936 192.27199928517274 209 197.0654296875 209 C 201.85886008982726 209 205.74470241477272 212.886167936 205.74470241477272 217.68 C 205.74470241477272 222.47383206400002 201.85886008982726 226.36 197.0654296875 226.36 C 192.27199928517274 226.36 188.38615696022728 222.47383206400002 188.38615696022728 217.68 Z" stroke-miterlimit="10"/></g><g transform="translate(-78,-166) scale(1,1)"><path fill="none" stroke="#000000" d="M 197.0654296875 226.36 L 197.0654296875 243.64" stroke-miterlimit="10"/></g><g transform="translate(-78,-166) scale(1,1)"><path fill="none" stroke="#000000" d="M 187.87561150568183 232.84 L 206.25524786931817 232.84" stroke-miterlimit="10"/></g><g transform="translate(-78,-166) scale(1,1)"><path fill="none" stroke="#000000" d="M 197.0654296875 243.64 L 184.30179332386365 261" stroke-miterlimit="10"/></g><g transform="translate(-78,-166) scale(1,1)"><path fill="none" stroke="#000000" d="M 197.0654296875 243.64 L 209.82906605113635 261" stroke-miterlimit="10"/></g><g transform="translate(-78,-166) scale(1,1)"><g><path fill="none" stroke="none"/><text fill="#000000" stroke="none" font-family="Arial" font-size="13px" font-style="normal" font-weight="bold" text-decoration="none" x="173.5791015625" y="281.5">Gerente</text></g></g><g transform="translate(-78,-166) scale(1,1)"><path fill="#ffffff" stroke="none" d="M 171.13298313210228 545.6800000000001 C 171.13298313210228 540.8861679360001 175.01882545704774 537 179.812255859375 537 C 184.60568626170226 537 188.49152858664772 540.8861679360001 188.49152858664772 545.6800000000001 C 188.49152858664772 550.473832064 184.60568626170226 554.36 179.812255859375 554.36 C 175.01882545704774 554.36 171.13298313210228 550.473832064 171.13298313210228 545.6800000000001 Z"/></g><g transform="translate(-78,-166) scale(1,1)"><path fill="none" stroke="#000000" d="M 171.13298313210228 545.6800000000001 C 171.13298313210228 540.8861679360001 175.01882545704774 537 179.812255859375 537 C 184.60568626170226 537 188.49152858664772 540.8861679360001 188.49152858664772 545.6800000000001 C 188.49152858664772 550.473832064 184.60568626170226 554.36 179.812255859375 554.36 C 175.01882545704774 554.36 171.13298313210228 550.473832064 171.13298313210228 545.6800000000001 Z" stroke-miterlimit="10"/></g><g transform="translate(-78,-166) scale(1,1)"><path fill="none" stroke="#000000" d="M 179.812255859375 554.36 L 179.812255859375 571.64" stroke-miterlimit="10"/></g><g transform="translate(-78,-166) scale(1,1)"><path fill="none" stroke="#000000" d="M 170.62243767755683 560.84 L 189.00207404119317 560.84" stroke-miterlimit="10"/></g><g transform="translate(-78,-166) scale(1,1)"><path fill="none" stroke="#000000" d="M 179.812255859375 571.64 L 167.04861949573865 589" stroke-miterlimit="10"/></g><g transform="translate(-78,-166) scale(1,1)"><path fill="none" stroke="#000000" d="M 179.812255859375 571.64 L 192.57589222301135 589" stroke-miterlimit="10"/></g><g transform="translate(-78,-166) scale(1,1)"><g><path fill="none" stroke="none"/><text fill="#000000" stroke="none" font-family="Arial" font-size="13px" font-style="normal" font-weight="bold" text-decoration="none" x="135.727783203125" y="609.5">Encomendador</text></g></g><g transform="translate(-78,-166) scale(1,1)"><path fill="#ffffff" stroke="none" d="M 105.49162571022727 681.6800000000001 C 105.49162571022727 676.8861679360001 109.37746803517273 673 114.1708984375 673 C 118.96432883982727 673 122.85017116477273 676.8861679360001 122.85017116477273 681.6800000000001 C 122.85017116477273 686.473832064 118.96432883982727 690.36 114.1708984375 690.36 C 109.37746803517273 690.36 105.49162571022727 686.473832064 105.49162571022727 681.6800000000001 Z"/></g><g transform="translate(-78,-166) scale(1,1)"><path fill="none" stroke="#000000" d="M 105.49162571022727 681.6800000000001 C 105.49162571022727 676.8861679360001 109.37746803517273 673 114.1708984375 673 C 118.96432883982727 673 122.85017116477273 676.8861679360001 122.85017116477273 681.6800000000001 C 122.85017116477273 686.473832064 118.96432883982727 690.36 114.1708984375 690.36 C 109.37746803517273 690.36 105.49162571022727 686.473832064 105.49162571022727 681.6800000000001 Z" stroke-miterlimit="10"/></g><g transform="translate(-78,-166) scale(1,1)"><path fill="none" stroke="#000000" d="M 114.1708984375 690.36 L 114.1708984375 707.64" stroke-miterlimit="10"/></g><g transform="translate(-78,-166) scale(1,1)"><path fill="none" stroke="#000000" d="M 104.98108025568182 696.84 L 123.36071661931818 696.84" stroke-miterlimit="10"/></g><g transform="translate(-78,-166) scale(1,1)"><path fill="none" stroke="#000000" d="M 114.1708984375 707.64 L 101.40726207386363 725" stroke-miterlimit="10"/></g><g transform="translate(-78,-166) scale(1,1)"><path fill="none" stroke="#000000" d="M 114.1708984375 707.64 L 126.93453480113637 725" stroke-miterlimit="10"/></g><g transform="translate(-78,-166) scale(1,1)"><g><path fill="none" stroke="none"/><text fill="#000000" stroke="none" font-family="Arial" font-size="13px" font-style="normal" font-weight="bold" text-decoration="none" x="93.937744140625" y="745.5">Cliente</text></g></g><g transform="translate(-78,-166) scale(1,1)"><path fill="#ffffff" stroke="none" d="M 227.60026828835228 681.6800000000001 C 227.60026828835228 676.8861679360001 231.48611061329774 673 236.279541015625 673 C 241.07297141795226 673 244.95881374289772 676.8861679360001 244.95881374289772 681.6800000000001 C 244.95881374289772 686.473832064 241.07297141795226 690.36 236.279541015625 690.36 C 231.48611061329774 690.36 227.60026828835228 686.473832064 227.60026828835228 681.6800000000001 Z"/></g><g transform="translate(-78,-166) scale(1,1)"><path fill="none" stroke="#000000" d="M 227.60026828835228 681.6800000000001 C 227.60026828835228 676.8861679360001 231.48611061329774 673 236.279541015625 673 C 241.07297141795226 673 244.95881374289772 676.8861679360001 244.95881374289772 681.6800000000001 C 244.95881374289772 686.473832064 241.07297141795226 690.36 236.279541015625 690.36 C 231.48611061329774 690.36 227.60026828835228 686.473832064 227.60026828835228 681.6800000000001 Z" stroke-miterlimit="10"/></g><g transform="translate(-78,-166) scale(1,1)"><path fill="none" stroke="#000000" d="M 236.279541015625 690.36 L 236.279541015625 707.64" stroke-miterlimit="10"/></g><g transform="translate(-78,-166) scale(1,1)"><path fill="none" stroke="#000000" d="M 227.08972283380683 696.84 L 245.46935919744317 696.84" stroke-miterlimit="10"/></g><g transform="translate(-78,-166) scale(1,1)"><path fill="none" stroke="#000000" d="M 236.279541015625 707.64 L 223.51590465198865 725" stroke-miterlimit="10"/></g><g transform="translate(-78,-166) scale(1,1)"><path fill="none" stroke="#000000" d="M 236.279541015625 707.64 L 249.04317737926135 725" stroke-miterlimit="10"/></g><g transform="translate(-78,-166) scale(1,1)"><g><path fill="none" stroke="none"/><text fill="#000000" stroke="none" font-family="Arial" font-size="13px" font-style="normal" font-weight="bold" text-decoration="none" x="206.642333984375" y="745.5">Atendente</text></g></g><g transform="translate(-78,-166) scale(1,1)"><path fill="none" stroke="#000000" d="M 133 671 L 159 616" stroke-miterlimit="10"/></g><g transform="translate(-78,-166) scale(1,1)"><path fill="#FFFFFF" stroke="none" d="M 157.92477634262386 637.9737091563218 L 159 616 L 142.7019433083211 630.7774608128332"/></g><g transform="translate(-78,-166) scale(1,1)"><path fill="none" stroke="#000000" d="M 157.92477634262386 637.9737091563218 L 159 616 L 142.7019433083211 630.7774608128332 L 157.92477634262386 637.9737091563218" stroke-miterlimit="10"/></g><g transform="translate(-78,-166) scale(1,1)"><path fill="none" stroke="#000000" d="M 219 671 L 196 616" stroke-miterlimit="10"/></g><g transform="translate(-78,-166) scale(1,1)"><path fill="#FFFFFF" stroke="none" d="M 211.60887727190052 631.5036431302693 L 196 616 L 196.07441177515975 637.9998741561791"/></g><g transform="translate(-78,-166) scale(1,1)"><path fill="none" stroke="#000000" d="M 211.60887727190052 631.5036431302693 L 196 616 L 196.07441177515975 637.9998741561791 L 211.60887727190052 631.5036431302693" stroke-miterlimit="10"/></g><g transform="translate(-78,-166) scale(1,1)"><path fill="#C0C0C0" stroke="none" d="M 367 200 C 367 190.6111584 418.2633904 183 481.5 183 C 544.7366096 183 596 190.6111584 596 200 C 596 209.3888416 544.7366096 217 481.5 217 C 418.2633904 217 367 209.3888416 367 200 Z" opacity="0.2"/></g><g transform="translate(-78,-166) scale(1,1)"><path fill="#ffffff" stroke="none" d="M 360 193 C 360 183.6111584 411.2633904 176 474.5 176 C 537.7366096 176 589 183.6111584 589 193 C 589 202.3888416 537.7366096 210 474.5 210 C 411.2633904 210 360 202.3888416 360 193 Z"/></g><g transform="translate(-78,-166) scale(1,1)"><path fill="none" stroke="#000000" d="M 360 193 C 360 183.6111584 411.2633904 176 474.5 176 C 537.7366096 176 589 183.6111584 589 193 C 589 202.3888416 537.7366096 210 474.5 210 C 411.2633904 210 360 202.3888416 360 193 Z" stroke-miterlimit="10"/></g><g transform="translate(-78,-166) scale(1,1)"><g><path fill="none" stroke="none"/><text fill="#000000" stroke="none" font-family="Arial" font-size="13px" font-style="normal" font-weight="bold" text-decoration="none" x="402.228759765625" y="200">Manutenção de Franquia</text></g></g><g transform="translate(-78,-166) scale(1,1)"><path fill="#C0C0C0" stroke="none" d="M 367 256 C 367 246.6111584 418.7111056 239 482.5 239 C 546.2888944 239 598 246.6111584 598 256 C 598 265.3888416 546.2888944 273 482.5 273 C 418.7111056 273 367 265.3888416 367 256 Z" opacity="0.2"/></g><g transform="translate(-78,-166) scale(1,1)"><path fill="#ffffff" stroke="none" d="M 360 249 C 360 239.6111584 411.7111056 232 475.5 232 C 539.2888944 232 591 239.6111584 591 249 C 591 258.3888416 539.2888944 266 475.5 266 C 411.7111056 266 360 258.3888416 360 249 Z"/></g><g transform="translate(-78,-166) scale(1,1)"><path fill="none" stroke="#000000" d="M 360 249 C 360 239.6111584 411.7111056 232 475.5 232 C 539.2888944 232 591 239.6111584 591 249 C 591 258.3888416 539.2888944 266 475.5 266 C 411.7111056 266 360 258.3888416 360 249 Z" stroke-miterlimit="10"/></g><g transform="translate(-78,-166) scale(1,1)"><g><path fill="none" stroke="none"/><text fill="#000000" stroke="none" font-family="Arial" font-size="13px" font-style="normal" font-weight="bold" text-decoration="none" x="402.505126953125" y="256">Manutenção de Cardápio</text></g></g><g transform="translate(-78,-166) scale(1,1)"><path fill="#C0C0C0" stroke="none" d="M 367 320 C 367 310.6111584 416.6963872 303 478 303 C 539.3036128 303 589 310.6111584 589 320 C 589 329.3888416 539.3036128 337 478 337 C 416.6963872 337 367 329.3888416 367 320 Z" opacity="0.2"/></g><g transform="translate(-78,-166) scale(1,1)"><path fill="#ffffff" stroke="none" d="M 360 313 C 360 303.6111584 409.6963872 296 471 296 C 532.3036128 296 582 303.6111584 582 313 C 582 322.3888416 532.3036128 330 471 330 C 409.6963872 330 360 322.3888416 360 313 Z"/></g><g transform="translate(-78,-166) scale(1,1)"><path fill="none" stroke="#000000" d="M 360 313 C 360 303.6111584 409.6963872 296 471 296 C 532.3036128 296 582 303.6111584 582 313 C 582 322.3888416 532.3036128 330 471 330 C 409.6963872 330 360 322.3888416 360 313 Z" stroke-miterlimit="10"/></g><g transform="translate(-78,-166) scale(1,1)"><g><path fill="none" stroke="none"/><text fill="#000000" stroke="none" font-family="Arial" font-size="13px" font-style="normal" font-weight="bold" text-decoration="none" x="401.616943359375" y="320">Manutenção de Produto</text></g></g><g transform="translate(-78,-166) scale(1,1)"><path fill="#C0C0C0" stroke="none" d="M 447 456 C 447 446.6111584 487.294368 439 537 439 C 586.705632 439 627 446.6111584 627 456 C 627 465.3888416 586.705632 473 537 473 C 487.294368 473 447 465.3888416 447 456 Z" opacity="0.2"/></g><g transform="translate(-78,-166) scale(1,1)"><path fill="#ffffff" stroke="none" d="M 440 449 C 440 439.6111584 480.294368 432 530 432 C 579.705632 432 620 439.6111584 620 449 C 620 458.3888416 579.705632 466 530 466 C 480.294368 466 440 458.3888416 440 449 Z"/></g><g transform="translate(-78,-166) scale(1,1)"><path fill="none" stroke="#000000" d="M 440 449 C 440 439.6111584 480.294368 432 530 432 C 579.705632 432 620 439.6111584 620 449 C 620 458.3888416 579.705632 466 530 466 C 480.294368 466 440 458.3888416 440 449 Z" stroke-miterlimit="10"/></g><g transform="translate(-78,-166) scale(1,1)"><g><path fill="none" stroke="none"/><text fill="#000000" stroke="none" font-family="Arial" font-size="13px" font-style="normal" font-weight="bold" text-decoration="none" x="474.708740234375" y="456">Inclusão de Pedido</text></g></g><g transform="translate(-78,-166) scale(1,1)"><path fill="#C0C0C0" stroke="none" d="M 719 312 C 719 302.6111584 751.0116368 295 790.5 295 C 829.9883632 295 862 302.6111584 862 312 C 862 321.3888416 829.9883632 329 790.5 329 C 751.0116368 329 719 321.3888416 719 312 Z" opacity="0.2"/></g><g transform="translate(-78,-166) scale(1,1)"><path fill="#ffffff" stroke="none" d="M 712 305 C 712 295.6111584 744.0116368 288 783.5 288 C 822.9883632 288 855 295.6111584 855 305 C 855 314.3888416 822.9883632 322 783.5 322 C 744.0116368 322 712 314.3888416 712 305 Z"/></g><g transform="translate(-78,-166) scale(1,1)"><path fill="none" stroke="#000000" d="M 712 305 C 712 295.6111584 744.0116368 288 783.5 288 C 822.9883632 288 855 295.6111584 855 305 C 855 314.3888416 822.9883632 322 783.5 322 C 744.0116368 322 712 314.3888416 712 305 Z" stroke-miterlimit="10"/></g><g transform="translate(-78,-166) scale(1,1)"><g><path fill="none" stroke="none"/><text fill="#000000" stroke="none" font-family="Arial" font-size="13px" font-style="normal" font-weight="bold" text-decoration="none" x="740.86279296875" y="312">Busca Produto</text></g></g><g transform="translate(-78,-166) scale(1,1)"><path fill="none" stroke="#000000" d="M 562 431 L 751 323" stroke-miterlimit="10" stroke-dasharray="3"/></g><g transform="translate(-78,-166) scale(1,1)"><path fill="none" stroke="#000000" d="M 744.2648329196912 331.69698363803934 L 751 323 L 740.0878215787632 324.3872137914153" stroke-miterlimit="10"/></g><g transform="translate(-78,-166) scale(1,1)"><g><path fill="none" stroke="none"/><text fill="#000000" stroke="none" font-family="Arial" font-size="13px" font-style="normal" font-weight="normal" text-decoration="none" x="605.5" y="377.5">«include»</text></g></g><g transform="translate(-78,-166) scale(1,1)"><path fill="none" stroke="#000000" d="M 583 310 L 711 307" stroke-miterlimit="10" stroke-dasharray="3"/></g><g transform="translate(-78,-166) scale(1,1)"><path fill="none" stroke="#000000" d="M 700.9387487405828 311.4464843522581 L 711 307 L 700.7414817693228 303.029760245166" stroke-miterlimit="10"/></g><g transform="translate(-78,-166) scale(1,1)"><g><path fill="none" stroke="none"/><text fill="#000000" stroke="none" font-family="Arial" font-size="13px" font-style="normal" font-weight="normal" text-decoration="none" x="625.5" y="298.5">«include»</text></g></g><g transform="translate(-78,-166) scale(1,1)"><path fill="#C0C0C0" stroke="none" d="M 415 568 C 415 558.6111584 462.6816688 551 521.5 551 C 580.3183312 551 628 558.6111584 628 568 C 628 577.3888416 580.3183312 585 521.5 585 C 462.6816688 585 415 577.3888416 415 568 Z" opacity="0.2"/></g><g transform="translate(-78,-166) scale(1,1)"><path fill="#ffffff" stroke="none" d="M 408 561 C 408 551.6111584 455.6816688 544 514.5 544 C 573.3183312 544 621 551.6111584 621 561 C 621 570.3888416 573.3183312 578 514.5 578 C 455.6816688 578 408 570.3888416 408 561 Z"/></g><g transform="translate(-78,-166) scale(1,1)"><path fill="none" stroke="#000000" d="M 408 561 C 408 551.6111584 455.6816688 544 514.5 544 C 573.3183312 544 621 551.6111584 621 561 C 621 570.3888416 573.3183312 578 514.5 578 C 455.6816688 578 408 570.3888416 408 561 Z" stroke-miterlimit="10"/></g><g transform="translate(-78,-166) scale(1,1)"><g><path fill="none" stroke="none"/><text fill="#000000" stroke="none" font-family="Arial" font-size="13px" font-style="normal" font-weight="bold" text-decoration="none" x="447.649658203125" y="568">Manutenção de Cliente</text></g></g><g transform="translate(-78,-166) scale(1,1)"><path fill="#C0C0C0" stroke="none" d="M 375 640 C 375 630.6111584 434.76997919999997 623 508.5 623 C 582.2300208 623 642 630.6111584 642 640 C 642 649.3888416 582.2300208 657 508.5 657 C 434.76997919999997 657 375 649.3888416 375 640 Z" opacity="0.2"/></g><g transform="translate(-78,-166) scale(1,1)"><path fill="#ffffff" stroke="none" d="M 368 633 C 368 623.6111584 427.76997919999997 616 501.5 616 C 575.2300208 616 635 623.6111584 635 633 C 635 642.3888416 575.2300208 650 501.5 650 C 427.76997919999997 650 368 642.3888416 368 633 Z"/></g><g transform="translate(-78,-166) scale(1,1)"><path fill="none" stroke="#000000" d="M 368 633 C 368 623.6111584 427.76997919999997 616 501.5 616 C 575.2300208 616 635 623.6111584 635 633 C 635 642.3888416 575.2300208 650 501.5 650 C 427.76997919999997 650 368 642.3888416 368 633 Z" stroke-miterlimit="10"/></g><g transform="translate(-78,-166) scale(1,1)"><g><path fill="none" stroke="none"/><text fill="#000000" stroke="none" font-family="Arial" font-size="13px" font-style="normal" font-weight="bold" text-decoration="none" x="417.663330078125" y="640">Acompanhamento do Pedido</text></g></g><g transform="translate(-78,-166) scale(1,1)"><path fill="#C0C0C0" stroke="none" d="M 431 704 C 431 694.6111584 464.57864 687 506 687 C 547.42136 687 581 694.6111584 581 704 C 581 713.3888416 547.42136 721 506 721 C 464.57864 721 431 713.3888416 431 704 Z" opacity="0.2"/></g><g transform="translate(-78,-166) scale(1,1)"><path fill="#ffffff" stroke="none" d="M 424 697 C 424 687.6111584 457.57864 680 499 680 C 540.42136 680 574 687.6111584 574 697 C 574 706.3888416 540.42136 714 499 714 C 457.57864 714 424 706.3888416 424 697 Z"/></g><g transform="translate(-78,-166) scale(1,1)"><path fill="none" stroke="#000000" d="M 424 697 C 424 687.6111584 457.57864 680 499 680 C 540.42136 680 574 687.6111584 574 697 C 574 706.3888416 540.42136 714 499 714 C 457.57864 714 424 706.3888416 424 697 Z" stroke-miterlimit="10"/></g><g transform="translate(-78,-166) scale(1,1)"><g><path fill="none" stroke="none"/><text fill="#000000" stroke="none" font-family="Arial" font-size="13px" font-style="normal" font-weight="bold" text-decoration="none" x="453.1064453125" y="704">Cancela Pedido</text></g></g><g transform="translate(-78,-166) scale(1,1)"><path fill="#C0C0C0" stroke="none" d="M 431 760 C 431 750.6111584 460.3253456 743 496.5 743 C 532.6746544 743 562 750.6111584 562 760 C 562 769.3888416 532.6746544 777 496.5 777 C 460.3253456 777 431 769.3888416 431 760 Z" opacity="0.2"/></g><g transform="translate(-78,-166) scale(1,1)"><path fill="#ffffff" stroke="none" d="M 424 753 C 424 743.6111584 453.3253456 736 489.5 736 C 525.6746544 736 555 743.6111584 555 753 C 555 762.3888416 525.6746544 770 489.5 770 C 453.3253456 770 424 762.3888416 424 753 Z"/></g><g transform="translate(-78,-166) scale(1,1)"><path fill="none" stroke="#000000" d="M 424 753 C 424 743.6111584 453.3253456 736 489.5 736 C 525.6746544 736 555 743.6111584 555 753 C 555 762.3888416 525.6746544 770 489.5 770 C 453.3253456 770 424 762.3888416 424 753 Z" stroke-miterlimit="10"/></g><g transform="translate(-78,-166) scale(1,1)"><g><path fill="none" stroke="none"/><text fill="#000000" stroke="none" font-family="Arial" font-size="13px" font-style="normal" font-weight="bold" text-decoration="none" x="450.474609375" y="760">Altera Pedido</text></g></g><g transform="translate(-78,-166) scale(1,1)"><path fill="#C0C0C0" stroke="none" d="M 735 720 C 735 710.6111584 764.9969184 703 802 703 C 839.0030816 703 869 710.6111584 869 720 C 869 729.3888416 839.0030816 737 802 737 C 764.9969184 737 735 729.3888416 735 720 Z" opacity="0.2"/></g><g transform="translate(-78,-166) scale(1,1)"><path fill="#ffffff" stroke="none" d="M 728 713 C 728 703.6111584 757.9969184 696 795 696 C 832.0030816 696 862 703.6111584 862 713 C 862 722.3888416 832.0030816 730 795 730 C 757.9969184 730 728 722.3888416 728 713 Z"/></g><g transform="translate(-78,-166) scale(1,1)"><path fill="none" stroke="#000000" d="M 728 713 C 728 703.6111584 757.9969184 696 795 696 C 832.0030816 696 862 703.6111584 862 713 C 862 722.3888416 832.0030816 730 795 730 C 757.9969184 730 728 722.3888416 728 713 Z" stroke-miterlimit="10"/></g><g transform="translate(-78,-166) scale(1,1)"><g><path fill="none" stroke="none"/><text fill="#000000" stroke="none" font-family="Arial" font-size="13px" font-style="normal" font-weight="bold" text-decoration="none" x="754.88916015625" y="720">Busca Pedido</text></g></g><g transform="translate(-78,-166) scale(1,1)"><path fill="none" stroke="#000000" d="M 233 573 L 407 565" stroke-miterlimit="10"/></g><g transform="translate(-78,-166) scale(1,1)"><path fill="none" stroke="#000000" d="M 233 556 L 480 467" stroke-miterlimit="10"/></g><g transform="translate(-78,-166) scale(1,1)"><path fill="none" stroke="#000000" d="M 471.8660355192793 474.40531038015115 L 480 467 L 469.0120733711559 466.4847637443479" stroke-miterlimit="10"/></g><g transform="translate(-78,-166) scale(1,1)"><path fill="none" stroke="#000000" d="M 233 585 L 401 615" stroke-miterlimit="10"/></g><g transform="translate(-78,-166) scale(1,1)"><path fill="none" stroke="#000000" d="M 233 595 L 452 679" stroke-miterlimit="10"/></g><g transform="translate(-78,-166) scale(1,1)"><path fill="none" stroke="#000000" d="M 233 606 L 458 735" stroke-miterlimit="10"/></g><g transform="translate(-78,-166) scale(1,1)"><path fill="none" stroke="#000000" d="M 567 651 L 729 695" stroke-miterlimit="10" stroke-dasharray="3"/></g><g transform="translate(-78,-166) scale(1,1)"><path fill="none" stroke="#000000" d="M 718.0892770795699 696.3986155131419 L 729 695 L 720.2959833217011 688.2739243489317" stroke-miterlimit="10"/></g><g transform="translate(-78,-166) scale(1,1)"><g><path fill="none" stroke="none"/><text fill="#000000" stroke="none" font-family="Arial" font-size="13px" font-style="normal" font-weight="normal" text-decoration="none" x="631.5" y="668.5">«include»</text></g></g><g transform="translate(-78,-166) scale(1,1)"><path fill="none" stroke="#000000" d="M 575 701 L 727 709" stroke-miterlimit="10" stroke-dasharray="3"/></g><g transform="translate(-78,-166) scale(1,1)"><path fill="none" stroke="#000000" d="M 716.6301243522015 712.6695611521266 L 727 709 L 717.0726190347331 704.2621621840279" stroke-miterlimit="10"/></g><g transform="translate(-78,-166) scale(1,1)"><g><path fill="none" stroke="none"/><text fill="#000000" stroke="none" font-family="Arial" font-size="13px" font-style="normal" font-weight="normal" text-decoration="none" x="606.5" y="700.5">«include»</text></g></g><g transform="translate(-78,-166) scale(1,1)"><path fill="none" stroke="#000000" d="M 556 744 L 727 722" stroke-miterlimit="10" stroke-dasharray="3"/></g><g transform="translate(-78,-166) scale(1,1)"><path fill="none" stroke="#000000" d="M 717.4575502063037 727.4718965573908 L 727 722 L 716.3832538800629 719.1216842034275" stroke-miterlimit="10"/></g><g transform="translate(-78,-166) scale(1,1)"><g><path fill="none" stroke="none"/><text fill="#000000" stroke="none" font-family="Arial" font-size="13px" font-style="normal" font-weight="normal" text-decoration="none" x="567.5" y="731.5">«include»</text></g></g><g transform="translate(-78,-166) scale(1,1)"><path fill="none" stroke="#000000" d="M 517 543 L 527 467" stroke-miterlimit="10" stroke-dasharray="3"/></g><g transform="translate(-78,-166) scale(1,1)"><path fill="none" stroke="#000000" d="M 529.8477776663918 477.62497822881534 L 527 467 L 521.5006887436625 476.526677054772" stroke-miterlimit="10"/></g><g transform="translate(-78,-166) scale(1,1)"><g><path fill="none" stroke="none"/><text fill="#000000" stroke="none" font-family="Arial" font-size="13px" font-style="normal" font-weight="normal" text-decoration="none" x="465.5" y="507.5">«extend»</text></g></g><g transform="translate(-78,-166) scale(1,1)"><path fill="#ffffff" stroke="none" d="M 967.2679928977273 481.68 C 967.2679928977273 476.886167936 971.1538352226727 473 975.947265625 473 C 980.7406960273273 473 984.6265383522727 476.886167936 984.6265383522727 481.68 C 984.6265383522727 486.473832064 980.7406960273273 490.36 975.947265625 490.36 C 971.1538352226727 490.36 967.2679928977273 486.473832064 967.2679928977273 481.68 Z"/></g><g transform="translate(-78,-166) scale(1,1)"><path fill="none" stroke="#000000" d="M 967.2679928977273 481.68 C 967.2679928977273 476.886167936 971.1538352226727 473 975.947265625 473 C 980.7406960273273 473 984.6265383522727 476.886167936 984.6265383522727 481.68 C 984.6265383522727 486.473832064 980.7406960273273 490.36 975.947265625 490.36 C 971.1538352226727 490.36 967.2679928977273 486.473832064 967.2679928977273 481.68 Z" stroke-miterlimit="10"/></g><g transform="translate(-78,-166) scale(1,1)"><path fill="none" stroke="#000000" d="M 975.947265625 490.36 L 975.947265625 507.64" stroke-miterlimit="10"/></g><g transform="translate(-78,-166) scale(1,1)"><path fill="none" stroke="#000000" d="M 966.7574474431818 496.84 L 985.1370838068182 496.84" stroke-miterlimit="10"/></g><g transform="translate(-78,-166) scale(1,1)"><path fill="none" stroke="#000000" d="M 975.947265625 507.64 L 963.1836292613636 525" stroke-miterlimit="10"/></g><g transform="translate(-78,-166) scale(1,1)"><path fill="none" stroke="#000000" d="M 975.947265625 507.64 L 988.7109019886364 525" stroke-miterlimit="10"/></g><g transform="translate(-78,-166) scale(1,1)"><g><path fill="none" stroke="none"/><text fill="#000000" stroke="none" font-family="Arial" font-size="13px" font-style="normal" font-weight="bold" text-decoration="none" x="950.293212890625" y="545.5">Franquia</text></g></g><g transform="translate(-78,-166) scale(1,1)"><path fill="none" stroke="#000000" d="M 621 462 L 943 507" stroke-miterlimit="10"/></g><g transform="translate(-78,-166) scale(1,1)"><path fill="none" stroke="#000000" d="M 932.3525110970648 509.7624228608004 L 943 507 L 933.5177604567493 501.42441633150275" stroke-miterlimit="10"/></g><g transform="translate(-78,-166) scale(1,1)"><path fill="none" stroke="#000000" d="M 227 241 L 382 211" stroke-miterlimit="10"/></g><g transform="translate(-78,-166) scale(1,1)"><path fill="none" stroke="#000000" d="M 227 247 L 359 248" stroke-miterlimit="10"/></g><g transform="translate(-78,-166) scale(1,1)"><path fill="none" stroke="#000000" d="M 227 254 L 396 295" stroke-miterlimit="10"/></g><g transform="translate(-78,-166) scale(1,1)"><path fill="#C0C0C0" stroke="none" d="M 735 424 C 735 414.6111584 772.6080768 407 819 407 C 865.3919232 407 903 414.6111584 903 424 C 903 433.3888416 865.3919232 441 819 441 C 772.6080768 441 735 433.3888416 735 424 Z" opacity="0.2"/></g><g transform="translate(-78,-166) scale(1,1)"><path fill="#ffffff" stroke="none" d="M 728 417 C 728 407.6111584 765.6080768 400 812 400 C 858.3919232 400 896 407.6111584 896 417 C 896 426.3888416 858.3919232 434 812 434 C 765.6080768 434 728 426.3888416 728 417 Z"/></g><g transform="translate(-78,-166) scale(1,1)"><path fill="none" stroke="#000000" d="M 728 417 C 728 407.6111584 765.6080768 400 812 400 C 858.3919232 400 896 407.6111584 896 417 C 896 426.3888416 858.3919232 434 812 434 C 765.6080768 434 728 426.3888416 728 417 Z" stroke-miterlimit="10"/></g><g transform="translate(-78,-166) scale(1,1)"><g><path fill="none" stroke="none"/><text fill="#000000" stroke="none" font-family="Arial" font-size="13px" font-style="normal" font-weight="bold" text-decoration="none" x="760.69189453125" y="424">Localiza Franquia</text></g></g><g transform="translate(-78,-166) scale(1,1)"><path fill="none" stroke="#000000" d="M 621 439 L 727 427" stroke-miterlimit="10" stroke-dasharray="3"/></g><g transform="translate(-78,-166) scale(1,1)"><path fill="none" stroke="#000000" d="M 717.3753524688839 432.3259891007943 L 727 427 L 716.4283034545201 423.9603894739147" stroke-miterlimit="10"/></g><g transform="translate(-78,-166) scale(1,1)"><g><path fill="none" stroke="none"/><text fill="#000000" stroke="none" font-family="Arial" font-size="13px" font-style="normal" font-weight="normal" text-decoration="none" x="639.5" y="427.5">«include»</text></g></g></g></svg>