<svg version="1.1" xmlns="http://www.w3.org/2000/svg" xmlns:xlink="http://www.w3.org/1999/xlink" width="652.80615234375" height="483"><defs/><g><text fill="#eeeeee" stroke="none" font-family="Arial" font-size="24px" font-style="normal" font-weight="normal" text-decoration="none" x="0" y="0">UNREGISTERED</text><text fill="#eeeeee" stroke="none" font-family="Arial" font-size="24px" font-style="normal" font-weight="normal" text-decoration="none" x="0" y="30">UNREGISTERED</text><text fill="#eeeeee" stroke="none" font-family="Arial" font-size="24px" font-style="normal" font-weight="normal" text-decoration="none" x="0" y="60">UNREGISTERED</text><text fill="#eeeeee" stroke="none" font-family="Arial" font-size="24px" font-style="normal" font-weight="normal" text-decoration="none" x="0" y="90">UNREGISTERED</text><text fill="#eeeeee" stroke="none" font-family="Arial" font-size="24px" font-style="normal" font-weight="normal" text-decoration="none" x="0" y="120">UNREGISTERED</text><text fill="#eeeeee" stroke="none" font-family="Arial" font-size="24px" font-style="normal" font-weight="normal" text-decoration="none" x="0" y="150">UNREGISTERED</text><text fill="#eeeeee" stroke="none" font-family="Arial" font-size="24px" font-style="normal" font-weight="normal" text-decoration="none" x="0" y="180">UNREGISTERED</text><text fill="#eeeeee" stroke="none" font-family="Arial" font-size="24px" font-style="normal" font-weight="normal" text-decoration="none" x="0" y="210">UNREGISTERED</text><text fill="#eeeeee" stroke="none" font-family="Arial" font-size="24px" font-style="normal" font-weight="normal" text-decoration="none" x="0" y="240">UNREGISTERED</text><text fill="#eeeeee" stroke="none" font-family="Arial" font-size="24px" font-style="normal" font-weight="normal" text-decoration="none" x="0" y="270">UNREGISTERED</text><text fill="#eeeeee" stroke="none" font-family="Arial" font-size="24px" font-style="normal" font-weight="normal" text-decoration="none" x="0" y="300">UNREGISTERED</text><text fill="#eeeeee" stroke="none" font-family="Arial" font-size="24px" font-style="normal" font-weight="normal" text-decoration="none" x="0" y="330">UNREGISTERED</text><text fill="#eeeeee" stroke="none" font-family="Arial" font-size="24px" font-style="normal" font-weight="normal" text-decoration="none" x="0" y="360">UNREGISTERED</text><text fill="#eeeeee" stroke="none" font-family="Arial" font-size="24px" font-style="normal" font-weight="normal" text-decoration="none" x="0" y="390">UNREGISTERED</text><text fill="#eeeeee" stroke="none" font-family="Arial" font-size="24px" font-style="normal" font-weight="normal" text-decoration="none" x="0" y="420">UNREGISTERED</text><text fill="#eeeeee" stroke="none" font-family="Arial" font-size="24px" font-style="normal" font-weight="normal" text-decoration="none" x="0" y="450">UNREGISTERED</text><text fill="#eeeeee" stroke="none" font-family="Arial" font-size="24px" font-style="normal" font-weight="normal" text-decoration="none" x="0" y="480">UNREGISTERED</text><text fill="#eeeeee" stroke="none" font-family="Arial" font-size="24px" font-style="normal" font-weight="normal" text-decoration="none" x="200" y="0">UNREGISTERED</text><text fill="#eeeeee" stroke="none" font-family="Arial" font-size="24px" font-style="normal" font-weight="normal" text-decoration="none" x="200" y="30">UNREGISTERED</text><text fill="#eeeeee" stroke="none" font-family="Arial" font-size="24px" font-style="normal" font-weight="normal" text-decoration="none" x="200" y="60">UNREGISTERED</text><text fill="#eeeeee" stroke="none" font-family="Arial" font-size="24px" font-style="normal" font-weight="normal" text-decoration="none" x="200" y="90">UNREGISTERED</text><text fill="#eeeeee" stroke="none" font-family="Arial" font-size="24px" font-style="normal" font-weight="normal" text-decoration="none" x="200" y="120">UNREGISTERED</text><text fill="#eeeeee" stroke="none" font-family="Arial" font-size="24px" font-style="normal" font-weight="normal" text-decoration="none" x="200" y="150">UNREGISTERED</text><text fill="#eeeeee" stroke="none" font-family="Arial" font-size="24px" font-style="normal" font-weight="normal" text-decoration="none" x="200" y="180">UNREGISTERED</text><text fill="#eeeeee" stroke="none" font-family="Arial" font-size="24px" font-style="normal" font-weight="normal" text-decoration="none" x="200" y="210">UNREGISTERED</text><text fill="#eeeeee" stroke="none" font-family="Arial" font-size="24px" font-style="normal" font-weight="normal" text-decoration="none" x="200" y="240">UNREGISTERED</text><text fill="#eeeeee" stroke="none" font-family="Arial" font-size="24px" font-style="normal" font-weight="normal" text-decoration="none" x="200" y="270">UNREGISTERED</text><text fill="#eeeeee" stroke="none" font-family="Arial" font-size="24px" font-style="normal" font-weight="normal" text-decoration="none" x="200" y="300">UNREGISTERED</text><text fill="#eeeeee" stroke="none" font-family="Arial" font-size="24px" font-style="normal" font-weight="normal" text-decoration="none" x="200" y="330">UNREGISTERED</text><text fill="#eeeeee" stroke="none" font-family="Arial" font-size="24px" font-style="normal" font-weight="normal" text-decoration="none" x="200" y="360">UNREGISTERED</text><text fill="#eeeeee" stroke="none" font-family="Arial" font-size="24px" font-style="normal" font-weight="normal" text-decoration="none" x="200" y="390">UNREGISTERED</text><text fill="#eeeeee" stroke="none" font-family="Arial" font-size="24px" font-style="normal" font-weight="normal" text-decoration="none" x="200" y="420">UNREGISTERED</text><text fill="#eeeeee" stroke="none" font-family="Arial" font-size="24px" font-style="normal" font-weight="normal" text-decoration="none" x="200" y="450">UNREGISTERED</text><text fill="#eeeeee" stroke="none" font-family="Arial" font-size="24px" font-style="normal" font-weight="normal" text-decoration="none" x="200" y="480">UNREGISTERED</text><text fill="#eeeeee" stroke="none" font-family="Arial" font-size="24px" font-style="normal" font-weight="normal" text-decoration="none" x="400" y="0">UNREGISTERED</text><text fill="#eeeeee" stroke="none" font-family="Arial" font-size="24px" font-style="normal" font-weight="normal" text-decoration="none" x="400" y="30">UNREGISTERED</text><text fill="#eeeeee" stroke="none" font-family="Arial" font-size="24px" font-style="normal" font-weight="normal" text-decoration="none" x="400" y="60">UNREGISTERED</text><text fill="#eeeeee" stroke="none" font-family="Arial" font-size="24px" font-style="normal" font-weight="normal" text-decoration="none" x="400" y="90">UNREGISTERED</text><text fill="#eeeeee" stroke="none" font-family="Arial" font-size="24px" font-style="normal" font-weight="normal" text-decoration="none" x="400" y="120">UNREGISTERED</text><text fill="#eeeeee" stroke="none" font-family="Arial" font-size="24px" font-style="normal" font-weight="normal" text-decoration="none" x="400" y="150">UNREGISTERED</text><text fill="#eeeeee" stroke="none" font-family="Arial" font-size="24px" font-style="normal" font-weight="normal" text-decoration="none" x="400" y="180">UNREGISTERED</text><text fill="#eeeeee" stroke="none" font-family="Arial" font-size="24px" font-style="normal" font-weight="normal" text-decoration="none" x="400" y="210">UNREGISTERED</text><text fill="#eeeeee" stroke="none" font-family="Arial" font-size="24px" font-style="normal" font-weight="normal" text-decoration="none" x="400" y="240">UNREGISTERED</text><text fill="#eeeeee" stroke="none" font-family="Arial" font-size="24px" font-style="normal" font-weight="normal" text-decoration="none" x="400" y="270">UNREGISTERED</text><text fill="#eeeeee" stroke="none" font-family="Arial" font-size="24px" font-style="normal" font-weight="normal" text-decoration="none" x="400" y="300">UNREGISTERED</text><text fill="#eeeeee" stroke="none" font-family="Arial" font-size="24px" font-style="normal" font-weight="normal" text-decoration="none" x="400" y="330">UNREGISTERED</text><text fill="#eeeeee" stroke="none" font-family="Arial" font-size="24px" font-style="normal" font-weight="normal" text-decoration="none" x="400" y="360">UNREGISTERED</text><text fill="#eeeeee" stroke="none" font-family="Arial" font-size="24px" font-style="normal" font-weight="normal" text-decoration="none" x="400" y="390">UNREGISTERED</text><text fill="#eeeeee" stroke="none" font-family="Arial" font-size="24px" font-style="normal" font-weight="normal" text-decoration="none" x="400" y="420">UNREGISTERED</text><text fill="#eeeeee" stroke="none" font-family="Arial" font-size="24px" font-style="normal" font-weight="normal" text-decoration="none" x="400" y="450">UNREGISTERED</text><text fill="#eeeeee" stroke="none" font-family="Arial" font-size="24px" font-style="normal" font-weight="normal" text-decoration="none" x="400" y="480">UNREGISTERED</text><text fill="#eeeeee" stroke="none" font-family="Arial" font-size="24px" font-style="normal" font-weight="normal" text-decoration="none" x="600" y="0">UNREGISTERED</text><text fill="#eeeeee" stroke="none" font-family="Arial" font-size="24px" font-style="normal" font-weight="normal" text-decoration="none" x="600" y="30">UNREGISTERED</text><text fill="#eeeeee" stroke="none" font-family="Arial" font-size="24px" font-style="normal" font-weight="normal" text-decoration="none" x="600" y="60">UNREGISTERED</text><text fill="#eeeeee" stroke="none" font-family="Arial" font-size="24px" font-style="normal" font-weight="normal" text-decoration="none" x="600" y="90">UNREGISTERED</text><text fill="#eeeeee" stroke="none" font-family="Arial" font-size="24px" font-style="normal" font-weight="normal" text-decoration="none" x="600" y="120">UNREGISTERED</text><text fill="#eeeeee" stroke="none" font-family="Arial" font-size="24px" font-style="normal" font-weight="normal" text-decoration="none" x="600" y="150">UNREGISTERED</text><text fill="#eeeeee" stroke="none" font-family="Arial" font-size="24px" font-style="normal" font-weight="normal" text-decoration="none" x="600" y="180">UNREGISTERED</text><text fill="#eeeeee" stroke="none" font-family="Arial" font-size="24px" font-style="normal" font-weight="normal" text-decoration="none" x="600" y="210">UNREGISTERED</text><text fill="#eeeeee" stroke="none" font-family="Arial" font-size="24px" font-style="normal" font-weight="normal" text-decoration="none" x="600" y="240">UNREGISTERED</text><text fill="#eeeeee" stroke="none" font-family="Arial" font-size="24px" font-style="normal" font-weight="normal" text-decoration="none" x="600" y="270">UNREGISTERED</text><text fill="#eeeeee" stroke="none" font-family="Arial" font-size="24px" font-style="normal" font-weight="normal" text-decoration="none" x="600" y="300">UNREGISTERED</text><text fill="#eeeeee" stroke="none" font-family="Arial" font-size="24px" font-style="normal" font-weight="normal" text-decoration="none" x="600" y="330">UNREGISTERED</text><text fill="#eeeeee" stroke="none" font-family="Arial" font-size="24px" font-style="normal" font-weight="normal" text-decoration="none" x="600" y="360">UNREGISTERED</text><text fill="#eeeeee" stroke="none" font-family="Arial" font-size="24px" font-style="normal" font-weight="normal" text-decoration="none" x="600" y="390">UNREGISTERED</text><text fill="#eeeeee" stroke="none" font-family="Arial" font-size="24px" font-style="normal" font-weight="normal" text-decoration="none" x="600" y="420">UNREGISTERED</text><text fill="#eeeeee" stroke="none" font-family="Arial" font-size="24px" font-style="normal" font-weight="normal" text-decoration="none" x="600" y="450">UNREGISTERED</text><text fill="#eeeeee" stroke="none" font-family="Arial" font-size="24px" font-style="normal" font-weight="normal" text-decoration="none" x="600" y="480">UNREGISTERED</text><g transform="translate(-70,-22) scale(1,1)"><rect fill="#C0C0C0" stroke="none" x="311" y="87" width="139.4189453125" height="115" opacity="0.2"/></g><g transform="translate(-70,-22) scale(1,1)"><rect fill="#ffffff" stroke="none" x="304" y="80" width="139.4189453125" height="115"/></g><g transform="translate(-70,-22) scale(1,1)"><path fill="none" stroke="#000000" d="M 304 80 L 443.4189453125 80 L 443.4189453125 195 L 304 195 L 304 80 Z Z" stroke-miterlimit="10"/></g><g transform="translate(-70,-22) scale(1,1)"><path fill="none" stroke="#000000" d="M 304 105 L 443.4189453125 105" stroke-miterlimit="10"/></g><g transform="translate(-70,-22) scale(1,1)"><path fill="none" stroke="#000000" d="M 304 143 L 443.4189453125 143" stroke-miterlimit="10"/></g><g transform="translate(-70,-22) scale(1,1)"><g><path fill="none" stroke="none"/><text fill="#000000" stroke="none" font-family="Arial" font-size="13px" font-style="normal" font-weight="bold" text-decoration="none" x="353.469970703125" y="99.5">Pedido</text></g></g><g transform="translate(-70,-22) scale(1,1)"><g><path fill="none" stroke="none"/><text fill="#000000" stroke="none" font-family="Arial" font-size="13px" font-style="normal" font-weight="normal" text-decoration="none" x="309" y="122.5">-status</text></g></g><g transform="translate(-70,-22) scale(1,1)"><g><path fill="none" stroke="none"/><text fill="#000000" stroke="none" font-family="Arial" font-size="13px" font-style="normal" font-weight="normal" text-decoration="none" x="309" y="137.5">-dataHoraCriacao</text></g></g><g transform="translate(-70,-22) scale(1,1)"><g><path fill="none" stroke="none"/><text fill="#000000" stroke="none" font-family="Arial" font-size="13px" font-style="normal" font-weight="normal" text-decoration="none" x="309" y="160.5">+alterarStatus()</text></g></g><g transform="translate(-70,-22) scale(1,1)"><g><path fill="none" stroke="none"/><text fill="#000000" stroke="none" font-family="Arial" font-size="13px" font-style="normal" font-weight="normal" text-decoration="none" x="309" y="175.5">+calcularValorTotal()</text></g></g><g transform="translate(-70,-22) scale(1,1)"><g><path fill="none" stroke="none"/><text fill="#000000" stroke="none" font-family="Arial" font-size="13px" font-style="normal" font-weight="normal" text-decoration="none" x="309" y="190.5">+registrarPagamento()</text></g></g><g transform="translate(-70,-22) scale(1,1)"><rect fill="#C0C0C0" stroke="none" x="471" y="263" width="108.0869140625" height="85" opacity="0.2"/></g><g transform="translate(-70,-22) scale(1,1)"><rect fill="#ffffff" stroke="none" x="464" y="256" width="108.0869140625" height="85"/></g><g transform="translate(-70,-22) scale(1,1)"><path fill="none" stroke="#000000" d="M 464 256 L 572.0869140625 256 L 572.0869140625 341 L 464 341 L 464 256 Z Z" stroke-miterlimit="10"/></g><g transform="translate(-70,-22) scale(1,1)"><path fill="none" stroke="#000000" d="M 464 281 L 572.0869140625 281" stroke-miterlimit="10"/></g><g transform="translate(-70,-22) scale(1,1)"><path fill="none" stroke="#000000" d="M 464 304 L 572.0869140625 304" stroke-miterlimit="10"/></g><g transform="translate(-70,-22) scale(1,1)"><g><path fill="none" stroke="none"/><text fill="#000000" stroke="none" font-family="Arial" font-size="13px" font-style="normal" font-weight="bold" text-decoration="none" x="485.16259765625" y="275.5">ItemPedido</text></g></g><g transform="translate(-70,-22) scale(1,1)"><g><path fill="none" stroke="none"/><text fill="#000000" stroke="none" font-family="Arial" font-size="13px" font-style="normal" font-weight="normal" text-decoration="none" x="469" y="298.5">-quantidade</text></g></g><g transform="translate(-70,-22) scale(1,1)"><g><path fill="none" stroke="none"/><text fill="#000000" stroke="none" font-family="Arial" font-size="13px" font-style="normal" font-weight="normal" text-decoration="none" x="469" y="321.5">+calcularValor()</text></g></g><g transform="translate(-70,-22) scale(1,1)"><path fill="none" stroke="#000000" d="M 479 255 L 426 196" stroke-miterlimit="10"/></g><g transform="translate(-70,-22) scale(1,1)"><path fill="#000000" stroke="none" d="M 435.92293627197904 200.74713974328154 L 426 196 L 429.65984082348376 206.37331023091286 L 440.7018919864391 212.36625711697937"/></g><g transform="translate(-70,-22) scale(1,1)"><path fill="none" stroke="#000000" d="M 435.92293627197904 200.74713974328154 L 426 196 L 429.65984082348376 206.37331023091286 L 440.7018919864391 212.36625711697937 L 435.92293627197904 200.74713974328154" stroke-miterlimit="10"/></g><g transform="translate(-70,-22) scale(1,1)"><g><path fill="none" stroke="none"/><text fill="#000000" stroke="none" font-family="Arial" font-size="13px" font-style="normal" font-weight="normal" text-decoration="none" x="479.5" y="252.5">1..*</text></g></g><g transform="translate(-70,-22) scale(1,1)"><g><path fill="none" stroke="none"/><text fill="#000000" stroke="none" font-family="Arial" font-size="13px" font-style="normal" font-weight="normal" text-decoration="none" x="445.5" y="209.5">1</text></g></g><g transform="translate(-70,-22) scale(1,1)"><rect fill="#C0C0C0" stroke="none" x="127" y="415" width="75.8408203125" height="87" opacity="0.2"/></g><g transform="translate(-70,-22) scale(1,1)"><rect fill="#ffffff" stroke="none" x="120" y="408" width="75.8408203125" height="87"/></g><g transform="translate(-70,-22) scale(1,1)"><path fill="none" stroke="#000000" d="M 120 408 L 195.8408203125 408 L 195.8408203125 495 L 120 495 L 120 408 Z Z" stroke-miterlimit="10"/></g><g transform="translate(-70,-22) scale(1,1)"><path fill="none" stroke="#000000" d="M 120 433 L 195.8408203125 433" stroke-miterlimit="10"/></g><g transform="translate(-70,-22) scale(1,1)"><path fill="none" stroke="#000000" d="M 120 471 L 195.8408203125 471" stroke-miterlimit="10"/></g><g transform="translate(-70,-22) scale(1,1)"><g><path fill="none" stroke="none"/><text fill="#000000" stroke="none" font-family="Arial" font-size="13px" font-style="normal" font-weight="bold" text-decoration="none" x="142.02587890625" y="427.5">Pizza</text></g></g><g transform="translate(-70,-22) scale(1,1)"><g><path fill="none" stroke="none"/><text fill="#000000" stroke="none" font-family="Arial" font-size="13px" font-style="normal" font-weight="normal" text-decoration="none" x="125" y="450.5">-tipoMassa</text></g></g><g transform="translate(-70,-22) scale(1,1)"><g><path fill="none" stroke="none"/><text fill="#000000" stroke="none" font-family="Arial" font-size="13px" font-style="normal" font-weight="normal" text-decoration="none" x="125" y="465.5">-ehMetade</text></g></g><g transform="translate(-70,-22) scale(1,1)"><path fill="none" stroke="#000000" d="M 197 419 L 240 384" stroke-miterlimit="10"/></g><g transform="translate(-70,-22) scale(1,1)"><path fill="#FFFFFF" stroke="none" d="M 229.55112736931483 403.3602959881227 L 240 384 L 218.92173472810777 390.30132788606824"/></g><g transform="translate(-70,-22) scale(1,1)"><path fill="none" stroke="#000000" d="M 229.55112736931483 403.3602959881227 L 240 384 L 218.92173472810777 390.30132788606824 L 229.55112736931483 403.3602959881227" stroke-miterlimit="10"/></g><g transform="translate(-70,-22) scale(1,1)"><rect fill="#C0C0C0" stroke="none" x="383" y="423" width="72.2353515625" height="72" opacity="0.2"/></g><g transform="translate(-70,-22) scale(1,1)"><rect fill="#ffffff" stroke="none" x="376" y="416" width="72.2353515625" height="72"/></g><g transform="translate(-70,-22) scale(1,1)"><path fill="none" stroke="#000000" d="M 376 416 L 448.2353515625 416 L 448.2353515625 488 L 376 488 L 376 416 Z Z" stroke-miterlimit="10"/></g><g transform="translate(-70,-22) scale(1,1)"><path fill="none" stroke="#000000" d="M 376 441 L 448.2353515625 441" stroke-miterlimit="10"/></g><g transform="translate(-70,-22) scale(1,1)"><path fill="none" stroke="#000000" d="M 376 464 L 448.2353515625 464" stroke-miterlimit="10"/></g><g transform="translate(-70,-22) scale(1,1)"><g><path fill="none" stroke="none"/><text fill="#000000" stroke="none" font-family="Arial" font-size="13px" font-style="normal" font-weight="bold" text-decoration="none" x="391.878173828125" y="435.5">Bebida</text></g></g><g transform="translate(-70,-22) scale(1,1)"><g><path fill="none" stroke="none"/><text fill="#000000" stroke="none" font-family="Arial" font-size="13px" font-style="normal" font-weight="normal" text-decoration="none" x="381" y="458.5">-litros</text></g></g><g transform="translate(-70,-22) scale(1,1)"><path fill="none" stroke="#000000" d="M 375 416 L 342 384" stroke-miterlimit="10"/></g><g transform="translate(-70,-22) scale(1,1)"><path fill="#FFFFFF" stroke="none" d="M 362.45245307306516 392.10537866444673 L 342 384 L 350.73070004214895 404.19343647757904"/></g><g transform="translate(-70,-22) scale(1,1)"><path fill="none" stroke="#000000" d="M 362.45245307306516 392.10537866444673 L 342 384 L 350.73070004214895 404.19343647757904 L 362.45245307306516 392.10537866444673" stroke-miterlimit="10"/></g><g transform="translate(-70,-22) scale(1,1)"><rect fill="#C0C0C0" stroke="none" x="87" y="87" width="72.2353515625" height="102" opacity="0.2"/></g><g transform="translate(-70,-22) scale(1,1)"><rect fill="#ffffff" stroke="none" x="80" y="80" width="72.2353515625" height="102"/></g><g transform="translate(-70,-22) scale(1,1)"><path fill="none" stroke="#000000" d="M 80 80 L 152.2353515625 80 L 152.2353515625 182 L 80 182 L 80 80 Z Z" stroke-miterlimit="10"/></g><g transform="translate(-70,-22) scale(1,1)"><path fill="none" stroke="#000000" d="M 80 105 L 152.2353515625 105" stroke-miterlimit="10"/></g><g transform="translate(-70,-22) scale(1,1)"><path fill="none" stroke="#000000" d="M 80 173 L 152.2353515625 173" stroke-miterlimit="10"/></g><g transform="translate(-70,-22) scale(1,1)"><g><path fill="none" stroke="none"/><text fill="#000000" stroke="none" font-family="Arial" font-size="13px" font-style="normal" font-weight="bold" text-decoration="none" x="95.884521484375" y="99.5">Cliente</text></g></g><g transform="translate(-70,-22) scale(1,1)"><g><path fill="none" stroke="none"/><text fill="#000000" stroke="none" font-family="Arial" font-size="13px" font-style="normal" font-weight="normal" text-decoration="none" x="85" y="122.5">-nome</text></g></g><g transform="translate(-70,-22) scale(1,1)"><g><path fill="none" stroke="none"/><text fill="#000000" stroke="none" font-family="Arial" font-size="13px" font-style="normal" font-weight="normal" text-decoration="none" x="85" y="137.5">-cpf</text></g></g><g transform="translate(-70,-22) scale(1,1)"><g><path fill="none" stroke="none"/><text fill="#000000" stroke="none" font-family="Arial" font-size="13px" font-style="normal" font-weight="normal" text-decoration="none" x="85" y="152.5">-telefone</text></g></g><g transform="translate(-70,-22) scale(1,1)"><g><path fill="none" stroke="none"/><text fill="#000000" stroke="none" font-family="Arial" font-size="13px" font-style="normal" font-weight="normal" text-decoration="none" x="85" y="167.5">-endereco</text></g></g><g transform="translate(-70,-22) scale(1,1)"><path fill="none" stroke="#000000" d="M 153 132 L 303 135" stroke-miterlimit="10"/></g><g transform="translate(-70,-22) scale(1,1)"><g><path fill="none" stroke="none"/><text fill="#000000" stroke="none" font-family="Arial" font-size="13px" font-style="normal" font-weight="normal" text-decoration="none" x="170.5" y="150.5">1</text></g></g><g transform="translate(-70,-22) scale(1,1)"><g><path fill="none" stroke="none"/><text fill="#000000" stroke="none" font-family="Arial" font-size="13px" font-style="normal" font-weight="normal" text-decoration="none" x="271.5" y="153.5">0..*</text></g></g><g transform="translate(-70,-22) scale(1,1)"><rect fill="#C0C0C0" stroke="none" x="567" y="95" width="152.80615234375" height="85" opacity="0.2"/></g><g transform="translate(-70,-22) scale(1,1)"><rect fill="#ffffff" stroke="none" x="560" y="88" width="152.80615234375" height="85"/></g><g transform="translate(-70,-22) scale(1,1)"><path fill="none" stroke="#000000" d="M 560 88 L 712.80615234375 88 L 712.80615234375 173 L 560 173 L 560 88 Z Z" stroke-miterlimit="10"/></g><g transform="translate(-70,-22) scale(1,1)"><path fill="none" stroke="#000000" d="M 560 113 L 712.80615234375 113" stroke-miterlimit="10"/></g><g transform="translate(-70,-22) scale(1,1)"><path fill="none" stroke="#000000" d="M 560 151 L 712.80615234375 151" stroke-miterlimit="10"/></g><g transform="translate(-70,-22) scale(1,1)"><g><path fill="none" stroke="none"/><text fill="#000000" stroke="none" font-family="Arial" font-size="13px" font-style="normal" font-weight="bold" text-decoration="none" x="610.7490234375" y="107.5">Franquia</text></g></g><g transform="translate(-70,-22) scale(1,1)"><g><path fill="none" stroke="none"/><text fill="#000000" stroke="none" font-family="Arial" font-size="13px" font-style="normal" font-weight="normal" text-decoration="none" x="565" y="130.5">-endereco</text></g></g><g transform="translate(-70,-22) scale(1,1)"><g><path fill="none" stroke="none"/><text fill="#000000" stroke="none" font-family="Arial" font-size="13px" font-style="normal" font-weight="normal" text-decoration="none" x="565" y="145.5">-regiaoCoberturaEntrega</text></g></g><g transform="translate(-70,-22) scale(1,1)"><g><path fill="none" stroke="none"/><text fill="#000000" stroke="none" font-family="Arial" font-size="13px" font-style="normal" font-weight="normal" text-decoration="none" x="565" y="168.5">+entregar()</text></g></g><g transform="translate(-70,-22) scale(1,1)"><path fill="none" stroke="#000000" d="M 559 132 L 444 135" stroke-miterlimit="10"/></g><g transform="translate(-70,-22) scale(1,1)"><g><path fill="none" stroke="none"/><text fill="#000000" stroke="none" font-family="Arial" font-size="13px" font-style="normal" font-weight="normal" text-decoration="none" x="533.5" y="126.5">1</text></g></g><g transform="translate(-70,-22) scale(1,1)"><g><path fill="none" stroke="none"/><text fill="#000000" stroke="none" font-family="Arial" font-size="13px" font-style="normal" font-weight="normal" text-decoration="none" x="455.5" y="127.5">0..*</text></g></g><g transform="translate(-70,-22) scale(1,1)"><g><path fill="none" stroke="none"/><text fill="#000000" stroke="none" font-family="Arial" font-size="15px" font-style="normal" font-weight="normal" text-decoration="none" x="253" y="52">Caso de Uso: Inserção de Pedidos</text></g></g><g transform="translate(-70,-22) scale(1,1)"><rect fill="#C0C0C0" stroke="none" x="255" y="423" width="79.0908203125" height="72" opacity="0.2"/></g><g transform="translate(-70,-22) scale(1,1)"><rect fill="#ffffff" stroke="none" x="248" y="416" width="79.0908203125" height="72"/></g><g transform="translate(-70,-22) scale(1,1)"><path fill="none" stroke="#000000" d="M 248 416 L 327.0908203125 416 L 327.0908203125 488 L 248 488 L 248 416 Z Z" stroke-miterlimit="10"/></g><g transform="translate(-70,-22) scale(1,1)"><path fill="none" stroke="#000000" d="M 248 441 L 327.0908203125 441" stroke-miterlimit="10"/></g><g transform="translate(-70,-22) scale(1,1)"><path fill="none" stroke="#000000" d="M 248 464 L 327.0908203125 464" stroke-miterlimit="10"/></g><g transform="translate(-70,-22) scale(1,1)"><g><path fill="none" stroke="none"/><text fill="#000000" stroke="none" font-family="Arial" font-size="13px" font-style="normal" font-weight="bold" text-decoration="none" x="254.305908203125" y="435.5">Sobremesa</text></g></g><g transform="translate(-70,-22) scale(1,1)"><g><path fill="none" stroke="none"/><text fill="#000000" stroke="none" font-family="Arial" font-size="13px" font-style="normal" font-weight="normal" text-decoration="none" x="253" y="458.5">-tamanho</text></g></g><g transform="translate(-70,-22) scale(1,1)"><path fill="none" stroke="#000000" d="M 290 415 L 292 384" stroke-miterlimit="10"/></g><g transform="translate(-70,-22) scale(1,1)"><path fill="#FFFFFF" stroke="none" d="M 299.09297629878796 404.8252175792915 L 292 384 L 282.2898390696661 403.7411442096708"/></g><g transform="translate(-70,-22) scale(1,1)"><path fill="none" stroke="#000000" d="M 299.09297629878796 404.8252175792915 L 292 384 L 282.2898390696661 403.7411442096708 L 299.09297629878796 404.8252175792915" stroke-miterlimit="10"/></g><g transform="translate(-70,-22) scale(1,1)"><rect fill="#C0C0C0" stroke="none" x="247" y="303" width="110.537109375" height="87" opacity="0.2"/></g><g transform="translate(-70,-22) scale(1,1)"><rect fill="#ffffff" stroke="none" x="240" y="296" width="110.537109375" height="87"/></g><g transform="translate(-70,-22) scale(1,1)"><path fill="none" stroke="#000000" d="M 240 296 L 350.537109375 296 L 350.537109375 383 L 240 383 L 240 296 Z Z" stroke-miterlimit="10"/></g><g transform="translate(-70,-22) scale(1,1)"><path fill="none" stroke="#000000" d="M 240 321 L 350.537109375 321" stroke-miterlimit="10"/></g><g transform="translate(-70,-22) scale(1,1)"><path fill="none" stroke="#000000" d="M 240 374 L 350.537109375 374" stroke-miterlimit="10"/></g><g transform="translate(-70,-22) scale(1,1)"><g><path fill="none" stroke="none"/><text fill="#000000" stroke="none" font-family="Arial" font-size="13px" font-style="normal" font-weight="bold" text-decoration="none" x="282.627197265625" y="315.5">Item</text></g></g><g transform="translate(-70,-22) scale(1,1)"><g><path fill="none" stroke="none"/><text fill="#000000" stroke="none" font-family="Arial" font-size="13px" font-style="normal" font-weight="normal" text-decoration="none" x="245" y="338.5">-nome</text></g></g><g transform="translate(-70,-22) scale(1,1)"><g><path fill="none" stroke="none"/><text fill="#000000" stroke="none" font-family="Arial" font-size="13px" font-style="normal" font-weight="normal" text-decoration="none" x="245" y="353.5">-valorUnitario</text></g></g><g transform="translate(-70,-22) scale(1,1)"><g><path fill="none" stroke="none"/><text fill="#000000" stroke="none" font-family="Arial" font-size="13px" font-style="normal" font-weight="normal" text-decoration="none" x="245" y="368.5">-estaNoCardapio</text></g></g><g transform="translate(-70,-22) scale(1,1)"><path fill="none" stroke="#000000" d="M 352 329 L 463 308" stroke-miterlimit="10"/></g><g transform="translate(-70,-22) scale(1,1)"><g><path fill="none" stroke="none"/><text fill="#000000" stroke="none" font-family="Arial" font-size="13px" font-style="normal" font-weight="normal" text-decoration="none" x="371.5" y="343.5">1</text></g></g><g transform="translate(-70,-22) scale(1,1)"><g><path fill="none" stroke="none"/><text fill="#000000" stroke="none" font-family="Arial" font-size="13px" font-style="normal" font-weight="normal" text-decoration="none" x="434.5" y="330.5">0..*</text></g></g></g></svg>