<svg version="1.1" xmlns="http://www.w3.org/2000/svg" xmlns:xlink="http://www.w3.org/1999/xlink" width="919" height="580"><defs/><g><text fill="#eeeeee" stroke="none" font-family="Arial" font-size="24px" font-style="normal" font-weight="normal" text-decoration="none" x="0" y="0">UNREGISTERED</text><text fill="#eeeeee" stroke="none" font-family="Arial" font-size="24px" font-style="normal" font-weight="normal" text-decoration="none" x="0" y="30">UNREGISTERED</text><text fill="#eeeeee" stroke="none" font-family="Arial" font-size="24px" font-style="normal" font-weight="normal" text-decoration="none" x="0" y="60">UNREGISTERED</text><text fill="#eeeeee" stroke="none" font-family="Arial" font-size="24px" font-style="normal" font-weight="normal" text-decoration="none" x="0" y="90">UNREGISTERED</text><text fill="#eeeeee" stroke="none" font-family="Arial" font-size="24px" font-style="normal" font-weight="normal" text-decoration="none" x="0" y="120">UNREGISTERED</text><text fill="#eeeeee" stroke="none" font-family="Arial" font-size="24px" font-style="normal" font-weight="normal" text-decoration="none" x="0" y="150">UNREGISTERED</text><text fill="#eeeeee" stroke="none" font-family="Arial" font-size="24px" font-style="normal" font-weight="normal" text-decoration="none" x="0" y="180">UNREGISTERED</text><text fill="#eeeeee" stroke="none" font-family="Arial" font-size="24px" font-style="normal" font-weight="normal" text-decoration="none" x="0" y="210">UNREGISTERED</text><text fill="#eeeeee" stroke="none" font-family="Arial" font-size="24px" font-style="normal" font-weight="normal" text-decoration="none" x="0" y="240">UNREGISTERED</text><text fill="#eeeeee" stroke="none" font-family="Arial" font-size="24px" font-style="normal" font-weight="normal" text-decoration="none" x="0" y="270">UNREGISTERED</text><text fill="#eeeeee" stroke="none" font-family="Arial" font-size="24px" font-style="normal" font-weight="normal" text-decoration="none" x="0" y="300">UNREGISTERED</text><text fill="#eeeeee" stroke="none" font-family="Arial" font-size="24px" font-style="normal" font-weight="normal" text-decoration="none" x="0" y="330">UNREGISTERED</text><text fill="#eeeeee" stroke="none" font-family="Arial" font-size="24px" font-style="normal" font-weight="normal" text-decoration="none" x="0" y="360">UNREGISTERED</text><text fill="#eeeeee" stroke="none" font-family="Arial" font-size="24px" font-style="normal" font-weight="normal" text-decoration="none" x="0" y="390">UNREGISTERED</text><text fill="#eeeeee" stroke="none" font-family="Arial" font-size="24px" font-style="normal" font-weight="normal" text-decoration="none" x="0" y="420">UNREGISTERED</text><text fill="#eeeeee" stroke="none" font-family="Arial" font-size="24px" font-style="normal" font-weight="normal" text-decoration="none" x="0" y="450">UNREGISTERED</text><text fill="#eeeeee" stroke="none" font-family="Arial" font-size="24px" font-style="normal" font-weight="normal" text-decoration="none" x="0" y="480">UNREGISTERED</text><text fill="#eeeeee" stroke="none" font-family="Arial" font-size="24px" font-style="normal" font-weight="normal" text-decoration="none" x="0" y="510">UNREGISTERED</text><text fill="#eeeeee" stroke="none" font-family="Arial" font-size="24px" font-style="normal" font-weight="normal" text-decoration="none" x="0" y="540">UNREGISTERED</text><text fill="#eeeeee" stroke="none" font-family="Arial" font-size="24px" font-style="normal" font-weight="normal" text-decoration="none" x="0" y="570">UNREGISTERED</text><text fill="#eeeeee" stroke="none" font-family="Arial" font-size="24px" font-style="normal" font-weight="normal" text-decoration="none" x="200" y="0">UNREGISTERED</text><text fill="#eeeeee" stroke="none" font-family="Arial" font-size="24px" font-style="normal" font-weight="normal" text-decoration="none" x="200" y="30">UNREGISTERED</text><text fill="#eeeeee" stroke="none" font-family="Arial" font-size="24px" font-style="normal" font-weight="normal" text-decoration="none" x="200" y="60">UNREGISTERED</text><text fill="#eeeeee" stroke="none" font-family="Arial" font-size="24px" font-style="normal" font-weight="normal" text-decoration="none" x="200" y="90">UNREGISTERED</text><text fill="#eeeeee" stroke="none" font-family="Arial" font-size="24px" font-style="normal" font-weight="normal" text-decoration="none" x="200" y="120">UNREGISTERED</text><text fill="#eeeeee" stroke="none" font-family="Arial" font-size="24px" font-style="normal" font-weight="normal" text-decoration="none" x="200" y="150">UNREGISTERED</text><text fill="#eeeeee" stroke="none" font-family="Arial" font-size="24px" font-style="normal" font-weight="normal" text-decoration="none" x="200" y="180">UNREGISTERED</text><text fill="#eeeeee" stroke="none" font-family="Arial" font-size="24px" font-style="normal" font-weight="normal" text-decoration="none" x="200" y="210">UNREGISTERED</text><text fill="#eeeeee" stroke="none" font-family="Arial" font-size="24px" font-style="normal" font-weight="normal" text-decoration="none" x="200" y="240">UNREGISTERED</text><text fill="#eeeeee" stroke="none" font-family="Arial" font-size="24px" font-style="normal" font-weight="normal" text-decoration="none" x="200" y="270">UNREGISTERED</text><text fill="#eeeeee" stroke="none" font-family="Arial" font-size="24px" font-style="normal" font-weight="normal" text-decoration="none" x="200" y="300">UNREGISTERED</text><text fill="#eeeeee" stroke="none" font-family="Arial" font-size="24px" font-style="normal" font-weight="normal" text-decoration="none" x="200" y="330">UNREGISTERED</text><text fill="#eeeeee" stroke="none" font-family="Arial" font-size="24px" font-style="normal" font-weight="normal" text-decoration="none" x="200" y="360">UNREGISTERED</text><text fill="#eeeeee" stroke="none" font-family="Arial" font-size="24px" font-style="normal" font-weight="normal" text-decoration="none" x="200" y="390">UNREGISTERED</text><text fill="#eeeeee" stroke="none" font-family="Arial" font-size="24px" font-style="normal" font-weight="normal" text-decoration="none" x="200" y="420">UNREGISTERED</text><text fill="#eeeeee" stroke="none" font-family="Arial" font-size="24px" font-style="normal" font-weight="normal" text-decoration="none" x="200" y="450">UNREGISTERED</text><text fill="#eeeeee" stroke="none" font-family="Arial" font-size="24px" font-style="normal" font-weight="normal" text-decoration="none" x="200" y="480">UNREGISTERED</text><text fill="#eeeeee" stroke="none" font-family="Arial" font-size="24px" font-style="normal" font-weight="normal" text-decoration="none" x="200" y="510">UNREGISTERED</text><text fill="#eeeeee" stroke="none" font-family="Arial" font-size="24px" font-style="normal" font-weight="normal" text-decoration="none" x="200" y="540">UNREGISTERED</text><text fill="#eeeeee" stroke="none" font-family="Arial" font-size="24px" font-style="normal" font-weight="normal" text-decoration="none" x="200" y="570">UNREGISTERED</text><text fill="#eeeeee" stroke="none" font-family="Arial" font-size="24px" font-style="normal" font-weight="normal" text-decoration="none" x="400" y="0">UNREGISTERED</text><text fill="#eeeeee" stroke="none" font-family="Arial" font-size="24px" font-style="normal" font-weight="normal" text-decoration="none" x="400" y="30">UNREGISTERED</text><text fill="#eeeeee" stroke="none" font-family="Arial" font-size="24px" font-style="normal" font-weight="normal" text-decoration="none" x="400" y="60">UNREGISTERED</text><text fill="#eeeeee" stroke="none" font-family="Arial" font-size="24px" font-style="normal" font-weight="normal" text-decoration="none" x="400" y="90">UNREGISTERED</text><text fill="#eeeeee" stroke="none" font-family="Arial" font-size="24px" font-style="normal" font-weight="normal" text-decoration="none" x="400" y="120">UNREGISTERED</text><text fill="#eeeeee" stroke="none" font-family="Arial" font-size="24px" font-style="normal" font-weight="normal" text-decoration="none" x="400" y="150">UNREGISTERED</text><text fill="#eeeeee" stroke="none" font-family="Arial" font-size="24px" font-style="normal" font-weight="normal" text-decoration="none" x="400" y="180">UNREGISTERED</text><text fill="#eeeeee" stroke="none" font-family="Arial" font-size="24px" font-style="normal" font-weight="normal" text-decoration="none" x="400" y="210">UNREGISTERED</text><text fill="#eeeeee" stroke="none" font-family="Arial" font-size="24px" font-style="normal" font-weight="normal" text-decoration="none" x="400" y="240">UNREGISTERED</text><text fill="#eeeeee" stroke="none" font-family="Arial" font-size="24px" font-style="normal" font-weight="normal" text-decoration="none" x="400" y="270">UNREGISTERED</text><text fill="#eeeeee" stroke="none" font-family="Arial" font-size="24px" font-style="normal" font-weight="normal" text-decoration="none" x="400" y="300">UNREGISTERED</text><text fill="#eeeeee" stroke="none" font-family="Arial" font-size="24px" font-style="normal" font-weight="normal" text-decoration="none" x="400" y="330">UNREGISTERED</text><text fill="#eeeeee" stroke="none" font-family="Arial" font-size="24px" font-style="normal" font-weight="normal" text-decoration="none" x="400" y="360">UNREGISTERED</text><text fill="#eeeeee" stroke="none" font-family="Arial" font-size="24px" font-style="normal" font-weight="normal" text-decoration="none" x="400" y="390">UNREGISTERED</text><text fill="#eeeeee" stroke="none" font-family="Arial" font-size="24px" font-style="normal" font-weight="normal" text-decoration="none" x="400" y="420">UNREGISTERED</text><text fill="#eeeeee" stroke="none" font-family="Arial" font-size="24px" font-style="normal" font-weight="normal" text-decoration="none" x="400" y="450">UNREGISTERED</text><text fill="#eeeeee" stroke="none" font-family="Arial" font-size="24px" font-style="normal" font-weight="normal" text-decoration="none" x="400" y="480">UNREGISTERED</text><text fill="#eeeeee" stroke="none" font-family="Arial" font-size="24px" font-style="normal" font-weight="normal" text-decoration="none" x="400" y="510">UNREGISTERED</text><text fill="#eeeeee" stroke="none" font-family="Arial" font-size="24px" font-style="normal" font-weight="normal" text-decoration="none" x="400" y="540">UNREGISTERED</text><text fill="#eeeeee" stroke="none" font-family="Arial" font-size="24px" font-style="normal" font-weight="normal" text-decoration="none" x="400" y="570">UNREGISTERED</text><text fill="#eeeeee" stroke="none" font-family="Arial" font-size="24px" font-style="normal" font-weight="normal" text-decoration="none" x="600" y="0">UNREGISTERED</text><text fill="#eeeeee" stroke="none" font-family="Arial" font-size="24px" font-style="normal" font-weight="normal" text-decoration="none" x="600" y="30">UNREGISTERED</text><text fill="#eeeeee" stroke="none" font-family="Arial" font-size="24px" font-style="normal" font-weight="normal" text-decoration="none" x="600" y="60">UNREGISTERED</text><text fill="#eeeeee" stroke="none" font-family="Arial" font-size="24px" font-style="normal" font-weight="normal" text-decoration="none" x="600" y="90">UNREGISTERED</text><text fill="#eeeeee" stroke="none" font-family="Arial" font-size="24px" font-style="normal" font-weight="normal" text-decoration="none" x="600" y="120">UNREGISTERED</text><text fill="#eeeeee" stroke="none" font-family="Arial" font-size="24px" font-style="normal" font-weight="normal" text-decoration="none" x="600" y="150">UNREGISTERED</text><text fill="#eeeeee" stroke="none" font-family="Arial" font-size="24px" font-style="normal" font-weight="normal" text-decoration="none" x="600" y="180">UNREGISTERED</text><text fill="#eeeeee" stroke="none" font-family="Arial" font-size="24px" font-style="normal" font-weight="normal" text-decoration="none" x="600" y="210">UNREGISTERED</text><text fill="#eeeeee" stroke="none" font-family="Arial" font-size="24px" font-style="normal" font-weight="normal" text-decoration="none" x="600" y="240">UNREGISTERED</text><text fill="#eeeeee" stroke="none" font-family="Arial" font-size="24px" font-style="normal" font-weight="normal" text-decoration="none" x="600" y="270">UNREGISTERED</text><text fill="#eeeeee" stroke="none" font-family="Arial" font-size="24px" font-style="normal" font-weight="normal" text-decoration="none" x="600" y="300">UNREGISTERED</text><text fill="#eeeeee" stroke="none" font-family="Arial" font-size="24px" font-style="normal" font-weight="normal" text-decoration="none" x="600" y="330">UNREGISTERED</text><text fill="#eeeeee" stroke="none" font-family="Arial" font-size="24px" font-style="normal" font-weight="normal" text-decoration="none" x="600" y="360">UNREGISTERED</text><text fill="#eeeeee" stroke="none" font-family="Arial" font-size="24px" font-style="normal" font-weight="normal" text-decoration="none" x="600" y="390">UNREGISTERED</text><text fill="#eeeeee" stroke="none" font-family="Arial" font-size="24px" font-style="normal" font-weight="normal" text-decoration="none" x="600" y="420">UNREGISTERED</text><text fill="#eeeeee" stroke="none" font-family="Arial" font-size="24px" font-style="normal" font-weight="normal" text-decoration="none" x="600" y="450">UNREGISTERED</text><text fill="#eeeeee" stroke="none" font-family="Arial" font-size="24px" font-style="normal" font-weight="normal" text-decoration="none" x="600" y="480">UNREGISTERED</text><text fill="#eeeeee" stroke="none" font-family="Arial" font-size="24px" font-style="normal" font-weight="normal" text-decoration="none" x="600" y="510">UNREGISTERED</text><text fill="#eeeeee" stroke="none" font-family="Arial" font-size="24px" font-style="normal" font-weight="normal" text-decoration="none" x="600" y="540">UNREGISTERED</text><text fill="#eeeeee" stroke="none" font-family="Arial" font-size="24px" font-style="normal" font-weight="normal" text-decoration="none" x="600" y="570">UNREGISTERED</text><text fill="#eeeeee" stroke="none" font-family="Arial" font-size="24px" font-style="normal" font-weight="normal" text-decoration="none" x="800" y="0">UNREGISTERED</text><text fill="#eeeeee" stroke="none" font-family="Arial" font-size="24px" font-style="normal" font-weight="normal" text-decoration="none" x="800" y="30">UNREGISTERED</text><text fill="#eeeeee" stroke="none" font-family="Arial" font-size="24px" font-style="normal" font-weight="normal" text-decoration="none" x="800" y="60">UNREGISTERED</text><text fill="#eeeeee" stroke="none" font-family="Arial" font-size="24px" font-style="normal" font-weight="normal" text-decoration="none" x="800" y="90">UNREGISTERED</text><text fill="#eeeeee" stroke="none" font-family="Arial" font-size="24px" font-style="normal" font-weight="normal" text-decoration="none" x="800" y="120">UNREGISTERED</text><text fill="#eeeeee" stroke="none" font-family="Arial" font-size="24px" font-style="normal" font-weight="normal" text-decoration="none" x="800" y="150">UNREGISTERED</text><text fill="#eeeeee" stroke="none" font-family="Arial" font-size="24px" font-style="normal" font-weight="normal" text-decoration="none" x="800" y="180">UNREGISTERED</text><text fill="#eeeeee" stroke="none" font-family="Arial" font-size="24px" font-style="normal" font-weight="normal" text-decoration="none" x="800" y="210">UNREGISTERED</text><text fill="#eeeeee" stroke="none" font-family="Arial" font-size="24px" font-style="normal" font-weight="normal" text-decoration="none" x="800" y="240">UNREGISTERED</text><text fill="#eeeeee" stroke="none" font-family="Arial" font-size="24px" font-style="normal" font-weight="normal" text-decoration="none" x="800" y="270">UNREGISTERED</text><text fill="#eeeeee" stroke="none" font-family="Arial" font-size="24px" font-style="normal" font-weight="normal" text-decoration="none" x="800" y="300">UNREGISTERED</text><text fill="#eeeeee" stroke="none" font-family="Arial" font-size="24px" font-style="normal" font-weight="normal" text-decoration="none" x="800" y="330">UNREGISTERED</text><text fill="#eeeeee" stroke="none" font-family="Arial" font-size="24px" font-style="normal" font-weight="normal" text-decoration="none" x="800" y="360">UNREGISTERED</text><text fill="#eeeeee" stroke="none" font-family="Arial" font-size="24px" font-style="normal" font-weight="normal" text-decoration="none" x="800" y="390">UNREGISTERED</text><text fill="#eeeeee" stroke="none" font-family="Arial" font-size="24px" font-style="normal" font-weight="normal" text-decoration="none" x="800" y="420">UNREGISTERED</text><text fill="#eeeeee" stroke="none" font-family="Arial" font-size="24px" font-style="normal" font-weight="normal" text-decoration="none" x="800" y="450">UNREGISTERED</text><text fill="#eeeeee" stroke="none" font-family="Arial" font-size="24px" font-style="normal" font-weight="normal" text-decoration="none" x="800" y="480">UNREGISTERED</text><text fill="#eeeeee" stroke="none" font-family="Arial" font-size="24px" font-style="normal" font-weight="normal" text-decoration="none" x="800" y="510">UNREGISTERED</text><text fill="#eeeeee" stroke="none" font-family="Arial" font-size="24px" font-style="normal" font-weight="normal" text-decoration="none" x="800" y="540">UNREGISTERED</text><text fill="#eeeeee" stroke="none" font-family="Arial" font-size="24px" font-style="normal" font-weight="normal" text-decoration="none" x="800" y="570">UNREGISTERED</text><g transform="translate(-110,2) scale(1,1)"><path fill="none" stroke="#000000" d="M 120 8 L 1019 8 L 1019 568 L 120 568 L 120 8" stroke-miterlimit="10"/></g><g transform="translate(-110,2) scale(1,1)"><path fill="#ffffff" stroke="none" d="M 120 8 L 120 30 L 308.00244140625 30 L 319.00244140625 19 L 319.00244140625 8 L 120 8"/></g><g transform="translate(-110,2) scale(1,1)"><path fill="none" stroke="#000000" d="M 120 8 L 120 30 L 308.00244140625 30 L 319.00244140625 19 L 319.00244140625 8 L 120 8 L 120 8" stroke-miterlimit="10"/></g><g transform="translate(-110,2) scale(1,1)"><g><path fill="none" stroke="none"/><text fill="#000000" stroke="none" font-family="Arial" font-size="13px" font-style="normal" font-weight="normal" text-decoration="none" x="190.97900390625" y="25.5">Inserção de Pedido</text></g></g><g transform="translate(-110,2) scale(1,1)"><g><path fill="none" stroke="none"/><text fill="#000000" stroke="none" font-family="Arial" font-size="13px" font-style="normal" font-weight="bold" text-decoration="none" x="125" y="25.5">interaction</text></g></g><g transform="translate(-110,2) scale(1,1)"><rect fill="#C0C0C0" stroke="none" x="167" y="47" width="85.23779296875" height="39" opacity="0.2"/></g><g transform="translate(-110,2) scale(1,1)"><rect fill="#ffffff" stroke="none" x="160" y="40" width="85.23779296875" height="39"/></g><g transform="translate(-110,2) scale(1,1)"><path fill="none" stroke="#000000" d="M 160 40 L 245.23779296875 40 L 245.23779296875 79 L 160 79 L 160 40 Z Z" stroke-miterlimit="10"/></g><g transform="translate(-110,2) scale(1,1)"><g><path fill="none" stroke="none"/><text fill="#000000" stroke="none" font-family="Arial" font-size="13px" font-style="normal" font-weight="bold" text-decoration="none" x="171.312255859375" y="59.5">User: View</text></g></g><g transform="translate(-110,2) scale(1,1)"><path fill="none" stroke="#000000" d="M 203.5 80 L 203.5 512" stroke-miterlimit="10" stroke-dasharray="3"/></g><g transform="translate(-110,2) scale(1,1)"><rect fill="#C0C0C0" stroke="none" x="351" y="47" width="81.11181640625" height="39" opacity="0.2"/></g><g transform="translate(-110,2) scale(1,1)"><rect fill="#ffffff" stroke="none" x="344" y="40" width="81.11181640625" height="39"/></g><g transform="translate(-110,2) scale(1,1)"><path fill="none" stroke="#000000" d="M 344 40 L 425.11181640625 40 L 425.11181640625 79 L 344 79 L 344 40 Z Z" stroke-miterlimit="10"/></g><g transform="translate(-110,2) scale(1,1)"><g><path fill="none" stroke="none"/><text fill="#000000" stroke="none" font-family="Arial" font-size="13px" font-style="normal" font-weight="bold" text-decoration="none" x="356.378662109375" y="59.5">Controller</text></g></g><g transform="translate(-110,2) scale(1,1)"><path fill="none" stroke="#000000" d="M 385.5 80 L 385.5 512" stroke-miterlimit="10" stroke-dasharray="3"/></g><g transform="translate(-110,2) scale(1,1)"><rect fill="#C0C0C0" stroke="none" x="695" y="47" width="113.62451171875" height="39" opacity="0.2"/></g><g transform="translate(-110,2) scale(1,1)"><rect fill="#ffffff" stroke="none" x="688" y="40" width="113.62451171875" height="39"/></g><g transform="translate(-110,2) scale(1,1)"><path fill="none" stroke="#000000" d="M 688 40 L 801.62451171875 40 L 801.62451171875 79 L 688 79 L 688 40 Z Z" stroke-miterlimit="10"/></g><g transform="translate(-110,2) scale(1,1)"><g><path fill="none" stroke="none"/><text fill="#000000" stroke="none" font-family="Arial" font-size="13px" font-style="normal" font-weight="bold" text-decoration="none" x="700.734130859375" y="59.5">Cliente: Cliente</text></g></g><g transform="translate(-110,2) scale(1,1)"><path fill="none" stroke="#000000" d="M 745.5 80 L 745.5 512" stroke-miterlimit="10" stroke-dasharray="3"/></g><g transform="translate(-110,2) scale(1,1)"><rect fill="#C0C0C0" stroke="none" x="855" y="47" width="123.0126953125" height="39" opacity="0.2"/></g><g transform="translate(-110,2) scale(1,1)"><rect fill="#ffffff" stroke="none" x="848" y="40" width="123.0126953125" height="39"/></g><g transform="translate(-110,2) scale(1,1)"><path fill="none" stroke="#000000" d="M 848 40 L 971.0126953125 40 L 971.0126953125 79 L 848 79 L 848 40 Z Z" stroke-miterlimit="10"/></g><g transform="translate(-110,2) scale(1,1)"><g><path fill="none" stroke="none"/><text fill="#000000" stroke="none" font-family="Arial" font-size="13px" font-style="normal" font-weight="bold" text-decoration="none" x="865.41552734375" y="59.5">Pedido: Pedido</text></g></g><g transform="translate(-110,2) scale(1,1)"><path fill="none" stroke="#000000" d="M 910.5 80 L 910.5 514" stroke-miterlimit="10" stroke-dasharray="3"/></g><g transform="translate(-110,2) scale(1,1)"><rect fill="#C0C0C0" stroke="none" x="511" y="47" width="139.62451171875" height="39" opacity="0.2"/></g><g transform="translate(-110,2) scale(1,1)"><rect fill="#ffffff" stroke="none" x="504" y="40" width="139.62451171875" height="39"/></g><g transform="translate(-110,2) scale(1,1)"><path fill="none" stroke="#000000" d="M 504 40 L 643.62451171875 40 L 643.62451171875 79 L 504 79 L 504 40 Z Z" stroke-miterlimit="10"/></g><g transform="translate(-110,2) scale(1,1)"><g><path fill="none" stroke="none"/><text fill="#000000" stroke="none" font-family="Arial" font-size="13px" font-style="normal" font-weight="bold" text-decoration="none" x="517.445068359375" y="59.5">Cardapio: Cardapio</text></g></g><g transform="translate(-110,2) scale(1,1)"><path fill="none" stroke="#000000" d="M 574.5 80 L 574.5 258" stroke-miterlimit="10" stroke-dasharray="3"/></g><g transform="translate(-110,2) scale(1,1)"><path fill="none" stroke="#000000" d="M 203 133 L 378 133" stroke-miterlimit="10"/></g><g transform="translate(-110,2) scale(1,1)"><path fill="#000000" stroke="none" d="M 367.83732514237585 137.209517756016 L 378 133 L 367.83732514237585 128.790482243984"/></g><g transform="translate(-110,2) scale(1,1)"><path fill="none" stroke="#000000" d="M 367.83732514237585 137.209517756016 L 378 133 L 367.83732514237585 128.790482243984 L 367.83732514237585 137.209517756016" stroke-miterlimit="10"/></g><g transform="translate(-110,2) scale(1,1)"><g><path fill="none" stroke="none"/><text fill="#000000" stroke="none" font-family="Arial" font-size="13px" font-style="normal" font-weight="normal" text-decoration="none" x="231.5" y="129.5">1 : acessar cardápio</text></g></g><g transform="translate(-110,2) scale(1,1)"><rect fill="#ffffff" stroke="none" x="378" y="133" width="13" height="43"/></g><g transform="translate(-110,2) scale(1,1)"><path fill="none" stroke="#000000" d="M 378 133 L 391 133 L 391 176 L 378 176 L 378 133 Z Z" stroke-miterlimit="10"/></g><g transform="translate(-110,2) scale(1,1)"><path fill="none" stroke="#000000" d="M 391 144 L 567 144" stroke-miterlimit="10"/></g><g transform="translate(-110,2) scale(1,1)"><path fill="#000000" stroke="none" d="M 556.8373251423759 148.209517756016 L 567 144 L 556.8373251423758 139.790482243984"/></g><g transform="translate(-110,2) scale(1,1)"><path fill="none" stroke="#000000" d="M 556.8373251423759 148.209517756016 L 567 144 L 556.8373251423758 139.790482243984 L 556.8373251423759 148.209517756016" stroke-miterlimit="10"/></g><g transform="translate(-110,2) scale(1,1)"><g><path fill="none" stroke="none"/><text fill="#000000" stroke="none" font-family="Arial" font-size="13px" font-style="normal" font-weight="normal" text-decoration="none" x="410.05908203125" y="140.5">2 : obterCardapioAtual()</text></g></g><g transform="translate(-110,2) scale(1,1)"><rect fill="#ffffff" stroke="none" x="567" y="144" width="13" height="28"/></g><g transform="translate(-110,2) scale(1,1)"><path fill="none" stroke="#000000" d="M 567 144 L 580 144 L 580 172 L 567 172 L 567 144 Z Z" stroke-miterlimit="10"/></g><g transform="translate(-110,2) scale(1,1)"><path fill="none" stroke="#000000" d="M 203 256 L 378 256" stroke-miterlimit="10"/></g><g transform="translate(-110,2) scale(1,1)"><path fill="#000000" stroke="none" d="M 367.83732514237585 260.209517756016 L 378 256 L 367.83732514237585 251.790482243984"/></g><g transform="translate(-110,2) scale(1,1)"><path fill="none" stroke="#000000" d="M 367.83732514237585 260.209517756016 L 378 256 L 367.83732514237585 251.790482243984 L 367.83732514237585 260.209517756016" stroke-miterlimit="10"/></g><g transform="translate(-110,2) scale(1,1)"><g><path fill="none" stroke="none"/><text fill="#000000" stroke="none" font-family="Arial" font-size="13px" font-style="normal" font-weight="normal" text-decoration="none" x="239.5" y="252.5">3 : montar pedido</text></g></g><g transform="translate(-110,2) scale(1,1)"><rect fill="#ffffff" stroke="none" x="378" y="256" width="13" height="200"/></g><g transform="translate(-110,2) scale(1,1)"><path fill="none" stroke="#000000" d="M 378 256 L 391 256 L 391 456 L 378 456 L 378 256 Z Z" stroke-miterlimit="10"/></g><g transform="translate(-110,2) scale(1,1)"><path fill="none" stroke="#000000" d="M 391 288 L 738 288" stroke-miterlimit="10"/></g><g transform="translate(-110,2) scale(1,1)"><path fill="#000000" stroke="none" d="M 727.8373251423759 292.209517756016 L 738 288 L 727.8373251423758 283.790482243984"/></g><g transform="translate(-110,2) scale(1,1)"><path fill="none" stroke="#000000" d="M 727.8373251423759 292.209517756016 L 738 288 L 727.8373251423758 283.790482243984 L 727.8373251423759 292.209517756016" stroke-miterlimit="10"/></g><g transform="translate(-110,2) scale(1,1)"><g><path fill="none" stroke="none"/><text fill="#000000" stroke="none" font-family="Arial" font-size="13px" font-style="normal" font-weight="normal" text-decoration="none" x="536.5" y="284.5">4 : encontrarFranquiaProxima()</text></g></g><g transform="translate(-110,2) scale(1,1)"><rect fill="#ffffff" stroke="none" x="738" y="288" width="13" height="28"/></g><g transform="translate(-110,2) scale(1,1)"><path fill="none" stroke="#000000" d="M 738 288 L 751 288 L 751 316 L 738 316 L 738 288 Z Z" stroke-miterlimit="10"/></g><g transform="translate(-110,2) scale(1,1)"><path fill="none" stroke="#000000" d="M 391 400 L 903 400" stroke-miterlimit="10"/></g><g transform="translate(-110,2) scale(1,1)"><path fill="#000000" stroke="none" d="M 892.8373251423759 404.209517756016 L 903 400 L 892.8373251423758 395.790482243984"/></g><g transform="translate(-110,2) scale(1,1)"><path fill="none" stroke="#000000" d="M 892.8373251423759 404.209517756016 L 903 400 L 892.8373251423758 395.790482243984 L 892.8373251423759 404.209517756016" stroke-miterlimit="10"/></g><g transform="translate(-110,2) scale(1,1)"><g><path fill="none" stroke="none"/><text fill="#000000" stroke="none" font-family="Arial" font-size="13px" font-style="normal" font-weight="normal" text-decoration="none" x="576.5" y="396.5">6 : registrarPagamento()</text></g></g><g transform="translate(-110,2) scale(1,1)"><rect fill="#ffffff" stroke="none" x="903" y="400" width="13" height="28"/></g><g transform="translate(-110,2) scale(1,1)"><path fill="none" stroke="#000000" d="M 903 400 L 916 400 L 916 428 L 903 428 L 903 400 Z Z" stroke-miterlimit="10"/></g><g transform="translate(-110,2) scale(1,1)"><path fill="none" stroke="#000000" d="M 391 352 L 903 352" stroke-miterlimit="10"/></g><g transform="translate(-110,2) scale(1,1)"><path fill="#000000" stroke="none" d="M 892.8373251423759 356.209517756016 L 903 352 L 892.8373251423758 347.790482243984"/></g><g transform="translate(-110,2) scale(1,1)"><path fill="none" stroke="#000000" d="M 892.8373251423759 356.209517756016 L 903 352 L 892.8373251423758 347.790482243984 L 892.8373251423759 356.209517756016" stroke-miterlimit="10"/></g><g transform="translate(-110,2) scale(1,1)"><g><path fill="none" stroke="none"/><text fill="#000000" stroke="none" font-family="Arial" font-size="13px" font-style="normal" font-weight="normal" text-decoration="none" x="601.647705078125" y="348.5">5 : inserirPedido()</text></g></g><g transform="translate(-110,2) scale(1,1)"><rect fill="#ffffff" stroke="none" x="903" y="352" width="13" height="28"/></g><g transform="translate(-110,2) scale(1,1)"><path fill="none" stroke="#000000" d="M 903 352 L 916 352 L 916 380 L 903 380 L 903 352 Z Z" stroke-miterlimit="10"/></g></g></svg>